M48
; DRILL file {KiCad 7.0.2} date Sun Apr  7 22:55:55 2024
; FORMAT={-:-/ absolute / metric / decimal}
; #@! TF.CreationDate,2024-04-07T22:55:55+02:00
; #@! TF.GenerationSoftware,Kicad,Pcbnew,7.0.2
; #@! TF.FileFunction,Plated,1,2,PTH
FMAT,2
METRIC
; #@! TA.AperFunction,Plated,PTH,ViaDrill
T1C0.400
; #@! TA.AperFunction,Plated,PTH,ComponentDrill
T2C0.900
; #@! TA.AperFunction,Plated,PTH,ComponentDrill
T3C1.000
; #@! TA.AperFunction,Plated,PTH,ComponentDrill
T4C1.500
%
G90
G05
T1
X17.526Y-86.36
X17.526Y-91.36
X17.526Y-96.36
X17.526Y-101.36
X17.526Y-106.36
X17.526Y-111.36
X27.526Y-86.36
X27.526Y-91.36
X27.526Y-96.36
X27.526Y-101.36
X27.526Y-106.36
X27.526Y-111.36
X37.526Y-86.36
X37.526Y-91.36
X57.526Y-91.36
X67.526Y-91.36
X67.526Y-96.36
X67.526Y-101.36
X67.526Y-106.36
X77.526Y-91.36
X77.526Y-96.36
X77.526Y-101.36
X77.526Y-106.36
X87.526Y-91.36
X87.526Y-96.36
X87.526Y-101.36
X87.526Y-106.36
X97.526Y-91.36
X97.526Y-96.36
X97.526Y-101.36
X97.526Y-106.36
X107.526Y-91.36
X117.526Y-91.36
X127.526Y-91.36
X127.526Y-101.36
X127.526Y-106.36
X137.526Y-91.36
X137.526Y-101.36
X137.526Y-106.36
X147.526Y-91.36
X147.526Y-101.36
X147.526Y-106.36
X157.526Y-91.36
X157.526Y-101.36
X157.526Y-106.36
X167.526Y-91.36
X167.526Y-101.36
X167.526Y-106.36
X177.526Y-91.36
X187.526Y-91.36
X187.526Y-106.36
X197.526Y-91.36
X197.526Y-106.36
X207.526Y-91.36
X210.312Y-98.806
X213.106Y-101.346
X217.526Y-106.36
X219.71Y-103.886
X227.526Y-86.36
X227.526Y-91.36
X227.526Y-96.36
X227.526Y-106.36
X237.526Y-86.36
X247.526Y-86.36
X247.526Y-91.36
X257.526Y-86.36
X257.526Y-91.36
X257.526Y-96.36
X257.526Y-101.36
X257.526Y-106.36
X267.526Y-86.36
X267.526Y-91.36
X267.526Y-96.36
X267.526Y-101.36
X267.526Y-106.36
X267.526Y-111.36
T2
X43.056Y-88.992
X45.596Y-88.992
X109.604Y-88.992
X112.144Y-88.992
X176.152Y-88.992
X178.692Y-88.992
X242.7Y-88.992
X245.24Y-88.992
T3
X212.766Y-91.477
X212.766Y-94.017
X215.306Y-91.477
X215.306Y-94.017
X217.846Y-91.477
X217.846Y-94.017
X220.386Y-91.477
X220.386Y-94.017
X222.926Y-91.477
X222.926Y-94.017
T4
X38.206Y-99.24G85X39.706Y-99.24
G05
X38.206Y-104.04G85X39.706Y-104.04
G05
X38.206Y-108.84G85X39.706Y-108.84
G05
X43.506Y-99.24G85X45.006Y-99.24
G05
X43.506Y-104.04G85X45.006Y-104.04
G05
X43.506Y-108.84G85X45.006Y-108.84
G05
X48.806Y-99.24G85X50.306Y-99.24
G05
X48.806Y-104.04G85X50.306Y-104.04
G05
X48.806Y-108.84G85X50.306Y-108.84
G05
X104.754Y-99.24G85X106.254Y-99.24
G05
X104.754Y-104.04G85X106.254Y-104.04
G05
X104.754Y-108.84G85X106.254Y-108.84
G05
X110.054Y-99.24G85X111.554Y-99.24
G05
X110.054Y-104.04G85X111.554Y-104.04
G05
X110.054Y-108.84G85X111.554Y-108.84
G05
X115.354Y-99.24G85X116.854Y-99.24
G05
X115.354Y-104.04G85X116.854Y-104.04
G05
X115.354Y-108.84G85X116.854Y-108.84
G05
X171.302Y-99.24G85X172.802Y-99.24
G05
X171.302Y-104.04G85X172.802Y-104.04
G05
X171.302Y-108.84G85X172.802Y-108.84
G05
X176.602Y-99.24G85X178.102Y-99.24
G05
X176.602Y-104.04G85X178.102Y-104.04
G05
X176.602Y-108.84G85X178.102Y-108.84
G05
X181.902Y-99.24G85X183.402Y-99.24
G05
X181.902Y-104.04G85X183.402Y-104.04
G05
X181.902Y-108.84G85X183.402Y-108.84
G05
X237.85Y-99.24G85X239.35Y-99.24
G05
X237.85Y-104.04G85X239.35Y-104.04
G05
X237.85Y-108.84G85X239.35Y-108.84
G05
X243.15Y-99.24G85X244.65Y-99.24
G05
X243.15Y-104.04G85X244.65Y-104.04
G05
X243.15Y-108.84G85X244.65Y-108.84
G05
X248.45Y-99.24G85X249.95Y-99.24
G05
X248.45Y-104.04G85X249.95Y-104.04
G05
X248.45Y-108.84G85X249.95Y-108.84
G05
T0
M30
