G04 #@! TF.GenerationSoftware,KiCad,Pcbnew,7.0.2*
G04 #@! TF.CreationDate,2024-04-08T23:43:08+02:00*
G04 #@! TF.ProjectId,stm_audio_board_v3_Footswitch,73746d5f-6175-4646-996f-5f626f617264,rev?*
G04 #@! TF.SameCoordinates,Original*
G04 #@! TF.FileFunction,Copper,L1,Top*
G04 #@! TF.FilePolarity,Positive*
%FSLAX46Y46*%
G04 Gerber Fmt 4.6, Leading zero omitted, Abs format (unit mm)*
G04 Created by KiCad (PCBNEW 7.0.2) date 2024-04-08 23:43:08*
%MOMM*%
%LPD*%
G01*
G04 APERTURE LIST*
G04 Aperture macros list*
%AMRoundRect*
0 Rectangle with rounded corners*
0 $1 Rounding radius*
0 $2 $3 $4 $5 $6 $7 $8 $9 X,Y pos of 4 corners*
0 Add a 4 corners polygon primitive as box body*
4,1,4,$2,$3,$4,$5,$6,$7,$8,$9,$2,$3,0*
0 Add four circle primitives for the rounded corners*
1,1,$1+$1,$2,$3*
1,1,$1+$1,$4,$5*
1,1,$1+$1,$6,$7*
1,1,$1+$1,$8,$9*
0 Add four rect primitives between the rounded corners*
20,1,$1+$1,$2,$3,$4,$5,0*
20,1,$1+$1,$4,$5,$6,$7,0*
20,1,$1+$1,$6,$7,$8,$9,0*
20,1,$1+$1,$8,$9,$2,$3,0*%
G04 Aperture macros list end*
G04 #@! TA.AperFunction,ComponentPad*
%ADD10R,1.800000X1.800000*%
G04 #@! TD*
G04 #@! TA.AperFunction,ComponentPad*
%ADD11C,1.800000*%
G04 #@! TD*
G04 #@! TA.AperFunction,ComponentPad*
%ADD12R,3.500000X3.000000*%
G04 #@! TD*
G04 #@! TA.AperFunction,ComponentPad*
%ADD13RoundRect,0.250000X-0.600000X0.600000X-0.600000X-0.600000X0.600000X-0.600000X0.600000X0.600000X0*%
G04 #@! TD*
G04 #@! TA.AperFunction,ComponentPad*
%ADD14C,1.700000*%
G04 #@! TD*
G04 #@! TA.AperFunction,ViaPad*
%ADD15C,0.800000*%
G04 #@! TD*
G04 #@! TA.AperFunction,Conductor*
%ADD16C,0.254000*%
G04 #@! TD*
G04 #@! TA.AperFunction,Conductor*
%ADD17C,0.508000*%
G04 #@! TD*
G04 APERTURE END LIST*
D10*
X43452000Y-89265000D03*
D11*
X45992000Y-89265000D03*
D12*
X50252000Y-99465000D03*
X50252000Y-104265000D03*
X50252000Y-109065000D03*
X44952000Y-99465000D03*
X44952000Y-104265000D03*
X44952000Y-109065000D03*
X39652000Y-99465000D03*
X39652000Y-104265000D03*
X39652000Y-109065000D03*
D10*
X113452000Y-89265000D03*
D11*
X115992000Y-89265000D03*
D10*
X183452000Y-89265000D03*
D11*
X185992000Y-89265000D03*
D12*
X120252000Y-99465000D03*
X120252000Y-104265000D03*
X120252000Y-109065000D03*
X114952000Y-99465000D03*
X114952000Y-104265000D03*
X114952000Y-109065000D03*
X109652000Y-99465000D03*
X109652000Y-104265000D03*
X109652000Y-109065000D03*
X190252000Y-99465000D03*
X190252000Y-104265000D03*
X190252000Y-109065000D03*
X184952000Y-99465000D03*
X184952000Y-104265000D03*
X184952000Y-109065000D03*
X179652000Y-99465000D03*
X179652000Y-104265000D03*
X179652000Y-109065000D03*
X249652000Y-109065000D03*
X249652000Y-104265000D03*
X249652000Y-99465000D03*
X254952000Y-109065000D03*
X254952000Y-104265000D03*
X254952000Y-99465000D03*
X260252000Y-109065000D03*
X260252000Y-104265000D03*
X260252000Y-99465000D03*
D13*
X222926000Y-91477000D03*
D14*
X222926000Y-94017000D03*
X220386000Y-91477000D03*
X220386000Y-94017000D03*
X217846000Y-91477000D03*
X217846000Y-94017000D03*
X215306000Y-91477000D03*
X215306000Y-94017000D03*
X212766000Y-91477000D03*
X212766000Y-94017000D03*
D10*
X253452000Y-89265000D03*
D11*
X255992000Y-89265000D03*
D15*
X219710000Y-103886000D03*
X210312000Y-98806000D03*
X77526000Y-91360000D03*
X117526000Y-91360000D03*
X97526000Y-101360000D03*
X67526000Y-96360000D03*
X197526000Y-91360000D03*
X137526000Y-91360000D03*
X227526000Y-91360000D03*
X207526000Y-91360000D03*
X127526000Y-91360000D03*
X227526000Y-96360000D03*
X157526000Y-91360000D03*
X187526000Y-91360000D03*
X57526000Y-91360000D03*
X127526000Y-106360000D03*
X87526000Y-101360000D03*
X97526000Y-96360000D03*
X177526000Y-91360000D03*
X87526000Y-106360000D03*
X197526000Y-106360000D03*
X247526000Y-86360000D03*
X37526000Y-91360000D03*
X77526000Y-101360000D03*
X237526000Y-86360000D03*
X227526000Y-106360000D03*
X67526000Y-106360000D03*
X97526000Y-106360000D03*
X107526000Y-91360000D03*
X167526000Y-106360000D03*
X37526000Y-86360000D03*
X167526000Y-91360000D03*
X227526000Y-86360000D03*
X187526000Y-106360000D03*
X87526000Y-91360000D03*
X127526000Y-101360000D03*
X77526000Y-96360000D03*
X77526000Y-106360000D03*
X67526000Y-101360000D03*
X217526000Y-106360000D03*
X167526000Y-101360000D03*
X147526000Y-91360000D03*
X97526000Y-91360000D03*
X87526000Y-96360000D03*
X67526000Y-91360000D03*
X213106000Y-101346000D03*
D16*
X252477000Y-101790000D02*
X254952000Y-104265000D01*
X212766000Y-96942000D02*
X217614000Y-101790000D01*
X217614000Y-101790000D02*
X252477000Y-101790000D01*
X212766000Y-94017000D02*
X212766000Y-96942000D01*
D17*
X117377000Y-101840000D02*
X114952000Y-104265000D01*
X123380000Y-101840000D02*
X117377000Y-101840000D01*
X204724000Y-98806000D02*
X210312000Y-98806000D01*
X202184000Y-96266000D02*
X204724000Y-98806000D01*
X129414000Y-96266000D02*
X202184000Y-96266000D01*
X123394000Y-101854000D02*
X123826000Y-101854000D01*
X123826000Y-101854000D02*
X129414000Y-96266000D01*
X123380000Y-101840000D02*
X123394000Y-101854000D01*
X52959000Y-101219000D02*
X59436000Y-94742000D01*
X208725739Y-94742000D02*
X217869739Y-103886000D01*
X59436000Y-94742000D02*
X208725739Y-94742000D01*
X217869739Y-103886000D02*
X219710000Y-103886000D01*
D16*
X52959000Y-101219000D02*
X52959000Y-101351000D01*
X52959000Y-101351000D02*
X52440000Y-101870000D01*
X52440000Y-101870000D02*
X46426000Y-101870000D01*
X46426000Y-101870000D02*
X44256000Y-104040000D01*
X187477000Y-101740000D02*
X193310000Y-101740000D01*
X184952000Y-104265000D02*
X187477000Y-101740000D01*
D17*
X212712000Y-101740000D02*
X193310000Y-101740000D01*
X213106000Y-101346000D02*
X212712000Y-101740000D01*
X255992000Y-91408000D02*
X255992000Y-89265000D01*
X255140000Y-92260000D02*
X255992000Y-91408000D01*
X218948000Y-89154000D02*
X229108000Y-89154000D01*
X229108000Y-89154000D02*
X232214000Y-92260000D01*
X217846000Y-91477000D02*
X217846000Y-90256000D01*
X217846000Y-90256000D02*
X218948000Y-89154000D01*
X232214000Y-92260000D02*
X255140000Y-92260000D01*
X217932000Y-94103000D02*
X217846000Y-94017000D01*
D16*
X110804000Y-104040000D02*
X110844000Y-104040000D01*
D17*
X215138000Y-94185000D02*
X215306000Y-94017000D01*
G04 #@! TA.AperFunction,Conductor*
G36*
X267152592Y-84429834D02*
G01*
X267219613Y-84449565D01*
X267265331Y-84502401D01*
X267276500Y-84553833D01*
X267276500Y-114165500D01*
X267256815Y-114232539D01*
X267204011Y-114278294D01*
X267152500Y-114289500D01*
X67336294Y-114289500D01*
X32676413Y-114265157D01*
X32609387Y-114245425D01*
X32563669Y-114192589D01*
X32552500Y-114141157D01*
X32552500Y-110609578D01*
X37401500Y-110609578D01*
X37401501Y-110612872D01*
X37407909Y-110672483D01*
X37458204Y-110807331D01*
X37544454Y-110922546D01*
X37659669Y-111008796D01*
X37794517Y-111059091D01*
X37854127Y-111065500D01*
X41449872Y-111065499D01*
X41509483Y-111059091D01*
X41644331Y-111008796D01*
X41759546Y-110922546D01*
X41845796Y-110807331D01*
X41896091Y-110672483D01*
X41902500Y-110612873D01*
X41902500Y-110609578D01*
X42701500Y-110609578D01*
X42701501Y-110612872D01*
X42707909Y-110672483D01*
X42758204Y-110807331D01*
X42844454Y-110922546D01*
X42959669Y-111008796D01*
X43094517Y-111059091D01*
X43154127Y-111065500D01*
X46749872Y-111065499D01*
X46809483Y-111059091D01*
X46944331Y-111008796D01*
X47059546Y-110922546D01*
X47145796Y-110807331D01*
X47196091Y-110672483D01*
X47202500Y-110612873D01*
X47202500Y-110609578D01*
X48001500Y-110609578D01*
X48001501Y-110612872D01*
X48007909Y-110672483D01*
X48058204Y-110807331D01*
X48144454Y-110922546D01*
X48259669Y-111008796D01*
X48394517Y-111059091D01*
X48454127Y-111065500D01*
X52049872Y-111065499D01*
X52109483Y-111059091D01*
X52244331Y-111008796D01*
X52359546Y-110922546D01*
X52445796Y-110807331D01*
X52496091Y-110672483D01*
X52502500Y-110612873D01*
X52502500Y-110609578D01*
X107401500Y-110609578D01*
X107401501Y-110612872D01*
X107407909Y-110672483D01*
X107458204Y-110807331D01*
X107544454Y-110922546D01*
X107659669Y-111008796D01*
X107794517Y-111059091D01*
X107854127Y-111065500D01*
X111449872Y-111065499D01*
X111509483Y-111059091D01*
X111644331Y-111008796D01*
X111759546Y-110922546D01*
X111845796Y-110807331D01*
X111896091Y-110672483D01*
X111902500Y-110612873D01*
X111902500Y-110609578D01*
X112701500Y-110609578D01*
X112701501Y-110612872D01*
X112707909Y-110672483D01*
X112758204Y-110807331D01*
X112844454Y-110922546D01*
X112959669Y-111008796D01*
X113094517Y-111059091D01*
X113154127Y-111065500D01*
X116749872Y-111065499D01*
X116809483Y-111059091D01*
X116944331Y-111008796D01*
X117059546Y-110922546D01*
X117145796Y-110807331D01*
X117196091Y-110672483D01*
X117202500Y-110612873D01*
X117202500Y-110609578D01*
X118001500Y-110609578D01*
X118001501Y-110612872D01*
X118007909Y-110672483D01*
X118058204Y-110807331D01*
X118144454Y-110922546D01*
X118259669Y-111008796D01*
X118394517Y-111059091D01*
X118454127Y-111065500D01*
X122049872Y-111065499D01*
X122109483Y-111059091D01*
X122244331Y-111008796D01*
X122359546Y-110922546D01*
X122445796Y-110807331D01*
X122496091Y-110672483D01*
X122502500Y-110612873D01*
X122502500Y-110609578D01*
X177401500Y-110609578D01*
X177401501Y-110612872D01*
X177407909Y-110672483D01*
X177458204Y-110807331D01*
X177544454Y-110922546D01*
X177659669Y-111008796D01*
X177794517Y-111059091D01*
X177854127Y-111065500D01*
X181449872Y-111065499D01*
X181509483Y-111059091D01*
X181644331Y-111008796D01*
X181759546Y-110922546D01*
X181845796Y-110807331D01*
X181896091Y-110672483D01*
X181902500Y-110612873D01*
X181902500Y-110609578D01*
X182701500Y-110609578D01*
X182701501Y-110612872D01*
X182707909Y-110672483D01*
X182758204Y-110807331D01*
X182844454Y-110922546D01*
X182959669Y-111008796D01*
X183094517Y-111059091D01*
X183154127Y-111065500D01*
X186749872Y-111065499D01*
X186809483Y-111059091D01*
X186944331Y-111008796D01*
X187059546Y-110922546D01*
X187145796Y-110807331D01*
X187196091Y-110672483D01*
X187202500Y-110612873D01*
X187202500Y-110609578D01*
X188001500Y-110609578D01*
X188001501Y-110612872D01*
X188007909Y-110672483D01*
X188058204Y-110807331D01*
X188144454Y-110922546D01*
X188259669Y-111008796D01*
X188394517Y-111059091D01*
X188454127Y-111065500D01*
X192049872Y-111065499D01*
X192109483Y-111059091D01*
X192244331Y-111008796D01*
X192359546Y-110922546D01*
X192445796Y-110807331D01*
X192496091Y-110672483D01*
X192502500Y-110612873D01*
X192502500Y-110609578D01*
X247401500Y-110609578D01*
X247401501Y-110612872D01*
X247407909Y-110672483D01*
X247458204Y-110807331D01*
X247544454Y-110922546D01*
X247659669Y-111008796D01*
X247794517Y-111059091D01*
X247854127Y-111065500D01*
X251449872Y-111065499D01*
X251509483Y-111059091D01*
X251644331Y-111008796D01*
X251759546Y-110922546D01*
X251845796Y-110807331D01*
X251896091Y-110672483D01*
X251902500Y-110612873D01*
X251902500Y-110609578D01*
X252701500Y-110609578D01*
X252701501Y-110612872D01*
X252707909Y-110672483D01*
X252758204Y-110807331D01*
X252844454Y-110922546D01*
X252959669Y-111008796D01*
X253094517Y-111059091D01*
X253154127Y-111065500D01*
X256749872Y-111065499D01*
X256809483Y-111059091D01*
X256944331Y-111008796D01*
X257059546Y-110922546D01*
X257145796Y-110807331D01*
X257196091Y-110672483D01*
X257202500Y-110612873D01*
X257202500Y-110609578D01*
X258001500Y-110609578D01*
X258001501Y-110612872D01*
X258007909Y-110672483D01*
X258058204Y-110807331D01*
X258144454Y-110922546D01*
X258259669Y-111008796D01*
X258394517Y-111059091D01*
X258454127Y-111065500D01*
X262049872Y-111065499D01*
X262109483Y-111059091D01*
X262244331Y-111008796D01*
X262359546Y-110922546D01*
X262445796Y-110807331D01*
X262496091Y-110672483D01*
X262502500Y-110612873D01*
X262502499Y-107517128D01*
X262496091Y-107457517D01*
X262445796Y-107322669D01*
X262359546Y-107207454D01*
X262244331Y-107121204D01*
X262109483Y-107070909D01*
X262049873Y-107064500D01*
X262046550Y-107064500D01*
X258457439Y-107064500D01*
X258457420Y-107064500D01*
X258454128Y-107064501D01*
X258450848Y-107064853D01*
X258450840Y-107064854D01*
X258394515Y-107070909D01*
X258259669Y-107121204D01*
X258144454Y-107207454D01*
X258058204Y-107322668D01*
X258007910Y-107457515D01*
X258007909Y-107457517D01*
X258001500Y-107517127D01*
X258001500Y-107520448D01*
X258001500Y-107520449D01*
X258001500Y-110609560D01*
X258001500Y-110609578D01*
X257202500Y-110609578D01*
X257202499Y-107517128D01*
X257196091Y-107457517D01*
X257145796Y-107322669D01*
X257059546Y-107207454D01*
X256944331Y-107121204D01*
X256809483Y-107070909D01*
X256749873Y-107064500D01*
X256746550Y-107064500D01*
X253157439Y-107064500D01*
X253157420Y-107064500D01*
X253154128Y-107064501D01*
X253150848Y-107064853D01*
X253150840Y-107064854D01*
X253094515Y-107070909D01*
X252959669Y-107121204D01*
X252844454Y-107207454D01*
X252758204Y-107322668D01*
X252707910Y-107457515D01*
X252707909Y-107457517D01*
X252701500Y-107517127D01*
X252701500Y-107520448D01*
X252701500Y-107520449D01*
X252701500Y-110609560D01*
X252701500Y-110609578D01*
X251902500Y-110609578D01*
X251902499Y-107517128D01*
X251896091Y-107457517D01*
X251845796Y-107322669D01*
X251759546Y-107207454D01*
X251644331Y-107121204D01*
X251509483Y-107070909D01*
X251449873Y-107064500D01*
X251446550Y-107064500D01*
X247857439Y-107064500D01*
X247857420Y-107064500D01*
X247854128Y-107064501D01*
X247850848Y-107064853D01*
X247850840Y-107064854D01*
X247794515Y-107070909D01*
X247659669Y-107121204D01*
X247544454Y-107207454D01*
X247458204Y-107322668D01*
X247407910Y-107457515D01*
X247407909Y-107457517D01*
X247401500Y-107517127D01*
X247401500Y-107520448D01*
X247401500Y-107520449D01*
X247401500Y-110609560D01*
X247401500Y-110609578D01*
X192502500Y-110609578D01*
X192502499Y-107517128D01*
X192496091Y-107457517D01*
X192445796Y-107322669D01*
X192359546Y-107207454D01*
X192244331Y-107121204D01*
X192109483Y-107070909D01*
X192049873Y-107064500D01*
X192046550Y-107064500D01*
X188457439Y-107064500D01*
X188457420Y-107064500D01*
X188454128Y-107064501D01*
X188450848Y-107064853D01*
X188450840Y-107064854D01*
X188394515Y-107070909D01*
X188259669Y-107121204D01*
X188144454Y-107207454D01*
X188058204Y-107322668D01*
X188007910Y-107457515D01*
X188007909Y-107457517D01*
X188001500Y-107517127D01*
X188001500Y-107520448D01*
X188001500Y-107520449D01*
X188001500Y-110609560D01*
X188001500Y-110609578D01*
X187202500Y-110609578D01*
X187202499Y-107517128D01*
X187196091Y-107457517D01*
X187145796Y-107322669D01*
X187059546Y-107207454D01*
X186944331Y-107121204D01*
X186809483Y-107070909D01*
X186749873Y-107064500D01*
X186746550Y-107064500D01*
X183157439Y-107064500D01*
X183157420Y-107064500D01*
X183154128Y-107064501D01*
X183150848Y-107064853D01*
X183150840Y-107064854D01*
X183094515Y-107070909D01*
X182959669Y-107121204D01*
X182844454Y-107207454D01*
X182758204Y-107322668D01*
X182707910Y-107457515D01*
X182707909Y-107457517D01*
X182701500Y-107517127D01*
X182701500Y-107520448D01*
X182701500Y-107520449D01*
X182701500Y-110609560D01*
X182701500Y-110609578D01*
X181902500Y-110609578D01*
X181902499Y-107517128D01*
X181896091Y-107457517D01*
X181845796Y-107322669D01*
X181759546Y-107207454D01*
X181644331Y-107121204D01*
X181509483Y-107070909D01*
X181449873Y-107064500D01*
X181446550Y-107064500D01*
X177857439Y-107064500D01*
X177857420Y-107064500D01*
X177854128Y-107064501D01*
X177850848Y-107064853D01*
X177850840Y-107064854D01*
X177794515Y-107070909D01*
X177659669Y-107121204D01*
X177544454Y-107207454D01*
X177458204Y-107322668D01*
X177407910Y-107457515D01*
X177407909Y-107457517D01*
X177401500Y-107517127D01*
X177401500Y-107520448D01*
X177401500Y-107520449D01*
X177401500Y-110609560D01*
X177401500Y-110609578D01*
X122502500Y-110609578D01*
X122502499Y-107517128D01*
X122496091Y-107457517D01*
X122445796Y-107322669D01*
X122359546Y-107207454D01*
X122244331Y-107121204D01*
X122109483Y-107070909D01*
X122049873Y-107064500D01*
X122046550Y-107064500D01*
X118457439Y-107064500D01*
X118457420Y-107064500D01*
X118454128Y-107064501D01*
X118450848Y-107064853D01*
X118450840Y-107064854D01*
X118394515Y-107070909D01*
X118259669Y-107121204D01*
X118144454Y-107207454D01*
X118058204Y-107322668D01*
X118007910Y-107457515D01*
X118007909Y-107457517D01*
X118001500Y-107517127D01*
X118001500Y-107520448D01*
X118001500Y-107520449D01*
X118001500Y-110609560D01*
X118001500Y-110609578D01*
X117202500Y-110609578D01*
X117202499Y-107517128D01*
X117196091Y-107457517D01*
X117145796Y-107322669D01*
X117059546Y-107207454D01*
X116944331Y-107121204D01*
X116809483Y-107070909D01*
X116749873Y-107064500D01*
X116746550Y-107064500D01*
X113157439Y-107064500D01*
X113157420Y-107064500D01*
X113154128Y-107064501D01*
X113150848Y-107064853D01*
X113150840Y-107064854D01*
X113094515Y-107070909D01*
X112959669Y-107121204D01*
X112844454Y-107207454D01*
X112758204Y-107322668D01*
X112707910Y-107457515D01*
X112707909Y-107457517D01*
X112701500Y-107517127D01*
X112701500Y-107520448D01*
X112701500Y-107520449D01*
X112701500Y-110609560D01*
X112701500Y-110609578D01*
X111902500Y-110609578D01*
X111902499Y-107517128D01*
X111896091Y-107457517D01*
X111845796Y-107322669D01*
X111759546Y-107207454D01*
X111644331Y-107121204D01*
X111509483Y-107070909D01*
X111449873Y-107064500D01*
X111446550Y-107064500D01*
X107857439Y-107064500D01*
X107857420Y-107064500D01*
X107854128Y-107064501D01*
X107850848Y-107064853D01*
X107850840Y-107064854D01*
X107794515Y-107070909D01*
X107659669Y-107121204D01*
X107544454Y-107207454D01*
X107458204Y-107322668D01*
X107407910Y-107457515D01*
X107407909Y-107457517D01*
X107401500Y-107517127D01*
X107401500Y-107520448D01*
X107401500Y-107520449D01*
X107401500Y-110609560D01*
X107401500Y-110609578D01*
X52502500Y-110609578D01*
X52502499Y-107517128D01*
X52496091Y-107457517D01*
X52445796Y-107322669D01*
X52359546Y-107207454D01*
X52244331Y-107121204D01*
X52109483Y-107070909D01*
X52049873Y-107064500D01*
X52046550Y-107064500D01*
X48457439Y-107064500D01*
X48457420Y-107064500D01*
X48454128Y-107064501D01*
X48450848Y-107064853D01*
X48450840Y-107064854D01*
X48394515Y-107070909D01*
X48259669Y-107121204D01*
X48144454Y-107207454D01*
X48058204Y-107322668D01*
X48007910Y-107457515D01*
X48007909Y-107457517D01*
X48001500Y-107517127D01*
X48001500Y-107520448D01*
X48001500Y-107520449D01*
X48001500Y-110609560D01*
X48001500Y-110609578D01*
X47202500Y-110609578D01*
X47202499Y-107517128D01*
X47196091Y-107457517D01*
X47145796Y-107322669D01*
X47059546Y-107207454D01*
X46944331Y-107121204D01*
X46809483Y-107070909D01*
X46749873Y-107064500D01*
X46746550Y-107064500D01*
X43157439Y-107064500D01*
X43157420Y-107064500D01*
X43154128Y-107064501D01*
X43150848Y-107064853D01*
X43150840Y-107064854D01*
X43094515Y-107070909D01*
X42959669Y-107121204D01*
X42844454Y-107207454D01*
X42758204Y-107322668D01*
X42707910Y-107457515D01*
X42707909Y-107457517D01*
X42701500Y-107517127D01*
X42701500Y-107520448D01*
X42701500Y-107520449D01*
X42701500Y-110609560D01*
X42701500Y-110609578D01*
X41902500Y-110609578D01*
X41902499Y-107517128D01*
X41896091Y-107457517D01*
X41845796Y-107322669D01*
X41759546Y-107207454D01*
X41644331Y-107121204D01*
X41509483Y-107070909D01*
X41449873Y-107064500D01*
X41446550Y-107064500D01*
X37857439Y-107064500D01*
X37857420Y-107064500D01*
X37854128Y-107064501D01*
X37850848Y-107064853D01*
X37850840Y-107064854D01*
X37794515Y-107070909D01*
X37659669Y-107121204D01*
X37544454Y-107207454D01*
X37458204Y-107322668D01*
X37407910Y-107457515D01*
X37407909Y-107457517D01*
X37401500Y-107517127D01*
X37401500Y-107520448D01*
X37401500Y-107520449D01*
X37401500Y-110609560D01*
X37401500Y-110609578D01*
X32552500Y-110609578D01*
X32552500Y-105809578D01*
X37401500Y-105809578D01*
X37401501Y-105812872D01*
X37407909Y-105872483D01*
X37458204Y-106007331D01*
X37544454Y-106122546D01*
X37659669Y-106208796D01*
X37794517Y-106259091D01*
X37854127Y-106265500D01*
X41449872Y-106265499D01*
X41509483Y-106259091D01*
X41644331Y-106208796D01*
X41759546Y-106122546D01*
X41845796Y-106007331D01*
X41896091Y-105872483D01*
X41902500Y-105812873D01*
X41902500Y-105809578D01*
X42701500Y-105809578D01*
X42701501Y-105812872D01*
X42707909Y-105872483D01*
X42758204Y-106007331D01*
X42844454Y-106122546D01*
X42959669Y-106208796D01*
X43094517Y-106259091D01*
X43154127Y-106265500D01*
X46749872Y-106265499D01*
X46809483Y-106259091D01*
X46944331Y-106208796D01*
X47059546Y-106122546D01*
X47145796Y-106007331D01*
X47196091Y-105872483D01*
X47202500Y-105812873D01*
X47202499Y-102717128D01*
X47196091Y-102657517D01*
X47196090Y-102657513D01*
X47194426Y-102642031D01*
X47197167Y-102641736D01*
X47193836Y-102595139D01*
X47227323Y-102533817D01*
X47288647Y-102500333D01*
X47315002Y-102497500D01*
X47888998Y-102497500D01*
X47956037Y-102517185D01*
X48001792Y-102569989D01*
X48011736Y-102639147D01*
X48008536Y-102651682D01*
X48001854Y-102713833D01*
X48001500Y-102717127D01*
X48001500Y-102720448D01*
X48001500Y-102720449D01*
X48001500Y-105809560D01*
X48001500Y-105809578D01*
X48001501Y-105812872D01*
X48007909Y-105872483D01*
X48058204Y-106007331D01*
X48144454Y-106122546D01*
X48259669Y-106208796D01*
X48394517Y-106259091D01*
X48454127Y-106265500D01*
X52049872Y-106265499D01*
X52109483Y-106259091D01*
X52244331Y-106208796D01*
X52359546Y-106122546D01*
X52445796Y-106007331D01*
X52496091Y-105872483D01*
X52502500Y-105812873D01*
X52502500Y-105809578D01*
X107401500Y-105809578D01*
X107401501Y-105812872D01*
X107407909Y-105872483D01*
X107458204Y-106007331D01*
X107544454Y-106122546D01*
X107659669Y-106208796D01*
X107794517Y-106259091D01*
X107854127Y-106265500D01*
X111449872Y-106265499D01*
X111509483Y-106259091D01*
X111644331Y-106208796D01*
X111759546Y-106122546D01*
X111845796Y-106007331D01*
X111896091Y-105872483D01*
X111902500Y-105812873D01*
X111902499Y-102717128D01*
X111896091Y-102657517D01*
X111845796Y-102522669D01*
X111759546Y-102407454D01*
X111644331Y-102321204D01*
X111509483Y-102270909D01*
X111449873Y-102264500D01*
X111446550Y-102264500D01*
X107857439Y-102264500D01*
X107857420Y-102264500D01*
X107854128Y-102264501D01*
X107850848Y-102264853D01*
X107850840Y-102264854D01*
X107794515Y-102270909D01*
X107659669Y-102321204D01*
X107544454Y-102407454D01*
X107458204Y-102522668D01*
X107407909Y-102657516D01*
X107406891Y-102666989D01*
X107401500Y-102717127D01*
X107401500Y-102720448D01*
X107401500Y-102720449D01*
X107401500Y-105809560D01*
X107401500Y-105809578D01*
X52502500Y-105809578D01*
X52502499Y-102717128D01*
X52496091Y-102657517D01*
X52493832Y-102651461D01*
X52493073Y-102649424D01*
X52488088Y-102579733D01*
X52521572Y-102518409D01*
X52582895Y-102484924D01*
X52593698Y-102483069D01*
X52597293Y-102482616D01*
X52638055Y-102466476D01*
X52649092Y-102462698D01*
X52691191Y-102450468D01*
X52708510Y-102440224D01*
X52725994Y-102431659D01*
X52744703Y-102424253D01*
X52780168Y-102398485D01*
X52789915Y-102392081D01*
X52827656Y-102369763D01*
X52841892Y-102355526D01*
X52856679Y-102342896D01*
X52872967Y-102331063D01*
X52900904Y-102297290D01*
X52908756Y-102288661D01*
X53295675Y-101901742D01*
X53318251Y-101883891D01*
X53430154Y-101814870D01*
X54235446Y-101009578D01*
X107401500Y-101009578D01*
X107401501Y-101012872D01*
X107401853Y-101016152D01*
X107401854Y-101016159D01*
X107407909Y-101072484D01*
X107427444Y-101124860D01*
X107458204Y-101207331D01*
X107544454Y-101322546D01*
X107659669Y-101408796D01*
X107794517Y-101459091D01*
X107854127Y-101465500D01*
X111449872Y-101465499D01*
X111509483Y-101459091D01*
X111644331Y-101408796D01*
X111759546Y-101322546D01*
X111845796Y-101207331D01*
X111896091Y-101072483D01*
X111902500Y-101012873D01*
X111902499Y-97917128D01*
X111896091Y-97857517D01*
X111845796Y-97722669D01*
X111759546Y-97607454D01*
X111644331Y-97521204D01*
X111509483Y-97470909D01*
X111449873Y-97464500D01*
X111446550Y-97464500D01*
X107857439Y-97464500D01*
X107857420Y-97464500D01*
X107854128Y-97464501D01*
X107850848Y-97464853D01*
X107850840Y-97464854D01*
X107794515Y-97470909D01*
X107659669Y-97521204D01*
X107544454Y-97607454D01*
X107458204Y-97722668D01*
X107407910Y-97857515D01*
X107407909Y-97857517D01*
X107401500Y-97917127D01*
X107401500Y-97920448D01*
X107401500Y-97920449D01*
X107401500Y-101009560D01*
X107401500Y-101009578D01*
X54235446Y-101009578D01*
X59712204Y-95532819D01*
X59773528Y-95499334D01*
X59799886Y-95496500D01*
X128815227Y-95496500D01*
X128882266Y-95516185D01*
X128928021Y-95568989D01*
X128937965Y-95638147D01*
X128908940Y-95701703D01*
X128905419Y-95705596D01*
X128873944Y-95738956D01*
X128871433Y-95741541D01*
X123563794Y-101049181D01*
X123502471Y-101082666D01*
X123476113Y-101085500D01*
X123469751Y-101085500D01*
X123447425Y-101083218D01*
X123370804Y-101085448D01*
X123367198Y-101085500D01*
X122626500Y-101085500D01*
X122559461Y-101065815D01*
X122513706Y-101013011D01*
X122502500Y-100961500D01*
X122502499Y-97920439D01*
X122502499Y-97917128D01*
X122496091Y-97857517D01*
X122445796Y-97722669D01*
X122359546Y-97607454D01*
X122244331Y-97521204D01*
X122109483Y-97470909D01*
X122049873Y-97464500D01*
X122046550Y-97464500D01*
X118457439Y-97464500D01*
X118457420Y-97464500D01*
X118454128Y-97464501D01*
X118450848Y-97464853D01*
X118450840Y-97464854D01*
X118394515Y-97470909D01*
X118259669Y-97521204D01*
X118144454Y-97607454D01*
X118058204Y-97722668D01*
X118007910Y-97857515D01*
X118007909Y-97857517D01*
X118001500Y-97917127D01*
X118001500Y-99452539D01*
X118001501Y-100961500D01*
X117981816Y-101028539D01*
X117929012Y-101074294D01*
X117877501Y-101085500D01*
X117441000Y-101085500D01*
X117423030Y-101084191D01*
X117409638Y-101082229D01*
X117399094Y-101080685D01*
X117399093Y-101080685D01*
X117349452Y-101085028D01*
X117338645Y-101085500D01*
X117333059Y-101085500D01*
X117329484Y-101085917D01*
X117329479Y-101085918D01*
X117302112Y-101089116D01*
X117298530Y-101089482D01*
X117222176Y-101096162D01*
X117202962Y-101100422D01*
X117130926Y-101126640D01*
X117127524Y-101127822D01*
X117054814Y-101151917D01*
X117037088Y-101160498D01*
X116973067Y-101202604D01*
X116970030Y-101204539D01*
X116904816Y-101244765D01*
X116889543Y-101257206D01*
X116836944Y-101312956D01*
X116834433Y-101315541D01*
X115921793Y-102228181D01*
X115860470Y-102261666D01*
X115834112Y-102264500D01*
X113157439Y-102264500D01*
X113157420Y-102264500D01*
X113154128Y-102264501D01*
X113150848Y-102264853D01*
X113150840Y-102264854D01*
X113094515Y-102270909D01*
X112959669Y-102321204D01*
X112844454Y-102407454D01*
X112758204Y-102522668D01*
X112707909Y-102657516D01*
X112706891Y-102666989D01*
X112701500Y-102717127D01*
X112701500Y-102720448D01*
X112701500Y-102720449D01*
X112701500Y-105809560D01*
X112701500Y-105809578D01*
X112701501Y-105812872D01*
X112707909Y-105872483D01*
X112758204Y-106007331D01*
X112844454Y-106122546D01*
X112959669Y-106208796D01*
X113094517Y-106259091D01*
X113154127Y-106265500D01*
X116749872Y-106265499D01*
X116809483Y-106259091D01*
X116944331Y-106208796D01*
X117059546Y-106122546D01*
X117145796Y-106007331D01*
X117196091Y-105872483D01*
X117202500Y-105812873D01*
X117202499Y-103132885D01*
X117222184Y-103065847D01*
X117238818Y-103045205D01*
X117653205Y-102630819D01*
X117714528Y-102597334D01*
X117740886Y-102594500D01*
X117877500Y-102594500D01*
X117944539Y-102614185D01*
X117990294Y-102666989D01*
X118001500Y-102718500D01*
X118001500Y-105809560D01*
X118001500Y-105809578D01*
X118001501Y-105812872D01*
X118007909Y-105872483D01*
X118058204Y-106007331D01*
X118144454Y-106122546D01*
X118259669Y-106208796D01*
X118394517Y-106259091D01*
X118454127Y-106265500D01*
X122049872Y-106265499D01*
X122109483Y-106259091D01*
X122244331Y-106208796D01*
X122359546Y-106122546D01*
X122445796Y-106007331D01*
X122496091Y-105872483D01*
X122502500Y-105812873D01*
X122502500Y-105809578D01*
X177401500Y-105809578D01*
X177401501Y-105812872D01*
X177407909Y-105872483D01*
X177458204Y-106007331D01*
X177544454Y-106122546D01*
X177659669Y-106208796D01*
X177794517Y-106259091D01*
X177854127Y-106265500D01*
X181449872Y-106265499D01*
X181509483Y-106259091D01*
X181644331Y-106208796D01*
X181759546Y-106122546D01*
X181845796Y-106007331D01*
X181896091Y-105872483D01*
X181902500Y-105812873D01*
X181902499Y-102717128D01*
X181896091Y-102657517D01*
X181845796Y-102522669D01*
X181759546Y-102407454D01*
X181644331Y-102321204D01*
X181509483Y-102270909D01*
X181449873Y-102264500D01*
X181446550Y-102264500D01*
X177857439Y-102264500D01*
X177857420Y-102264500D01*
X177854128Y-102264501D01*
X177850848Y-102264853D01*
X177850840Y-102264854D01*
X177794515Y-102270909D01*
X177659669Y-102321204D01*
X177544454Y-102407454D01*
X177458204Y-102522668D01*
X177407909Y-102657516D01*
X177406891Y-102666989D01*
X177401500Y-102717127D01*
X177401500Y-102720448D01*
X177401500Y-102720449D01*
X177401500Y-105809560D01*
X177401500Y-105809578D01*
X122502500Y-105809578D01*
X122502499Y-102718499D01*
X122522184Y-102651461D01*
X122574988Y-102605706D01*
X122626499Y-102594500D01*
X123232250Y-102594500D01*
X123260846Y-102597842D01*
X123305812Y-102608500D01*
X123305814Y-102608500D01*
X123306995Y-102608780D01*
X123326574Y-102610781D01*
X123327791Y-102610745D01*
X123327794Y-102610746D01*
X123398669Y-102608683D01*
X123403196Y-102608552D01*
X123406802Y-102608500D01*
X123762000Y-102608500D01*
X123779970Y-102609809D01*
X123783723Y-102610358D01*
X123803906Y-102613315D01*
X123853547Y-102608972D01*
X123864355Y-102608500D01*
X123866343Y-102608500D01*
X123869941Y-102608500D01*
X123873514Y-102608082D01*
X123873520Y-102608082D01*
X123893845Y-102605706D01*
X123900910Y-102604880D01*
X123904448Y-102604518D01*
X123979612Y-102597943D01*
X123979617Y-102597941D01*
X123980832Y-102597835D01*
X124000027Y-102593580D01*
X124001179Y-102593160D01*
X124001184Y-102593160D01*
X124072074Y-102567357D01*
X124075434Y-102566190D01*
X124147036Y-102542464D01*
X124147041Y-102542460D01*
X124148202Y-102542076D01*
X124165902Y-102533507D01*
X124166919Y-102532837D01*
X124166924Y-102532836D01*
X124229967Y-102491371D01*
X124232959Y-102489465D01*
X124297154Y-102449870D01*
X124297154Y-102449869D01*
X124298193Y-102449229D01*
X124313444Y-102436805D01*
X124314281Y-102435917D01*
X124314285Y-102435915D01*
X124366071Y-102381023D01*
X124368516Y-102378506D01*
X125737444Y-101009578D01*
X177401500Y-101009578D01*
X177401501Y-101012872D01*
X177401853Y-101016152D01*
X177401854Y-101016159D01*
X177407909Y-101072484D01*
X177427444Y-101124860D01*
X177458204Y-101207331D01*
X177544454Y-101322546D01*
X177659669Y-101408796D01*
X177794517Y-101459091D01*
X177854127Y-101465500D01*
X181449872Y-101465499D01*
X181509483Y-101459091D01*
X181644331Y-101408796D01*
X181759546Y-101322546D01*
X181845796Y-101207331D01*
X181896091Y-101072483D01*
X181902500Y-101012873D01*
X181902499Y-97917128D01*
X181896091Y-97857517D01*
X181845796Y-97722669D01*
X181759546Y-97607454D01*
X181644331Y-97521204D01*
X181509483Y-97470909D01*
X181449873Y-97464500D01*
X181446550Y-97464500D01*
X177857439Y-97464500D01*
X177857420Y-97464500D01*
X177854128Y-97464501D01*
X177850848Y-97464853D01*
X177850840Y-97464854D01*
X177794515Y-97470909D01*
X177659669Y-97521204D01*
X177544454Y-97607454D01*
X177458204Y-97722668D01*
X177407910Y-97857515D01*
X177407909Y-97857517D01*
X177401500Y-97917127D01*
X177401500Y-97920448D01*
X177401500Y-97920449D01*
X177401500Y-101009560D01*
X177401500Y-101009578D01*
X125737444Y-101009578D01*
X129690204Y-97056819D01*
X129751528Y-97023334D01*
X129777886Y-97020500D01*
X201820114Y-97020500D01*
X201887153Y-97040185D01*
X201907795Y-97056819D01*
X204145234Y-99294258D01*
X204157015Y-99307890D01*
X204171460Y-99327293D01*
X204209634Y-99359325D01*
X204217609Y-99366633D01*
X204221559Y-99370583D01*
X204224390Y-99372822D01*
X204224394Y-99372825D01*
X204246007Y-99389915D01*
X204248802Y-99392192D01*
X204277368Y-99416161D01*
X204306573Y-99440667D01*
X204306574Y-99440667D01*
X204307508Y-99441451D01*
X204324102Y-99452023D01*
X204325207Y-99452538D01*
X204325208Y-99452539D01*
X204393626Y-99484442D01*
X204396752Y-99485956D01*
X204464189Y-99519824D01*
X204464192Y-99519824D01*
X204465284Y-99520373D01*
X204483866Y-99526831D01*
X204485054Y-99527076D01*
X204485060Y-99527079D01*
X204559007Y-99542347D01*
X204562354Y-99543089D01*
X204635812Y-99560500D01*
X204635817Y-99560500D01*
X204636994Y-99560779D01*
X204656571Y-99562780D01*
X204657790Y-99562744D01*
X204657793Y-99562745D01*
X204729051Y-99560671D01*
X204733161Y-99560552D01*
X204736767Y-99560500D01*
X209778169Y-99560500D01*
X209845208Y-99580185D01*
X209851037Y-99584169D01*
X209859270Y-99590151D01*
X209859271Y-99590151D01*
X209859272Y-99590152D01*
X210032197Y-99667144D01*
X210217352Y-99706500D01*
X210217354Y-99706500D01*
X210406648Y-99706500D01*
X210530084Y-99680262D01*
X210591803Y-99667144D01*
X210764730Y-99590151D01*
X210908103Y-99485985D01*
X210917870Y-99478889D01*
X210951580Y-99441451D01*
X211044533Y-99338216D01*
X211139179Y-99174284D01*
X211197674Y-98994256D01*
X211217460Y-98806000D01*
X211197674Y-98617744D01*
X211195182Y-98610077D01*
X211193188Y-98540239D01*
X211229268Y-98480406D01*
X211291969Y-98449577D01*
X211361383Y-98457541D01*
X211400795Y-98484080D01*
X213150534Y-100233819D01*
X213184019Y-100295142D01*
X213179035Y-100364834D01*
X213137163Y-100420767D01*
X213071699Y-100445184D01*
X213062853Y-100445500D01*
X213011352Y-100445500D01*
X212826197Y-100484855D01*
X212653269Y-100561848D01*
X212500129Y-100673110D01*
X212373466Y-100813783D01*
X212310122Y-100923500D01*
X212259555Y-100971716D01*
X212202735Y-100985500D01*
X193266059Y-100985500D01*
X193262492Y-100985916D01*
X193262490Y-100985917D01*
X193134813Y-101000840D01*
X192969076Y-101061163D01*
X192947787Y-101075166D01*
X192922039Y-101092100D01*
X192855214Y-101112493D01*
X192853901Y-101112500D01*
X192626500Y-101112500D01*
X192559461Y-101092815D01*
X192513706Y-101040011D01*
X192502500Y-100988500D01*
X192502499Y-97920439D01*
X192502499Y-97917128D01*
X192496091Y-97857517D01*
X192445796Y-97722669D01*
X192359546Y-97607454D01*
X192244331Y-97521204D01*
X192109483Y-97470909D01*
X192049873Y-97464500D01*
X192046550Y-97464500D01*
X188457439Y-97464500D01*
X188457420Y-97464500D01*
X188454128Y-97464501D01*
X188450848Y-97464853D01*
X188450840Y-97464854D01*
X188394515Y-97470909D01*
X188259669Y-97521204D01*
X188144454Y-97607454D01*
X188058204Y-97722668D01*
X188007910Y-97857515D01*
X188007909Y-97857517D01*
X188001500Y-97917127D01*
X188001500Y-97920448D01*
X188001500Y-97920449D01*
X188001501Y-100988500D01*
X187981816Y-101055539D01*
X187929012Y-101101294D01*
X187877501Y-101112500D01*
X187559966Y-101112500D01*
X187539399Y-101110229D01*
X187469095Y-101112439D01*
X187465200Y-101112500D01*
X187437524Y-101112500D01*
X187433652Y-101112988D01*
X187433635Y-101112990D01*
X187433493Y-101113008D01*
X187421874Y-101113922D01*
X187378057Y-101115299D01*
X187358724Y-101120916D01*
X187339678Y-101124860D01*
X187319705Y-101127383D01*
X187278953Y-101143518D01*
X187267905Y-101147301D01*
X187225807Y-101159532D01*
X187208480Y-101169779D01*
X187191012Y-101178336D01*
X187172295Y-101185746D01*
X187136825Y-101211516D01*
X187127067Y-101217927D01*
X187089344Y-101240237D01*
X187089342Y-101240238D01*
X187089343Y-101240238D01*
X187075107Y-101254473D01*
X187060319Y-101267103D01*
X187044033Y-101278936D01*
X187016091Y-101312711D01*
X187008230Y-101321349D01*
X186101398Y-102228181D01*
X186040075Y-102261666D01*
X186013717Y-102264500D01*
X183157439Y-102264500D01*
X183157420Y-102264500D01*
X183154128Y-102264501D01*
X183150848Y-102264853D01*
X183150840Y-102264854D01*
X183094515Y-102270909D01*
X182959669Y-102321204D01*
X182844454Y-102407454D01*
X182758204Y-102522668D01*
X182707909Y-102657516D01*
X182706891Y-102666989D01*
X182701500Y-102717127D01*
X182701500Y-102720448D01*
X182701500Y-102720449D01*
X182701500Y-105809560D01*
X182701500Y-105809578D01*
X182701501Y-105812872D01*
X182707909Y-105872483D01*
X182758204Y-106007331D01*
X182844454Y-106122546D01*
X182959669Y-106208796D01*
X183094517Y-106259091D01*
X183154127Y-106265500D01*
X186749872Y-106265499D01*
X186809483Y-106259091D01*
X186944331Y-106208796D01*
X187059546Y-106122546D01*
X187145796Y-106007331D01*
X187196091Y-105872483D01*
X187202500Y-105812873D01*
X187202499Y-102953280D01*
X187222184Y-102886242D01*
X187238818Y-102865600D01*
X187700600Y-102403819D01*
X187761923Y-102370334D01*
X187788281Y-102367500D01*
X187937485Y-102367500D01*
X188004524Y-102387185D01*
X188050279Y-102439989D01*
X188060223Y-102509147D01*
X188053667Y-102534833D01*
X188007909Y-102657514D01*
X188001854Y-102713833D01*
X188001500Y-102717127D01*
X188001500Y-102720448D01*
X188001500Y-102720449D01*
X188001500Y-105809560D01*
X188001500Y-105809578D01*
X188001501Y-105812872D01*
X188007909Y-105872483D01*
X188058204Y-106007331D01*
X188144454Y-106122546D01*
X188259669Y-106208796D01*
X188394517Y-106259091D01*
X188454127Y-106265500D01*
X192049872Y-106265499D01*
X192109483Y-106259091D01*
X192244331Y-106208796D01*
X192359546Y-106122546D01*
X192445796Y-106007331D01*
X192496091Y-105872483D01*
X192502500Y-105812873D01*
X192502499Y-102717128D01*
X192496091Y-102657517D01*
X192450333Y-102534833D01*
X192445349Y-102465141D01*
X192478834Y-102403818D01*
X192540157Y-102370334D01*
X192566515Y-102367500D01*
X192848914Y-102367500D01*
X192904562Y-102380688D01*
X193050189Y-102453824D01*
X193050190Y-102453824D01*
X193050192Y-102453825D01*
X193221810Y-102494500D01*
X193221812Y-102494500D01*
X212648000Y-102494500D01*
X212665970Y-102495809D01*
X212669057Y-102496261D01*
X212689906Y-102499315D01*
X212739547Y-102494972D01*
X212750355Y-102494500D01*
X212752343Y-102494500D01*
X212755941Y-102494500D01*
X212759514Y-102494082D01*
X212759520Y-102494082D01*
X212782565Y-102491388D01*
X212786910Y-102490880D01*
X212790448Y-102490518D01*
X212865612Y-102483943D01*
X212865617Y-102483941D01*
X212866832Y-102483835D01*
X212886027Y-102479580D01*
X212887179Y-102479160D01*
X212887184Y-102479160D01*
X212958074Y-102453357D01*
X212961434Y-102452190D01*
X213033036Y-102428464D01*
X213033041Y-102428460D01*
X213034202Y-102428076D01*
X213051902Y-102419507D01*
X213052919Y-102418837D01*
X213052924Y-102418836D01*
X213115967Y-102377371D01*
X213118959Y-102375465D01*
X213183154Y-102335870D01*
X213183154Y-102335869D01*
X213184193Y-102335229D01*
X213199444Y-102322805D01*
X213200281Y-102321917D01*
X213200285Y-102321915D01*
X213252071Y-102267023D01*
X213254523Y-102264500D01*
X213265954Y-102253068D01*
X213327275Y-102219585D01*
X213327493Y-102219537D01*
X213385803Y-102207144D01*
X213385804Y-102207143D01*
X213385806Y-102207143D01*
X213558730Y-102130151D01*
X213711870Y-102018889D01*
X213838533Y-101878216D01*
X213933179Y-101714284D01*
X213933178Y-101714283D01*
X213991674Y-101534256D01*
X214008182Y-101377184D01*
X214034765Y-101312573D01*
X214092062Y-101272588D01*
X214161881Y-101269928D01*
X214219183Y-101302468D01*
X217290973Y-104374258D01*
X217302754Y-104387890D01*
X217317199Y-104407293D01*
X217355373Y-104439325D01*
X217363348Y-104446633D01*
X217367298Y-104450583D01*
X217391768Y-104469931D01*
X217394478Y-104472138D01*
X217452312Y-104520667D01*
X217452317Y-104520669D01*
X217453251Y-104521453D01*
X217469840Y-104532022D01*
X217470946Y-104532538D01*
X217470948Y-104532539D01*
X217539323Y-104564422D01*
X217542514Y-104565968D01*
X217611021Y-104600373D01*
X217629612Y-104606834D01*
X217630799Y-104607079D01*
X217704677Y-104622333D01*
X217708150Y-104623103D01*
X217781551Y-104640500D01*
X217781553Y-104640500D01*
X217782734Y-104640780D01*
X217802313Y-104642781D01*
X217803530Y-104642745D01*
X217803533Y-104642746D01*
X217874408Y-104640683D01*
X217878935Y-104640552D01*
X217882541Y-104640500D01*
X219176169Y-104640500D01*
X219243208Y-104660185D01*
X219249037Y-104664169D01*
X219257270Y-104670151D01*
X219257271Y-104670151D01*
X219257272Y-104670152D01*
X219430197Y-104747144D01*
X219615352Y-104786500D01*
X219615354Y-104786500D01*
X219804648Y-104786500D01*
X219928083Y-104760262D01*
X219989803Y-104747144D01*
X220162730Y-104670151D01*
X220259527Y-104599824D01*
X220315870Y-104558889D01*
X220442533Y-104418216D01*
X220537179Y-104254284D01*
X220537178Y-104254284D01*
X220595674Y-104074256D01*
X220615460Y-103886000D01*
X220595674Y-103697744D01*
X220537179Y-103517716D01*
X220537179Y-103517715D01*
X220442533Y-103353783D01*
X220315870Y-103213110D01*
X220162730Y-103101848D01*
X219989802Y-103024855D01*
X219804648Y-102985500D01*
X219804646Y-102985500D01*
X219615354Y-102985500D01*
X219615352Y-102985500D01*
X219430197Y-103024855D01*
X219257272Y-103101847D01*
X219253701Y-103104441D01*
X219249052Y-103107819D01*
X219183247Y-103131298D01*
X219176169Y-103131500D01*
X218233626Y-103131500D01*
X218166587Y-103111815D01*
X218145945Y-103095181D01*
X217679945Y-102629181D01*
X217646460Y-102567858D01*
X217651444Y-102498166D01*
X217693316Y-102442233D01*
X217758780Y-102417816D01*
X217767626Y-102417500D01*
X247318836Y-102417500D01*
X247385875Y-102437185D01*
X247431630Y-102489989D01*
X247441574Y-102559147D01*
X247435018Y-102584833D01*
X247407909Y-102657514D01*
X247401854Y-102713833D01*
X247401500Y-102717127D01*
X247401500Y-102720448D01*
X247401500Y-102720449D01*
X247401500Y-105809560D01*
X247401500Y-105809578D01*
X247401501Y-105812872D01*
X247407909Y-105872483D01*
X247458204Y-106007331D01*
X247544454Y-106122546D01*
X247659669Y-106208796D01*
X247794517Y-106259091D01*
X247854127Y-106265500D01*
X251449872Y-106265499D01*
X251509483Y-106259091D01*
X251644331Y-106208796D01*
X251759546Y-106122546D01*
X251845796Y-106007331D01*
X251896091Y-105872483D01*
X251902500Y-105812873D01*
X251902499Y-102717128D01*
X251896091Y-102657517D01*
X251868980Y-102584830D01*
X251863997Y-102515142D01*
X251897481Y-102453819D01*
X251958804Y-102420334D01*
X251985163Y-102417500D01*
X252165719Y-102417500D01*
X252232758Y-102437185D01*
X252253400Y-102453819D01*
X252665181Y-102865600D01*
X252698666Y-102926923D01*
X252701500Y-102953281D01*
X252701500Y-105809560D01*
X252701500Y-105809578D01*
X252701501Y-105812872D01*
X252707909Y-105872483D01*
X252758204Y-106007331D01*
X252844454Y-106122546D01*
X252959669Y-106208796D01*
X253094517Y-106259091D01*
X253154127Y-106265500D01*
X256749872Y-106265499D01*
X256809483Y-106259091D01*
X256944331Y-106208796D01*
X257059546Y-106122546D01*
X257145796Y-106007331D01*
X257196091Y-105872483D01*
X257202500Y-105812873D01*
X257202500Y-105809578D01*
X258001500Y-105809578D01*
X258001501Y-105812872D01*
X258007909Y-105872483D01*
X258058204Y-106007331D01*
X258144454Y-106122546D01*
X258259669Y-106208796D01*
X258394517Y-106259091D01*
X258454127Y-106265500D01*
X262049872Y-106265499D01*
X262109483Y-106259091D01*
X262244331Y-106208796D01*
X262359546Y-106122546D01*
X262445796Y-106007331D01*
X262496091Y-105872483D01*
X262502500Y-105812873D01*
X262502499Y-102717128D01*
X262496091Y-102657517D01*
X262445796Y-102522669D01*
X262359546Y-102407454D01*
X262244331Y-102321204D01*
X262109483Y-102270909D01*
X262049873Y-102264500D01*
X262046550Y-102264500D01*
X258457439Y-102264500D01*
X258457420Y-102264500D01*
X258454128Y-102264501D01*
X258450848Y-102264853D01*
X258450840Y-102264854D01*
X258394515Y-102270909D01*
X258259669Y-102321204D01*
X258144454Y-102407454D01*
X258058204Y-102522668D01*
X258007909Y-102657516D01*
X258006891Y-102666989D01*
X258001500Y-102717127D01*
X258001500Y-102720448D01*
X258001500Y-102720449D01*
X258001500Y-105809560D01*
X258001500Y-105809578D01*
X257202500Y-105809578D01*
X257202499Y-102717128D01*
X257196091Y-102657517D01*
X257145796Y-102522669D01*
X257059546Y-102407454D01*
X256944331Y-102321204D01*
X256809483Y-102270909D01*
X256749873Y-102264500D01*
X256746551Y-102264500D01*
X253890281Y-102264500D01*
X253823242Y-102244815D01*
X253802600Y-102228181D01*
X252979375Y-101404956D01*
X252966439Y-101388809D01*
X252915152Y-101340647D01*
X252912355Y-101337936D01*
X252895558Y-101321139D01*
X252892796Y-101318377D01*
X252889714Y-101315987D01*
X252889710Y-101315983D01*
X252889604Y-101315901D01*
X252880716Y-101308310D01*
X252874495Y-101302468D01*
X252848767Y-101278307D01*
X252840056Y-101273518D01*
X252831120Y-101268605D01*
X252814858Y-101257922D01*
X252798963Y-101245592D01*
X252758736Y-101228184D01*
X252748248Y-101223046D01*
X252709831Y-101201926D01*
X252690337Y-101196921D01*
X252671933Y-101190620D01*
X252653458Y-101182625D01*
X252610171Y-101175769D01*
X252598736Y-101173401D01*
X252556274Y-101162500D01*
X252556272Y-101162500D01*
X252536142Y-101162500D01*
X252516743Y-101160973D01*
X252496868Y-101157825D01*
X252496867Y-101157825D01*
X252478810Y-101159532D01*
X252453230Y-101161950D01*
X252441561Y-101162500D01*
X252024459Y-101162500D01*
X251957420Y-101142815D01*
X251911665Y-101090011D01*
X251901169Y-101025248D01*
X251902500Y-101012873D01*
X251902500Y-101009578D01*
X258001500Y-101009578D01*
X258001501Y-101012872D01*
X258001853Y-101016152D01*
X258001854Y-101016159D01*
X258007909Y-101072484D01*
X258027444Y-101124860D01*
X258058204Y-101207331D01*
X258144454Y-101322546D01*
X258259669Y-101408796D01*
X258394517Y-101459091D01*
X258454127Y-101465500D01*
X262049872Y-101465499D01*
X262109483Y-101459091D01*
X262244331Y-101408796D01*
X262359546Y-101322546D01*
X262445796Y-101207331D01*
X262496091Y-101072483D01*
X262502500Y-101012873D01*
X262502499Y-97917128D01*
X262496091Y-97857517D01*
X262445796Y-97722669D01*
X262359546Y-97607454D01*
X262244331Y-97521204D01*
X262109483Y-97470909D01*
X262049873Y-97464500D01*
X262046550Y-97464500D01*
X258457439Y-97464500D01*
X258457420Y-97464500D01*
X258454128Y-97464501D01*
X258450848Y-97464853D01*
X258450840Y-97464854D01*
X258394515Y-97470909D01*
X258259669Y-97521204D01*
X258144454Y-97607454D01*
X258058204Y-97722668D01*
X258007910Y-97857515D01*
X258007909Y-97857517D01*
X258001500Y-97917127D01*
X258001500Y-97920448D01*
X258001500Y-97920449D01*
X258001500Y-101009560D01*
X258001500Y-101009578D01*
X251902500Y-101009578D01*
X251902499Y-97917128D01*
X251896091Y-97857517D01*
X251845796Y-97722669D01*
X251759546Y-97607454D01*
X251644331Y-97521204D01*
X251509483Y-97470909D01*
X251449873Y-97464500D01*
X251446550Y-97464500D01*
X247857439Y-97464500D01*
X247857420Y-97464500D01*
X247854128Y-97464501D01*
X247850848Y-97464853D01*
X247850840Y-97464854D01*
X247794515Y-97470909D01*
X247659669Y-97521204D01*
X247544454Y-97607454D01*
X247458204Y-97722668D01*
X247407910Y-97857515D01*
X247407909Y-97857517D01*
X247401500Y-97917127D01*
X247401500Y-97920448D01*
X247401500Y-97920449D01*
X247401500Y-101009560D01*
X247401500Y-101009578D01*
X247401501Y-101012872D01*
X247401852Y-101016144D01*
X247401854Y-101016167D01*
X247402831Y-101025249D01*
X247390423Y-101094009D01*
X247342811Y-101145144D01*
X247279541Y-101162500D01*
X217925281Y-101162500D01*
X217858242Y-101142815D01*
X217837600Y-101126181D01*
X213429819Y-96718400D01*
X213396334Y-96657077D01*
X213393500Y-96630719D01*
X213393500Y-95290826D01*
X213413185Y-95223787D01*
X213446375Y-95189252D01*
X213637401Y-95055495D01*
X213804495Y-94888401D01*
X213934427Y-94702838D01*
X213989001Y-94659216D01*
X214058499Y-94652022D01*
X214120854Y-94683545D01*
X214137572Y-94702838D01*
X214267505Y-94888401D01*
X214434599Y-95055495D01*
X214628170Y-95191035D01*
X214842337Y-95290903D01*
X215070592Y-95352063D01*
X215306000Y-95372659D01*
X215541408Y-95352063D01*
X215769663Y-95290903D01*
X215983830Y-95191035D01*
X216177401Y-95055495D01*
X216344495Y-94888401D01*
X216474426Y-94702839D01*
X216529002Y-94659216D01*
X216598500Y-94652022D01*
X216660855Y-94683545D01*
X216677571Y-94702837D01*
X216807505Y-94888401D01*
X216974599Y-95055495D01*
X217168170Y-95191035D01*
X217382337Y-95290903D01*
X217610591Y-95352062D01*
X217610592Y-95352063D01*
X217845999Y-95372659D01*
X217845999Y-95372658D01*
X217846000Y-95372659D01*
X218081408Y-95352063D01*
X218309663Y-95290903D01*
X218523830Y-95191035D01*
X218717401Y-95055495D01*
X218884495Y-94888401D01*
X219014426Y-94702839D01*
X219069002Y-94659216D01*
X219138500Y-94652022D01*
X219200855Y-94683545D01*
X219217571Y-94702837D01*
X219347505Y-94888401D01*
X219514599Y-95055495D01*
X219708170Y-95191035D01*
X219922337Y-95290903D01*
X220150592Y-95352062D01*
X220150592Y-95352063D01*
X220385999Y-95372659D01*
X220385999Y-95372658D01*
X220386000Y-95372659D01*
X220621408Y-95352063D01*
X220849663Y-95290903D01*
X221063830Y-95191035D01*
X221257401Y-95055495D01*
X221424495Y-94888401D01*
X221554426Y-94702839D01*
X221609002Y-94659216D01*
X221678500Y-94652022D01*
X221740855Y-94683545D01*
X221757571Y-94702837D01*
X221887505Y-94888401D01*
X222054599Y-95055495D01*
X222248170Y-95191035D01*
X222462337Y-95290903D01*
X222690592Y-95352063D01*
X222926000Y-95372659D01*
X223161408Y-95352063D01*
X223389663Y-95290903D01*
X223603830Y-95191035D01*
X223797401Y-95055495D01*
X223964495Y-94888401D01*
X224100035Y-94694830D01*
X224199903Y-94480663D01*
X224261063Y-94252408D01*
X224281659Y-94017000D01*
X224261063Y-93781592D01*
X224199903Y-93553337D01*
X224100035Y-93339171D01*
X223964495Y-93145599D01*
X223797401Y-92978505D01*
X223789730Y-92970834D01*
X223792438Y-92968125D01*
X223761345Y-92929193D01*
X223754182Y-92859691D01*
X223785731Y-92797350D01*
X223837111Y-92764538D01*
X223845334Y-92761814D01*
X223994656Y-92669712D01*
X224118712Y-92545656D01*
X224210814Y-92396334D01*
X224265999Y-92229797D01*
X224276500Y-92127009D01*
X224276499Y-90826992D01*
X224265999Y-90724203D01*
X224210814Y-90557666D01*
X224118712Y-90408344D01*
X224118711Y-90408342D01*
X223994657Y-90284288D01*
X223845334Y-90192186D01*
X223718647Y-90150206D01*
X223661202Y-90110433D01*
X223634379Y-90045917D01*
X223646694Y-89977141D01*
X223694237Y-89925942D01*
X223757651Y-89908500D01*
X228744114Y-89908500D01*
X228811153Y-89928185D01*
X228831795Y-89944819D01*
X231635234Y-92748258D01*
X231647015Y-92761890D01*
X231661461Y-92781294D01*
X231666774Y-92785752D01*
X231699634Y-92813325D01*
X231707609Y-92820633D01*
X231711559Y-92824583D01*
X231736029Y-92843931D01*
X231738739Y-92846138D01*
X231796573Y-92894667D01*
X231796578Y-92894669D01*
X231797512Y-92895453D01*
X231814101Y-92906022D01*
X231815207Y-92906538D01*
X231815209Y-92906539D01*
X231883584Y-92938422D01*
X231886775Y-92939968D01*
X231955282Y-92974373D01*
X231973866Y-92980831D01*
X231975054Y-92981076D01*
X231975060Y-92981079D01*
X232049007Y-92996347D01*
X232052354Y-92997089D01*
X232125812Y-93014500D01*
X232125817Y-93014500D01*
X232126994Y-93014779D01*
X232146571Y-93016780D01*
X232147790Y-93016744D01*
X232147793Y-93016745D01*
X232219051Y-93014671D01*
X232223161Y-93014552D01*
X232226767Y-93014500D01*
X255076000Y-93014500D01*
X255093970Y-93015809D01*
X255097723Y-93016358D01*
X255117906Y-93019315D01*
X255167547Y-93014972D01*
X255178355Y-93014500D01*
X255180343Y-93014500D01*
X255183941Y-93014500D01*
X255187514Y-93014082D01*
X255187520Y-93014082D01*
X255207611Y-93011733D01*
X255214910Y-93010880D01*
X255218448Y-93010518D01*
X255293612Y-93003943D01*
X255293617Y-93003941D01*
X255294832Y-93003835D01*
X255314027Y-92999580D01*
X255315179Y-92999160D01*
X255315184Y-92999160D01*
X255386074Y-92973357D01*
X255389434Y-92972190D01*
X255461036Y-92948464D01*
X255461041Y-92948460D01*
X255462202Y-92948076D01*
X255479902Y-92939507D01*
X255480919Y-92938837D01*
X255480924Y-92938836D01*
X255543967Y-92897371D01*
X255546979Y-92895453D01*
X255611154Y-92855870D01*
X255611154Y-92855869D01*
X255612193Y-92855229D01*
X255627444Y-92842805D01*
X255628281Y-92841917D01*
X255628285Y-92841915D01*
X255680071Y-92787023D01*
X255682516Y-92784506D01*
X256480264Y-91986758D01*
X256493883Y-91974988D01*
X256513294Y-91960539D01*
X256545324Y-91922366D01*
X256552638Y-91914386D01*
X256553234Y-91913789D01*
X256556583Y-91910441D01*
X256575927Y-91885974D01*
X256578161Y-91883232D01*
X256626667Y-91825427D01*
X256626668Y-91825424D01*
X256627449Y-91824494D01*
X256638018Y-91807904D01*
X256638534Y-91806797D01*
X256638539Y-91806791D01*
X256670445Y-91738366D01*
X256671958Y-91735241D01*
X256705824Y-91667811D01*
X256705824Y-91667809D01*
X256706374Y-91666715D01*
X256712830Y-91648142D01*
X256713077Y-91646943D01*
X256713079Y-91646940D01*
X256728345Y-91573001D01*
X256729101Y-91569596D01*
X256746500Y-91496188D01*
X256746499Y-91496184D01*
X256746782Y-91494995D01*
X256748781Y-91475424D01*
X256748599Y-91469181D01*
X256746552Y-91398838D01*
X256746499Y-91395230D01*
X256746499Y-91004967D01*
X256746499Y-90513080D01*
X256766184Y-90446045D01*
X256794331Y-90415236D01*
X256943784Y-90298913D01*
X257100979Y-90128153D01*
X257227924Y-89933849D01*
X257321157Y-89721300D01*
X257378134Y-89496305D01*
X257397300Y-89265000D01*
X257378134Y-89033695D01*
X257321157Y-88808700D01*
X257227924Y-88596151D01*
X257100979Y-88401847D01*
X256943784Y-88231087D01*
X256760626Y-88088530D01*
X256556503Y-87978064D01*
X256556499Y-87978062D01*
X256556498Y-87978062D01*
X256336984Y-87902702D01*
X256165281Y-87874050D01*
X256108049Y-87864500D01*
X255875951Y-87864500D01*
X255830164Y-87872140D01*
X255647015Y-87902702D01*
X255427501Y-87978062D01*
X255223372Y-88088531D01*
X255040215Y-88231087D01*
X254883020Y-88401848D01*
X254756076Y-88596150D01*
X254662844Y-88808696D01*
X254605865Y-89033700D01*
X254586699Y-89264999D01*
X254605865Y-89496299D01*
X254605865Y-89496301D01*
X254605866Y-89496305D01*
X254658325Y-89703459D01*
X254662844Y-89721303D01*
X254718637Y-89848498D01*
X254756076Y-89933849D01*
X254883021Y-90128153D01*
X255040216Y-90298913D01*
X255040219Y-90298915D01*
X255189661Y-90415231D01*
X255230474Y-90471941D01*
X255237499Y-90513084D01*
X255237499Y-91044114D01*
X255217814Y-91111153D01*
X255201180Y-91131795D01*
X254863795Y-91469181D01*
X254802472Y-91502666D01*
X254776114Y-91505500D01*
X232577886Y-91505500D01*
X232510847Y-91485815D01*
X232490205Y-91469181D01*
X229686766Y-88665742D01*
X229674983Y-88652108D01*
X229660538Y-88632705D01*
X229622365Y-88600674D01*
X229614389Y-88593365D01*
X229612993Y-88591969D01*
X229610441Y-88589417D01*
X229607613Y-88587181D01*
X229607603Y-88587172D01*
X229585988Y-88570081D01*
X229583191Y-88567803D01*
X229524497Y-88518552D01*
X229507898Y-88507976D01*
X229438442Y-88475589D01*
X229435197Y-88474018D01*
X229366722Y-88439629D01*
X229348125Y-88433165D01*
X229273086Y-88417670D01*
X229269569Y-88416890D01*
X229195005Y-88399219D01*
X229175425Y-88397218D01*
X229098804Y-88399448D01*
X229095198Y-88399500D01*
X219011993Y-88399500D01*
X218994023Y-88398191D01*
X218983639Y-88396670D01*
X218970093Y-88394686D01*
X218970092Y-88394686D01*
X218920459Y-88399028D01*
X218909653Y-88399500D01*
X218904059Y-88399500D01*
X218900497Y-88399916D01*
X218900484Y-88399917D01*
X218873091Y-88403119D01*
X218869505Y-88403485D01*
X218793177Y-88410162D01*
X218773962Y-88414422D01*
X218701926Y-88440640D01*
X218698524Y-88441822D01*
X218625814Y-88465917D01*
X218608088Y-88474498D01*
X218544067Y-88516604D01*
X218541030Y-88518539D01*
X218475816Y-88558765D01*
X218460543Y-88571206D01*
X218407944Y-88626956D01*
X218405433Y-88629541D01*
X217357741Y-89677233D01*
X217344112Y-89689012D01*
X217324707Y-89703459D01*
X217292675Y-89741632D01*
X217285391Y-89749582D01*
X217283985Y-89750988D01*
X217283963Y-89751012D01*
X217281417Y-89753559D01*
X217279181Y-89756386D01*
X217279179Y-89756389D01*
X217262089Y-89778002D01*
X217259814Y-89780794D01*
X217210554Y-89839500D01*
X217199972Y-89856112D01*
X217167581Y-89925571D01*
X217166011Y-89928813D01*
X217131632Y-89997269D01*
X217125164Y-90015878D01*
X217109671Y-90090911D01*
X217108891Y-90094430D01*
X217091218Y-90168998D01*
X217089218Y-90188576D01*
X217091447Y-90265193D01*
X217091499Y-90268798D01*
X217091499Y-90292100D01*
X217071814Y-90359139D01*
X217038623Y-90393674D01*
X216974599Y-90438504D01*
X216807505Y-90605598D01*
X216671965Y-90799170D01*
X216572097Y-91013336D01*
X216510936Y-91241592D01*
X216490340Y-91477000D01*
X216510936Y-91712407D01*
X216538560Y-91815501D01*
X216572097Y-91940663D01*
X216671965Y-92154830D01*
X216807505Y-92348401D01*
X216974599Y-92515495D01*
X217160160Y-92645426D01*
X217203783Y-92700002D01*
X217210976Y-92769501D01*
X217179454Y-92831855D01*
X217160158Y-92848575D01*
X216981939Y-92973366D01*
X216974595Y-92978508D01*
X216807505Y-93145598D01*
X216677575Y-93331159D01*
X216622998Y-93374784D01*
X216553500Y-93381978D01*
X216491145Y-93350455D01*
X216474425Y-93331159D01*
X216344494Y-93145598D01*
X216177404Y-92978508D01*
X216177401Y-92978505D01*
X215983830Y-92842965D01*
X215769663Y-92743097D01*
X215700257Y-92724500D01*
X215541407Y-92681936D01*
X215306000Y-92661340D01*
X215070592Y-92681936D01*
X214842336Y-92743097D01*
X214628170Y-92842965D01*
X214434598Y-92978505D01*
X214267508Y-93145595D01*
X214137574Y-93331160D01*
X214082997Y-93374785D01*
X214013498Y-93381977D01*
X213951144Y-93350455D01*
X213934429Y-93331164D01*
X213804495Y-93145599D01*
X213637401Y-92978505D01*
X213451839Y-92848573D01*
X213408216Y-92793998D01*
X213401022Y-92724500D01*
X213432545Y-92662145D01*
X213451837Y-92645428D01*
X213637401Y-92515495D01*
X213804495Y-92348401D01*
X213940035Y-92154830D01*
X214039903Y-91940663D01*
X214101063Y-91712408D01*
X214121659Y-91477000D01*
X214101063Y-91241592D01*
X214039903Y-91013337D01*
X213940035Y-90799171D01*
X213804495Y-90605599D01*
X213637401Y-90438505D01*
X213443830Y-90302965D01*
X213229663Y-90203097D01*
X213168502Y-90186709D01*
X213001407Y-90141936D01*
X212765999Y-90121340D01*
X212530592Y-90141936D01*
X212302336Y-90203097D01*
X212088170Y-90302965D01*
X211894598Y-90438505D01*
X211727505Y-90605598D01*
X211591965Y-90799170D01*
X211492097Y-91013336D01*
X211430936Y-91241592D01*
X211410340Y-91476999D01*
X211430936Y-91712407D01*
X211458560Y-91815501D01*
X211492097Y-91940663D01*
X211591965Y-92154830D01*
X211727505Y-92348401D01*
X211894599Y-92515495D01*
X212080160Y-92645426D01*
X212123783Y-92700002D01*
X212130976Y-92769501D01*
X212099454Y-92831855D01*
X212080158Y-92848575D01*
X211901939Y-92973366D01*
X211894595Y-92978508D01*
X211727505Y-93145598D01*
X211591965Y-93339170D01*
X211492097Y-93553336D01*
X211430936Y-93781592D01*
X211410340Y-94017000D01*
X211430936Y-94252407D01*
X211431294Y-94253742D01*
X211492097Y-94480663D01*
X211591965Y-94694830D01*
X211727505Y-94888401D01*
X211894599Y-95055495D01*
X212085624Y-95189252D01*
X212129247Y-95243828D01*
X212138499Y-95290826D01*
X212138500Y-96788374D01*
X212118815Y-96855413D01*
X212066012Y-96901168D01*
X211996853Y-96911112D01*
X211933297Y-96882087D01*
X211926819Y-96876055D01*
X209304505Y-94253742D01*
X209292722Y-94240108D01*
X209278277Y-94220705D01*
X209240104Y-94188674D01*
X209232128Y-94181365D01*
X209230732Y-94179969D01*
X209228180Y-94177417D01*
X209225352Y-94175181D01*
X209225342Y-94175172D01*
X209203727Y-94158081D01*
X209200930Y-94155803D01*
X209142236Y-94106552D01*
X209125637Y-94095976D01*
X209056181Y-94063589D01*
X209052936Y-94062018D01*
X208984461Y-94027629D01*
X208965864Y-94021165D01*
X208890825Y-94005670D01*
X208887308Y-94004890D01*
X208812744Y-93987219D01*
X208793164Y-93985218D01*
X208716543Y-93987448D01*
X208712937Y-93987500D01*
X59499993Y-93987500D01*
X59482023Y-93986191D01*
X59471639Y-93984670D01*
X59458093Y-93982686D01*
X59458092Y-93982686D01*
X59408459Y-93987028D01*
X59397653Y-93987500D01*
X59392059Y-93987500D01*
X59388497Y-93987916D01*
X59388484Y-93987917D01*
X59361091Y-93991119D01*
X59357505Y-93991485D01*
X59281177Y-93998162D01*
X59261962Y-94002422D01*
X59189926Y-94028640D01*
X59186524Y-94029822D01*
X59113814Y-94053917D01*
X59096088Y-94062498D01*
X59032067Y-94104604D01*
X59029030Y-94106539D01*
X58963816Y-94146765D01*
X58948543Y-94159206D01*
X58895944Y-94214956D01*
X58893433Y-94217541D01*
X52714180Y-100396795D01*
X52652857Y-100430280D01*
X52583165Y-100425296D01*
X52527232Y-100383424D01*
X52502815Y-100317960D01*
X52502499Y-100309114D01*
X52502499Y-97920439D01*
X52502499Y-97920438D01*
X52502499Y-97917128D01*
X52496091Y-97857517D01*
X52445796Y-97722669D01*
X52359546Y-97607454D01*
X52244331Y-97521204D01*
X52109483Y-97470909D01*
X52049873Y-97464500D01*
X52046550Y-97464500D01*
X48457439Y-97464500D01*
X48457420Y-97464500D01*
X48454128Y-97464501D01*
X48450848Y-97464853D01*
X48450840Y-97464854D01*
X48394515Y-97470909D01*
X48259669Y-97521204D01*
X48144454Y-97607454D01*
X48058204Y-97722668D01*
X48007910Y-97857515D01*
X48007909Y-97857517D01*
X48001500Y-97917127D01*
X48001500Y-97920448D01*
X48001500Y-97920449D01*
X48001500Y-101009560D01*
X48001500Y-101009578D01*
X48001501Y-101012872D01*
X48007909Y-101072483D01*
X48008910Y-101075166D01*
X48013894Y-101144858D01*
X47980409Y-101206181D01*
X47919086Y-101239666D01*
X47892728Y-101242500D01*
X46508966Y-101242500D01*
X46488403Y-101240229D01*
X46418095Y-101242439D01*
X46414200Y-101242500D01*
X46386524Y-101242500D01*
X46382652Y-101242988D01*
X46382635Y-101242990D01*
X46382493Y-101243008D01*
X46370874Y-101243922D01*
X46327057Y-101245299D01*
X46307724Y-101250916D01*
X46288679Y-101254860D01*
X46268707Y-101257383D01*
X46227954Y-101273518D01*
X46216907Y-101277300D01*
X46174804Y-101289532D01*
X46157476Y-101299780D01*
X46140009Y-101308337D01*
X46121298Y-101315745D01*
X46085837Y-101341509D01*
X46076077Y-101347920D01*
X46038345Y-101370235D01*
X46024107Y-101384473D01*
X46009319Y-101397103D01*
X45993033Y-101408936D01*
X45965091Y-101442711D01*
X45957230Y-101451349D01*
X45180398Y-102228181D01*
X45119075Y-102261666D01*
X45092717Y-102264500D01*
X43157439Y-102264500D01*
X43157420Y-102264500D01*
X43154128Y-102264501D01*
X43150848Y-102264853D01*
X43150840Y-102264854D01*
X43094515Y-102270909D01*
X42959669Y-102321204D01*
X42844454Y-102407454D01*
X42758204Y-102522668D01*
X42707909Y-102657516D01*
X42706891Y-102666989D01*
X42701500Y-102717127D01*
X42701500Y-102720448D01*
X42701500Y-102720449D01*
X42701500Y-105809560D01*
X42701500Y-105809578D01*
X41902500Y-105809578D01*
X41902499Y-102717128D01*
X41896091Y-102657517D01*
X41845796Y-102522669D01*
X41759546Y-102407454D01*
X41644331Y-102321204D01*
X41509483Y-102270909D01*
X41449873Y-102264500D01*
X41446550Y-102264500D01*
X37857439Y-102264500D01*
X37857420Y-102264500D01*
X37854128Y-102264501D01*
X37850848Y-102264853D01*
X37850840Y-102264854D01*
X37794515Y-102270909D01*
X37659669Y-102321204D01*
X37544454Y-102407454D01*
X37458204Y-102522668D01*
X37407909Y-102657516D01*
X37406891Y-102666989D01*
X37401500Y-102717127D01*
X37401500Y-102720448D01*
X37401500Y-102720449D01*
X37401500Y-105809560D01*
X37401500Y-105809578D01*
X32552500Y-105809578D01*
X32552500Y-101009578D01*
X37401500Y-101009578D01*
X37401501Y-101012872D01*
X37401853Y-101016152D01*
X37401854Y-101016159D01*
X37407909Y-101072484D01*
X37427444Y-101124860D01*
X37458204Y-101207331D01*
X37544454Y-101322546D01*
X37659669Y-101408796D01*
X37794517Y-101459091D01*
X37854127Y-101465500D01*
X41449872Y-101465499D01*
X41509483Y-101459091D01*
X41644331Y-101408796D01*
X41759546Y-101322546D01*
X41845796Y-101207331D01*
X41896091Y-101072483D01*
X41902500Y-101012873D01*
X41902499Y-97917128D01*
X41896091Y-97857517D01*
X41845796Y-97722669D01*
X41759546Y-97607454D01*
X41644331Y-97521204D01*
X41509483Y-97470909D01*
X41449873Y-97464500D01*
X41446550Y-97464500D01*
X37857439Y-97464500D01*
X37857420Y-97464500D01*
X37854128Y-97464501D01*
X37850848Y-97464853D01*
X37850840Y-97464854D01*
X37794515Y-97470909D01*
X37659669Y-97521204D01*
X37544454Y-97607454D01*
X37458204Y-97722668D01*
X37407910Y-97857515D01*
X37407909Y-97857517D01*
X37401500Y-97917127D01*
X37401500Y-97920448D01*
X37401500Y-97920449D01*
X37401500Y-101009560D01*
X37401500Y-101009578D01*
X32552500Y-101009578D01*
X32552500Y-89264999D01*
X44586699Y-89264999D01*
X44605865Y-89496299D01*
X44605865Y-89496301D01*
X44605866Y-89496305D01*
X44658325Y-89703459D01*
X44662844Y-89721303D01*
X44718637Y-89848498D01*
X44756076Y-89933849D01*
X44883021Y-90128153D01*
X45040216Y-90298913D01*
X45223374Y-90441470D01*
X45427497Y-90551936D01*
X45537258Y-90589616D01*
X45647015Y-90627297D01*
X45647017Y-90627297D01*
X45647019Y-90627298D01*
X45875951Y-90665500D01*
X45875952Y-90665500D01*
X46108048Y-90665500D01*
X46108049Y-90665500D01*
X46336981Y-90627298D01*
X46556503Y-90551936D01*
X46760626Y-90441470D01*
X46943784Y-90298913D01*
X47100979Y-90128153D01*
X47227924Y-89933849D01*
X47321157Y-89721300D01*
X47378134Y-89496305D01*
X47397300Y-89265000D01*
X47397300Y-89264999D01*
X114586699Y-89264999D01*
X114605865Y-89496299D01*
X114605865Y-89496301D01*
X114605866Y-89496305D01*
X114658325Y-89703459D01*
X114662844Y-89721303D01*
X114718637Y-89848498D01*
X114756076Y-89933849D01*
X114883021Y-90128153D01*
X115040216Y-90298913D01*
X115223374Y-90441470D01*
X115427497Y-90551936D01*
X115537258Y-90589616D01*
X115647015Y-90627297D01*
X115647017Y-90627297D01*
X115647019Y-90627298D01*
X115875951Y-90665500D01*
X115875952Y-90665500D01*
X116108048Y-90665500D01*
X116108049Y-90665500D01*
X116336981Y-90627298D01*
X116556503Y-90551936D01*
X116760626Y-90441470D01*
X116943784Y-90298913D01*
X117100979Y-90128153D01*
X117227924Y-89933849D01*
X117321157Y-89721300D01*
X117378134Y-89496305D01*
X117397300Y-89265000D01*
X117397300Y-89264999D01*
X184586699Y-89264999D01*
X184605865Y-89496299D01*
X184605865Y-89496301D01*
X184605866Y-89496305D01*
X184658325Y-89703459D01*
X184662844Y-89721303D01*
X184718637Y-89848498D01*
X184756076Y-89933849D01*
X184883021Y-90128153D01*
X185040216Y-90298913D01*
X185223374Y-90441470D01*
X185427497Y-90551936D01*
X185537258Y-90589616D01*
X185647015Y-90627297D01*
X185647017Y-90627297D01*
X185647019Y-90627298D01*
X185875951Y-90665500D01*
X185875952Y-90665500D01*
X186108048Y-90665500D01*
X186108049Y-90665500D01*
X186336981Y-90627298D01*
X186556503Y-90551936D01*
X186760626Y-90441470D01*
X186943784Y-90298913D01*
X187100979Y-90128153D01*
X187227924Y-89933849D01*
X187321157Y-89721300D01*
X187378134Y-89496305D01*
X187397300Y-89265000D01*
X187378134Y-89033695D01*
X187321157Y-88808700D01*
X187227924Y-88596151D01*
X187100979Y-88401847D01*
X186943784Y-88231087D01*
X186760626Y-88088530D01*
X186556503Y-87978064D01*
X186556499Y-87978062D01*
X186556498Y-87978062D01*
X186336984Y-87902702D01*
X186165281Y-87874050D01*
X186108049Y-87864500D01*
X185875951Y-87864500D01*
X185830164Y-87872140D01*
X185647015Y-87902702D01*
X185427501Y-87978062D01*
X185223372Y-88088531D01*
X185040215Y-88231087D01*
X184883020Y-88401848D01*
X184756076Y-88596150D01*
X184662844Y-88808696D01*
X184605865Y-89033700D01*
X184586699Y-89264999D01*
X117397300Y-89264999D01*
X117378134Y-89033695D01*
X117321157Y-88808700D01*
X117227924Y-88596151D01*
X117100979Y-88401847D01*
X116943784Y-88231087D01*
X116760626Y-88088530D01*
X116556503Y-87978064D01*
X116556499Y-87978062D01*
X116556498Y-87978062D01*
X116336984Y-87902702D01*
X116165281Y-87874050D01*
X116108049Y-87864500D01*
X115875951Y-87864500D01*
X115830164Y-87872140D01*
X115647015Y-87902702D01*
X115427501Y-87978062D01*
X115223372Y-88088531D01*
X115040215Y-88231087D01*
X114883020Y-88401848D01*
X114756076Y-88596150D01*
X114662844Y-88808696D01*
X114605865Y-89033700D01*
X114586699Y-89264999D01*
X47397300Y-89264999D01*
X47378134Y-89033695D01*
X47321157Y-88808700D01*
X47227924Y-88596151D01*
X47100979Y-88401847D01*
X46943784Y-88231087D01*
X46760626Y-88088530D01*
X46556503Y-87978064D01*
X46556499Y-87978062D01*
X46556498Y-87978062D01*
X46336984Y-87902702D01*
X46165281Y-87874050D01*
X46108049Y-87864500D01*
X45875951Y-87864500D01*
X45830164Y-87872140D01*
X45647015Y-87902702D01*
X45427501Y-87978062D01*
X45223372Y-88088531D01*
X45040215Y-88231087D01*
X44883020Y-88401848D01*
X44756076Y-88596150D01*
X44662844Y-88808696D01*
X44605865Y-89033700D01*
X44586699Y-89264999D01*
X32552500Y-89264999D01*
X32552500Y-84414500D01*
X32572185Y-84347461D01*
X32624989Y-84301706D01*
X32676500Y-84290500D01*
X68760140Y-84290500D01*
X267152592Y-84429834D01*
G37*
G04 #@! TD.AperFunction*
M02*
