G04 #@! TF.GenerationSoftware,KiCad,Pcbnew,7.0.2*
G04 #@! TF.CreationDate,2024-04-08T23:43:08+02:00*
G04 #@! TF.ProjectId,stm_audio_board_v3_Footswitch,73746d5f-6175-4646-996f-5f626f617264,rev?*
G04 #@! TF.SameCoordinates,Original*
G04 #@! TF.FileFunction,Soldermask,Bot*
G04 #@! TF.FilePolarity,Negative*
%FSLAX46Y46*%
G04 Gerber Fmt 4.6, Leading zero omitted, Abs format (unit mm)*
G04 Created by KiCad (PCBNEW 7.0.2) date 2024-04-08 23:43:08*
%MOMM*%
%LPD*%
G01*
G04 APERTURE LIST*
G04 Aperture macros list*
%AMRoundRect*
0 Rectangle with rounded corners*
0 $1 Rounding radius*
0 $2 $3 $4 $5 $6 $7 $8 $9 X,Y pos of 4 corners*
0 Add a 4 corners polygon primitive as box body*
4,1,4,$2,$3,$4,$5,$6,$7,$8,$9,$2,$3,0*
0 Add four circle primitives for the rounded corners*
1,1,$1+$1,$2,$3*
1,1,$1+$1,$4,$5*
1,1,$1+$1,$6,$7*
1,1,$1+$1,$8,$9*
0 Add four rect primitives between the rounded corners*
20,1,$1+$1,$2,$3,$4,$5,0*
20,1,$1+$1,$4,$5,$6,$7,0*
20,1,$1+$1,$6,$7,$8,$9,0*
20,1,$1+$1,$8,$9,$2,$3,0*%
G04 Aperture macros list end*
%ADD10R,1.800000X1.800000*%
%ADD11C,1.800000*%
%ADD12R,3.500000X3.000000*%
%ADD13RoundRect,0.250000X-0.600000X0.600000X-0.600000X-0.600000X0.600000X-0.600000X0.600000X0.600000X0*%
%ADD14C,1.700000*%
G04 APERTURE END LIST*
D10*
X43452000Y-89265000D03*
D11*
X45992000Y-89265000D03*
D12*
X50252000Y-99465000D03*
X50252000Y-104265000D03*
X50252000Y-109065000D03*
X44952000Y-99465000D03*
X44952000Y-104265000D03*
X44952000Y-109065000D03*
X39652000Y-99465000D03*
X39652000Y-104265000D03*
X39652000Y-109065000D03*
D10*
X113452000Y-89265000D03*
D11*
X115992000Y-89265000D03*
D10*
X183452000Y-89265000D03*
D11*
X185992000Y-89265000D03*
D12*
X120252000Y-99465000D03*
X120252000Y-104265000D03*
X120252000Y-109065000D03*
X114952000Y-99465000D03*
X114952000Y-104265000D03*
X114952000Y-109065000D03*
X109652000Y-99465000D03*
X109652000Y-104265000D03*
X109652000Y-109065000D03*
X190252000Y-99465000D03*
X190252000Y-104265000D03*
X190252000Y-109065000D03*
X184952000Y-99465000D03*
X184952000Y-104265000D03*
X184952000Y-109065000D03*
X179652000Y-99465000D03*
X179652000Y-104265000D03*
X179652000Y-109065000D03*
X249652000Y-109065000D03*
X249652000Y-104265000D03*
X249652000Y-99465000D03*
X254952000Y-109065000D03*
X254952000Y-104265000D03*
X254952000Y-99465000D03*
X260252000Y-109065000D03*
X260252000Y-104265000D03*
X260252000Y-99465000D03*
D13*
X222926000Y-91477000D03*
D14*
X222926000Y-94017000D03*
X220386000Y-91477000D03*
X220386000Y-94017000D03*
X217846000Y-91477000D03*
X217846000Y-94017000D03*
X215306000Y-91477000D03*
X215306000Y-94017000D03*
X212766000Y-91477000D03*
X212766000Y-94017000D03*
D10*
X253452000Y-89265000D03*
D11*
X255992000Y-89265000D03*
M02*
