%TF.GenerationSoftware,KiCad,Pcbnew,7.0.2*%
%TF.CreationDate,2024-04-08T23:43:10+02:00*%
%TF.ProjectId,stm_audio_board_v3_Footswitch,73746d5f-6175-4646-996f-5f626f617264,rev?*%
%TF.SameCoordinates,Original*%
%TF.FileFunction,Drillmap*%
%TF.FilePolarity,Positive*%
%FSLAX45Y45*%
G04 Gerber Fmt 4.5, Leading zero omitted, Abs format (unit mm)*
G04 Created by KiCad (PCBNEW 7.0.2) date 2024-04-08 23:43:10*
%MOMM*%
%LPD*%
G01*
G04 APERTURE LIST*
%ADD10C,0.200000*%
G04 APERTURE END LIST*
D10*
X3255200Y-8429000D02*
X26727700Y-8429000D01*
X26727700Y-11429000D01*
X3255200Y-11429000D01*
X3255200Y-8429000D01*
X3492819Y-11751524D02*
X3492819Y-11551524D01*
X3492819Y-11551524D02*
X3540438Y-11551524D01*
X3540438Y-11551524D02*
X3569009Y-11561048D01*
X3569009Y-11561048D02*
X3588057Y-11580095D01*
X3588057Y-11580095D02*
X3597581Y-11599143D01*
X3597581Y-11599143D02*
X3607105Y-11637238D01*
X3607105Y-11637238D02*
X3607105Y-11665809D01*
X3607105Y-11665809D02*
X3597581Y-11703905D01*
X3597581Y-11703905D02*
X3588057Y-11722952D01*
X3588057Y-11722952D02*
X3569009Y-11742000D01*
X3569009Y-11742000D02*
X3540438Y-11751524D01*
X3540438Y-11751524D02*
X3492819Y-11751524D01*
X3692819Y-11751524D02*
X3692819Y-11618190D01*
X3692819Y-11656286D02*
X3702343Y-11637238D01*
X3702343Y-11637238D02*
X3711867Y-11627714D01*
X3711867Y-11627714D02*
X3730914Y-11618190D01*
X3730914Y-11618190D02*
X3749962Y-11618190D01*
X3816628Y-11751524D02*
X3816628Y-11618190D01*
X3816628Y-11551524D02*
X3807105Y-11561048D01*
X3807105Y-11561048D02*
X3816628Y-11570571D01*
X3816628Y-11570571D02*
X3826152Y-11561048D01*
X3826152Y-11561048D02*
X3816628Y-11551524D01*
X3816628Y-11551524D02*
X3816628Y-11570571D01*
X3940438Y-11751524D02*
X3921390Y-11742000D01*
X3921390Y-11742000D02*
X3911867Y-11722952D01*
X3911867Y-11722952D02*
X3911867Y-11551524D01*
X4045200Y-11751524D02*
X4026152Y-11742000D01*
X4026152Y-11742000D02*
X4016628Y-11722952D01*
X4016628Y-11722952D02*
X4016628Y-11551524D01*
X4273771Y-11751524D02*
X4273771Y-11551524D01*
X4273771Y-11551524D02*
X4340438Y-11694381D01*
X4340438Y-11694381D02*
X4407105Y-11551524D01*
X4407105Y-11551524D02*
X4407105Y-11751524D01*
X4588057Y-11751524D02*
X4588057Y-11646762D01*
X4588057Y-11646762D02*
X4578533Y-11627714D01*
X4578533Y-11627714D02*
X4559486Y-11618190D01*
X4559486Y-11618190D02*
X4521390Y-11618190D01*
X4521390Y-11618190D02*
X4502343Y-11627714D01*
X4588057Y-11742000D02*
X4569010Y-11751524D01*
X4569010Y-11751524D02*
X4521390Y-11751524D01*
X4521390Y-11751524D02*
X4502343Y-11742000D01*
X4502343Y-11742000D02*
X4492819Y-11722952D01*
X4492819Y-11722952D02*
X4492819Y-11703905D01*
X4492819Y-11703905D02*
X4502343Y-11684857D01*
X4502343Y-11684857D02*
X4521390Y-11675333D01*
X4521390Y-11675333D02*
X4569010Y-11675333D01*
X4569010Y-11675333D02*
X4588057Y-11665809D01*
X4683295Y-11618190D02*
X4683295Y-11818190D01*
X4683295Y-11627714D02*
X4702343Y-11618190D01*
X4702343Y-11618190D02*
X4740438Y-11618190D01*
X4740438Y-11618190D02*
X4759486Y-11627714D01*
X4759486Y-11627714D02*
X4769010Y-11637238D01*
X4769010Y-11637238D02*
X4778533Y-11656286D01*
X4778533Y-11656286D02*
X4778533Y-11713428D01*
X4778533Y-11713428D02*
X4769010Y-11732476D01*
X4769010Y-11732476D02*
X4759486Y-11742000D01*
X4759486Y-11742000D02*
X4740438Y-11751524D01*
X4740438Y-11751524D02*
X4702343Y-11751524D01*
X4702343Y-11751524D02*
X4683295Y-11742000D01*
X4864248Y-11732476D02*
X4873771Y-11742000D01*
X4873771Y-11742000D02*
X4864248Y-11751524D01*
X4864248Y-11751524D02*
X4854724Y-11742000D01*
X4854724Y-11742000D02*
X4864248Y-11732476D01*
X4864248Y-11732476D02*
X4864248Y-11751524D01*
X4864248Y-11627714D02*
X4873771Y-11637238D01*
X4873771Y-11637238D02*
X4864248Y-11646762D01*
X4864248Y-11646762D02*
X4854724Y-11637238D01*
X4854724Y-11637238D02*
X4864248Y-11627714D01*
X4864248Y-11627714D02*
X4864248Y-11646762D01*
M02*
