G04 #@! TF.GenerationSoftware,KiCad,Pcbnew,7.0.2*
G04 #@! TF.CreationDate,2024-04-07T22:55:53+02:00*
G04 #@! TF.ProjectId,stm_audio_board_v3_Footswitch,73746d5f-6175-4646-996f-5f626f617264,rev?*
G04 #@! TF.SameCoordinates,Original*
G04 #@! TF.FileFunction,Legend,Bot*
G04 #@! TF.FilePolarity,Positive*
%FSLAX46Y46*%
G04 Gerber Fmt 4.6, Leading zero omitted, Abs format (unit mm)*
G04 Created by KiCad (PCBNEW 7.0.2) date 2024-04-07 22:55:53*
%MOMM*%
%LPD*%
G01*
G04 APERTURE LIST*
G04 Aperture macros list*
%AMRoundRect*
0 Rectangle with rounded corners*
0 $1 Rounding radius*
0 $2 $3 $4 $5 $6 $7 $8 $9 X,Y pos of 4 corners*
0 Add a 4 corners polygon primitive as box body*
4,1,4,$2,$3,$4,$5,$6,$7,$8,$9,$2,$3,0*
0 Add four circle primitives for the rounded corners*
1,1,$1+$1,$2,$3*
1,1,$1+$1,$4,$5*
1,1,$1+$1,$6,$7*
1,1,$1+$1,$8,$9*
0 Add four rect primitives between the rounded corners*
20,1,$1+$1,$2,$3,$4,$5,0*
20,1,$1+$1,$4,$5,$6,$7,0*
20,1,$1+$1,$6,$7,$8,$9,0*
20,1,$1+$1,$8,$9,$2,$3,0*%
G04 Aperture macros list end*
%ADD10R,1.800000X1.800000*%
%ADD11C,1.800000*%
%ADD12R,3.500000X3.000000*%
%ADD13RoundRect,0.250000X-0.600000X0.600000X-0.600000X-0.600000X0.600000X-0.600000X0.600000X0.600000X0*%
%ADD14C,1.700000*%
G04 APERTURE END LIST*
%LPC*%
D10*
X43056000Y-88992000D03*
D11*
X45596000Y-88992000D03*
D12*
X38956000Y-108840000D03*
X38956000Y-104040000D03*
X38956000Y-99240000D03*
X44256000Y-108840000D03*
X44256000Y-104040000D03*
X44256000Y-99240000D03*
X49556000Y-108840000D03*
X49556000Y-104040000D03*
X49556000Y-99240000D03*
D10*
X109604000Y-88992000D03*
D11*
X112144000Y-88992000D03*
D10*
X176152000Y-88992000D03*
D11*
X178692000Y-88992000D03*
D12*
X105504000Y-108840000D03*
X105504000Y-104040000D03*
X105504000Y-99240000D03*
X110804000Y-108840000D03*
X110804000Y-104040000D03*
X110804000Y-99240000D03*
X116104000Y-108840000D03*
X116104000Y-104040000D03*
X116104000Y-99240000D03*
X172052000Y-108840000D03*
X172052000Y-104040000D03*
X172052000Y-99240000D03*
X177352000Y-108840000D03*
X177352000Y-104040000D03*
X177352000Y-99240000D03*
X182652000Y-108840000D03*
X182652000Y-104040000D03*
X182652000Y-99240000D03*
X238600000Y-108840000D03*
X238600000Y-104040000D03*
X238600000Y-99240000D03*
X243900000Y-108840000D03*
X243900000Y-104040000D03*
X243900000Y-99240000D03*
X249200000Y-108840000D03*
X249200000Y-104040000D03*
X249200000Y-99240000D03*
D13*
X222926000Y-91477000D03*
D14*
X222926000Y-94017000D03*
X220386000Y-91477000D03*
X220386000Y-94017000D03*
X217846000Y-91477000D03*
X217846000Y-94017000D03*
X215306000Y-91477000D03*
X215306000Y-94017000D03*
X212766000Y-91477000D03*
X212766000Y-94017000D03*
D10*
X242700000Y-88992000D03*
D11*
X245240000Y-88992000D03*
%LPD*%
M02*
