G04 #@! TF.GenerationSoftware,KiCad,Pcbnew,7.0.2*
G04 #@! TF.CreationDate,2024-04-07T22:55:53+02:00*
G04 #@! TF.ProjectId,stm_audio_board_v3_Footswitch,73746d5f-6175-4646-996f-5f626f617264,rev?*
G04 #@! TF.SameCoordinates,Original*
G04 #@! TF.FileFunction,Legend,Top*
G04 #@! TF.FilePolarity,Positive*
%FSLAX46Y46*%
G04 Gerber Fmt 4.6, Leading zero omitted, Abs format (unit mm)*
G04 Created by KiCad (PCBNEW 7.0.2) date 2024-04-07 22:55:53*
%MOMM*%
%LPD*%
G01*
G04 APERTURE LIST*
G04 Aperture macros list*
%AMRoundRect*
0 Rectangle with rounded corners*
0 $1 Rounding radius*
0 $2 $3 $4 $5 $6 $7 $8 $9 X,Y pos of 4 corners*
0 Add a 4 corners polygon primitive as box body*
4,1,4,$2,$3,$4,$5,$6,$7,$8,$9,$2,$3,0*
0 Add four circle primitives for the rounded corners*
1,1,$1+$1,$2,$3*
1,1,$1+$1,$4,$5*
1,1,$1+$1,$6,$7*
1,1,$1+$1,$8,$9*
0 Add four rect primitives between the rounded corners*
20,1,$1+$1,$2,$3,$4,$5,0*
20,1,$1+$1,$4,$5,$6,$7,0*
20,1,$1+$1,$6,$7,$8,$9,0*
20,1,$1+$1,$8,$9,$2,$3,0*%
G04 Aperture macros list end*
%ADD10C,0.200000*%
%ADD11C,0.150000*%
%ADD12C,0.100000*%
%ADD13C,0.120000*%
%ADD14R,1.800000X1.800000*%
%ADD15C,1.800000*%
%ADD16R,3.500000X3.000000*%
%ADD17RoundRect,0.250000X-0.600000X0.600000X-0.600000X-0.600000X0.600000X-0.600000X0.600000X0.600000X0*%
%ADD18C,1.700000*%
G04 APERTURE END LIST*
D10*
X29082952Y-105324000D02*
X29368666Y-105419238D01*
X29368666Y-105419238D02*
X29844857Y-105419238D01*
X29844857Y-105419238D02*
X30035333Y-105324000D01*
X30035333Y-105324000D02*
X30130571Y-105228761D01*
X30130571Y-105228761D02*
X30225809Y-105038285D01*
X30225809Y-105038285D02*
X30225809Y-104847809D01*
X30225809Y-104847809D02*
X30130571Y-104657333D01*
X30130571Y-104657333D02*
X30035333Y-104562095D01*
X30035333Y-104562095D02*
X29844857Y-104466857D01*
X29844857Y-104466857D02*
X29463904Y-104371619D01*
X29463904Y-104371619D02*
X29273428Y-104276380D01*
X29273428Y-104276380D02*
X29178190Y-104181142D01*
X29178190Y-104181142D02*
X29082952Y-103990666D01*
X29082952Y-103990666D02*
X29082952Y-103800190D01*
X29082952Y-103800190D02*
X29178190Y-103609714D01*
X29178190Y-103609714D02*
X29273428Y-103514476D01*
X29273428Y-103514476D02*
X29463904Y-103419238D01*
X29463904Y-103419238D02*
X29940095Y-103419238D01*
X29940095Y-103419238D02*
X30225809Y-103514476D01*
X30892476Y-103419238D02*
X31368666Y-105419238D01*
X31368666Y-105419238D02*
X31749619Y-103990666D01*
X31749619Y-103990666D02*
X32130571Y-105419238D01*
X32130571Y-105419238D02*
X32606762Y-103419238D01*
X34416285Y-105419238D02*
X33273428Y-105419238D01*
X33844856Y-105419238D02*
X33844856Y-103419238D01*
X33844856Y-103419238D02*
X33654380Y-103704952D01*
X33654380Y-103704952D02*
X33463904Y-103895428D01*
X33463904Y-103895428D02*
X33273428Y-103990666D01*
X95630952Y-105324000D02*
X95916666Y-105419238D01*
X95916666Y-105419238D02*
X96392857Y-105419238D01*
X96392857Y-105419238D02*
X96583333Y-105324000D01*
X96583333Y-105324000D02*
X96678571Y-105228761D01*
X96678571Y-105228761D02*
X96773809Y-105038285D01*
X96773809Y-105038285D02*
X96773809Y-104847809D01*
X96773809Y-104847809D02*
X96678571Y-104657333D01*
X96678571Y-104657333D02*
X96583333Y-104562095D01*
X96583333Y-104562095D02*
X96392857Y-104466857D01*
X96392857Y-104466857D02*
X96011904Y-104371619D01*
X96011904Y-104371619D02*
X95821428Y-104276380D01*
X95821428Y-104276380D02*
X95726190Y-104181142D01*
X95726190Y-104181142D02*
X95630952Y-103990666D01*
X95630952Y-103990666D02*
X95630952Y-103800190D01*
X95630952Y-103800190D02*
X95726190Y-103609714D01*
X95726190Y-103609714D02*
X95821428Y-103514476D01*
X95821428Y-103514476D02*
X96011904Y-103419238D01*
X96011904Y-103419238D02*
X96488095Y-103419238D01*
X96488095Y-103419238D02*
X96773809Y-103514476D01*
X97440476Y-103419238D02*
X97916666Y-105419238D01*
X97916666Y-105419238D02*
X98297619Y-103990666D01*
X98297619Y-103990666D02*
X98678571Y-105419238D01*
X98678571Y-105419238D02*
X99154762Y-103419238D01*
X99821428Y-103609714D02*
X99916666Y-103514476D01*
X99916666Y-103514476D02*
X100107142Y-103419238D01*
X100107142Y-103419238D02*
X100583333Y-103419238D01*
X100583333Y-103419238D02*
X100773809Y-103514476D01*
X100773809Y-103514476D02*
X100869047Y-103609714D01*
X100869047Y-103609714D02*
X100964285Y-103800190D01*
X100964285Y-103800190D02*
X100964285Y-103990666D01*
X100964285Y-103990666D02*
X100869047Y-104276380D01*
X100869047Y-104276380D02*
X99726190Y-105419238D01*
X99726190Y-105419238D02*
X100964285Y-105419238D01*
X162178952Y-105324000D02*
X162464666Y-105419238D01*
X162464666Y-105419238D02*
X162940857Y-105419238D01*
X162940857Y-105419238D02*
X163131333Y-105324000D01*
X163131333Y-105324000D02*
X163226571Y-105228761D01*
X163226571Y-105228761D02*
X163321809Y-105038285D01*
X163321809Y-105038285D02*
X163321809Y-104847809D01*
X163321809Y-104847809D02*
X163226571Y-104657333D01*
X163226571Y-104657333D02*
X163131333Y-104562095D01*
X163131333Y-104562095D02*
X162940857Y-104466857D01*
X162940857Y-104466857D02*
X162559904Y-104371619D01*
X162559904Y-104371619D02*
X162369428Y-104276380D01*
X162369428Y-104276380D02*
X162274190Y-104181142D01*
X162274190Y-104181142D02*
X162178952Y-103990666D01*
X162178952Y-103990666D02*
X162178952Y-103800190D01*
X162178952Y-103800190D02*
X162274190Y-103609714D01*
X162274190Y-103609714D02*
X162369428Y-103514476D01*
X162369428Y-103514476D02*
X162559904Y-103419238D01*
X162559904Y-103419238D02*
X163036095Y-103419238D01*
X163036095Y-103419238D02*
X163321809Y-103514476D01*
X163988476Y-103419238D02*
X164464666Y-105419238D01*
X164464666Y-105419238D02*
X164845619Y-103990666D01*
X164845619Y-103990666D02*
X165226571Y-105419238D01*
X165226571Y-105419238D02*
X165702762Y-103419238D01*
X166274190Y-103419238D02*
X167512285Y-103419238D01*
X167512285Y-103419238D02*
X166845618Y-104181142D01*
X166845618Y-104181142D02*
X167131333Y-104181142D01*
X167131333Y-104181142D02*
X167321809Y-104276380D01*
X167321809Y-104276380D02*
X167417047Y-104371619D01*
X167417047Y-104371619D02*
X167512285Y-104562095D01*
X167512285Y-104562095D02*
X167512285Y-105038285D01*
X167512285Y-105038285D02*
X167417047Y-105228761D01*
X167417047Y-105228761D02*
X167321809Y-105324000D01*
X167321809Y-105324000D02*
X167131333Y-105419238D01*
X167131333Y-105419238D02*
X166559904Y-105419238D01*
X166559904Y-105419238D02*
X166369428Y-105324000D01*
X166369428Y-105324000D02*
X166274190Y-105228761D01*
X228726952Y-105324000D02*
X229012666Y-105419238D01*
X229012666Y-105419238D02*
X229488857Y-105419238D01*
X229488857Y-105419238D02*
X229679333Y-105324000D01*
X229679333Y-105324000D02*
X229774571Y-105228761D01*
X229774571Y-105228761D02*
X229869809Y-105038285D01*
X229869809Y-105038285D02*
X229869809Y-104847809D01*
X229869809Y-104847809D02*
X229774571Y-104657333D01*
X229774571Y-104657333D02*
X229679333Y-104562095D01*
X229679333Y-104562095D02*
X229488857Y-104466857D01*
X229488857Y-104466857D02*
X229107904Y-104371619D01*
X229107904Y-104371619D02*
X228917428Y-104276380D01*
X228917428Y-104276380D02*
X228822190Y-104181142D01*
X228822190Y-104181142D02*
X228726952Y-103990666D01*
X228726952Y-103990666D02*
X228726952Y-103800190D01*
X228726952Y-103800190D02*
X228822190Y-103609714D01*
X228822190Y-103609714D02*
X228917428Y-103514476D01*
X228917428Y-103514476D02*
X229107904Y-103419238D01*
X229107904Y-103419238D02*
X229584095Y-103419238D01*
X229584095Y-103419238D02*
X229869809Y-103514476D01*
X230536476Y-103419238D02*
X231012666Y-105419238D01*
X231012666Y-105419238D02*
X231393619Y-103990666D01*
X231393619Y-103990666D02*
X231774571Y-105419238D01*
X231774571Y-105419238D02*
X232250762Y-103419238D01*
X233869809Y-104085904D02*
X233869809Y-105419238D01*
X233393618Y-103324000D02*
X232917428Y-104752571D01*
X232917428Y-104752571D02*
X234155523Y-104752571D01*
D11*
X43587905Y-85494619D02*
X43587905Y-84494619D01*
X43587905Y-84494619D02*
X43826000Y-84494619D01*
X43826000Y-84494619D02*
X43968857Y-84542238D01*
X43968857Y-84542238D02*
X44064095Y-84637476D01*
X44064095Y-84637476D02*
X44111714Y-84732714D01*
X44111714Y-84732714D02*
X44159333Y-84923190D01*
X44159333Y-84923190D02*
X44159333Y-85066047D01*
X44159333Y-85066047D02*
X44111714Y-85256523D01*
X44111714Y-85256523D02*
X44064095Y-85351761D01*
X44064095Y-85351761D02*
X43968857Y-85447000D01*
X43968857Y-85447000D02*
X43826000Y-85494619D01*
X43826000Y-85494619D02*
X43587905Y-85494619D01*
X45111714Y-85494619D02*
X44540286Y-85494619D01*
X44826000Y-85494619D02*
X44826000Y-84494619D01*
X44826000Y-84494619D02*
X44730762Y-84637476D01*
X44730762Y-84637476D02*
X44635524Y-84732714D01*
X44635524Y-84732714D02*
X44540286Y-84780333D01*
D12*
X43050267Y-92393800D02*
X43193124Y-92441419D01*
X43193124Y-92441419D02*
X43431219Y-92441419D01*
X43431219Y-92441419D02*
X43526457Y-92393800D01*
X43526457Y-92393800D02*
X43574076Y-92346180D01*
X43574076Y-92346180D02*
X43621695Y-92250942D01*
X43621695Y-92250942D02*
X43621695Y-92155704D01*
X43621695Y-92155704D02*
X43574076Y-92060466D01*
X43574076Y-92060466D02*
X43526457Y-92012847D01*
X43526457Y-92012847D02*
X43431219Y-91965228D01*
X43431219Y-91965228D02*
X43240743Y-91917609D01*
X43240743Y-91917609D02*
X43145505Y-91869990D01*
X43145505Y-91869990D02*
X43097886Y-91822371D01*
X43097886Y-91822371D02*
X43050267Y-91727133D01*
X43050267Y-91727133D02*
X43050267Y-91631895D01*
X43050267Y-91631895D02*
X43097886Y-91536657D01*
X43097886Y-91536657D02*
X43145505Y-91489038D01*
X43145505Y-91489038D02*
X43240743Y-91441419D01*
X43240743Y-91441419D02*
X43478838Y-91441419D01*
X43478838Y-91441419D02*
X43621695Y-91489038D01*
X43955029Y-91441419D02*
X44193124Y-92441419D01*
X44193124Y-92441419D02*
X44383600Y-91727133D01*
X44383600Y-91727133D02*
X44574076Y-92441419D01*
X44574076Y-92441419D02*
X44812172Y-91441419D01*
X45716933Y-92441419D02*
X45145505Y-92441419D01*
X45431219Y-92441419D02*
X45431219Y-91441419D01*
X45431219Y-91441419D02*
X45335981Y-91584276D01*
X45335981Y-91584276D02*
X45240743Y-91679514D01*
X45240743Y-91679514D02*
X45145505Y-91727133D01*
D11*
X110135905Y-85494619D02*
X110135905Y-84494619D01*
X110135905Y-84494619D02*
X110374000Y-84494619D01*
X110374000Y-84494619D02*
X110516857Y-84542238D01*
X110516857Y-84542238D02*
X110612095Y-84637476D01*
X110612095Y-84637476D02*
X110659714Y-84732714D01*
X110659714Y-84732714D02*
X110707333Y-84923190D01*
X110707333Y-84923190D02*
X110707333Y-85066047D01*
X110707333Y-85066047D02*
X110659714Y-85256523D01*
X110659714Y-85256523D02*
X110612095Y-85351761D01*
X110612095Y-85351761D02*
X110516857Y-85447000D01*
X110516857Y-85447000D02*
X110374000Y-85494619D01*
X110374000Y-85494619D02*
X110135905Y-85494619D01*
X111088286Y-84589857D02*
X111135905Y-84542238D01*
X111135905Y-84542238D02*
X111231143Y-84494619D01*
X111231143Y-84494619D02*
X111469238Y-84494619D01*
X111469238Y-84494619D02*
X111564476Y-84542238D01*
X111564476Y-84542238D02*
X111612095Y-84589857D01*
X111612095Y-84589857D02*
X111659714Y-84685095D01*
X111659714Y-84685095D02*
X111659714Y-84780333D01*
X111659714Y-84780333D02*
X111612095Y-84923190D01*
X111612095Y-84923190D02*
X111040667Y-85494619D01*
X111040667Y-85494619D02*
X111659714Y-85494619D01*
X176683905Y-85494619D02*
X176683905Y-84494619D01*
X176683905Y-84494619D02*
X176922000Y-84494619D01*
X176922000Y-84494619D02*
X177064857Y-84542238D01*
X177064857Y-84542238D02*
X177160095Y-84637476D01*
X177160095Y-84637476D02*
X177207714Y-84732714D01*
X177207714Y-84732714D02*
X177255333Y-84923190D01*
X177255333Y-84923190D02*
X177255333Y-85066047D01*
X177255333Y-85066047D02*
X177207714Y-85256523D01*
X177207714Y-85256523D02*
X177160095Y-85351761D01*
X177160095Y-85351761D02*
X177064857Y-85447000D01*
X177064857Y-85447000D02*
X176922000Y-85494619D01*
X176922000Y-85494619D02*
X176683905Y-85494619D01*
X177588667Y-84494619D02*
X178207714Y-84494619D01*
X178207714Y-84494619D02*
X177874381Y-84875571D01*
X177874381Y-84875571D02*
X178017238Y-84875571D01*
X178017238Y-84875571D02*
X178112476Y-84923190D01*
X178112476Y-84923190D02*
X178160095Y-84970809D01*
X178160095Y-84970809D02*
X178207714Y-85066047D01*
X178207714Y-85066047D02*
X178207714Y-85304142D01*
X178207714Y-85304142D02*
X178160095Y-85399380D01*
X178160095Y-85399380D02*
X178112476Y-85447000D01*
X178112476Y-85447000D02*
X178017238Y-85494619D01*
X178017238Y-85494619D02*
X177731524Y-85494619D01*
X177731524Y-85494619D02*
X177636286Y-85447000D01*
X177636286Y-85447000D02*
X177588667Y-85399380D01*
D12*
X109598267Y-92393800D02*
X109741124Y-92441419D01*
X109741124Y-92441419D02*
X109979219Y-92441419D01*
X109979219Y-92441419D02*
X110074457Y-92393800D01*
X110074457Y-92393800D02*
X110122076Y-92346180D01*
X110122076Y-92346180D02*
X110169695Y-92250942D01*
X110169695Y-92250942D02*
X110169695Y-92155704D01*
X110169695Y-92155704D02*
X110122076Y-92060466D01*
X110122076Y-92060466D02*
X110074457Y-92012847D01*
X110074457Y-92012847D02*
X109979219Y-91965228D01*
X109979219Y-91965228D02*
X109788743Y-91917609D01*
X109788743Y-91917609D02*
X109693505Y-91869990D01*
X109693505Y-91869990D02*
X109645886Y-91822371D01*
X109645886Y-91822371D02*
X109598267Y-91727133D01*
X109598267Y-91727133D02*
X109598267Y-91631895D01*
X109598267Y-91631895D02*
X109645886Y-91536657D01*
X109645886Y-91536657D02*
X109693505Y-91489038D01*
X109693505Y-91489038D02*
X109788743Y-91441419D01*
X109788743Y-91441419D02*
X110026838Y-91441419D01*
X110026838Y-91441419D02*
X110169695Y-91489038D01*
X110503029Y-91441419D02*
X110741124Y-92441419D01*
X110741124Y-92441419D02*
X110931600Y-91727133D01*
X110931600Y-91727133D02*
X111122076Y-92441419D01*
X111122076Y-92441419D02*
X111360172Y-91441419D01*
X111693505Y-91536657D02*
X111741124Y-91489038D01*
X111741124Y-91489038D02*
X111836362Y-91441419D01*
X111836362Y-91441419D02*
X112074457Y-91441419D01*
X112074457Y-91441419D02*
X112169695Y-91489038D01*
X112169695Y-91489038D02*
X112217314Y-91536657D01*
X112217314Y-91536657D02*
X112264933Y-91631895D01*
X112264933Y-91631895D02*
X112264933Y-91727133D01*
X112264933Y-91727133D02*
X112217314Y-91869990D01*
X112217314Y-91869990D02*
X111645886Y-92441419D01*
X111645886Y-92441419D02*
X112264933Y-92441419D01*
X176146267Y-92393800D02*
X176289124Y-92441419D01*
X176289124Y-92441419D02*
X176527219Y-92441419D01*
X176527219Y-92441419D02*
X176622457Y-92393800D01*
X176622457Y-92393800D02*
X176670076Y-92346180D01*
X176670076Y-92346180D02*
X176717695Y-92250942D01*
X176717695Y-92250942D02*
X176717695Y-92155704D01*
X176717695Y-92155704D02*
X176670076Y-92060466D01*
X176670076Y-92060466D02*
X176622457Y-92012847D01*
X176622457Y-92012847D02*
X176527219Y-91965228D01*
X176527219Y-91965228D02*
X176336743Y-91917609D01*
X176336743Y-91917609D02*
X176241505Y-91869990D01*
X176241505Y-91869990D02*
X176193886Y-91822371D01*
X176193886Y-91822371D02*
X176146267Y-91727133D01*
X176146267Y-91727133D02*
X176146267Y-91631895D01*
X176146267Y-91631895D02*
X176193886Y-91536657D01*
X176193886Y-91536657D02*
X176241505Y-91489038D01*
X176241505Y-91489038D02*
X176336743Y-91441419D01*
X176336743Y-91441419D02*
X176574838Y-91441419D01*
X176574838Y-91441419D02*
X176717695Y-91489038D01*
X177051029Y-91441419D02*
X177289124Y-92441419D01*
X177289124Y-92441419D02*
X177479600Y-91727133D01*
X177479600Y-91727133D02*
X177670076Y-92441419D01*
X177670076Y-92441419D02*
X177908172Y-91441419D01*
X178193886Y-91441419D02*
X178812933Y-91441419D01*
X178812933Y-91441419D02*
X178479600Y-91822371D01*
X178479600Y-91822371D02*
X178622457Y-91822371D01*
X178622457Y-91822371D02*
X178717695Y-91869990D01*
X178717695Y-91869990D02*
X178765314Y-91917609D01*
X178765314Y-91917609D02*
X178812933Y-92012847D01*
X178812933Y-92012847D02*
X178812933Y-92250942D01*
X178812933Y-92250942D02*
X178765314Y-92346180D01*
X178765314Y-92346180D02*
X178717695Y-92393800D01*
X178717695Y-92393800D02*
X178622457Y-92441419D01*
X178622457Y-92441419D02*
X178336743Y-92441419D01*
X178336743Y-92441419D02*
X178241505Y-92393800D01*
X178241505Y-92393800D02*
X178193886Y-92346180D01*
X242694267Y-92393800D02*
X242837124Y-92441419D01*
X242837124Y-92441419D02*
X243075219Y-92441419D01*
X243075219Y-92441419D02*
X243170457Y-92393800D01*
X243170457Y-92393800D02*
X243218076Y-92346180D01*
X243218076Y-92346180D02*
X243265695Y-92250942D01*
X243265695Y-92250942D02*
X243265695Y-92155704D01*
X243265695Y-92155704D02*
X243218076Y-92060466D01*
X243218076Y-92060466D02*
X243170457Y-92012847D01*
X243170457Y-92012847D02*
X243075219Y-91965228D01*
X243075219Y-91965228D02*
X242884743Y-91917609D01*
X242884743Y-91917609D02*
X242789505Y-91869990D01*
X242789505Y-91869990D02*
X242741886Y-91822371D01*
X242741886Y-91822371D02*
X242694267Y-91727133D01*
X242694267Y-91727133D02*
X242694267Y-91631895D01*
X242694267Y-91631895D02*
X242741886Y-91536657D01*
X242741886Y-91536657D02*
X242789505Y-91489038D01*
X242789505Y-91489038D02*
X242884743Y-91441419D01*
X242884743Y-91441419D02*
X243122838Y-91441419D01*
X243122838Y-91441419D02*
X243265695Y-91489038D01*
X243599029Y-91441419D02*
X243837124Y-92441419D01*
X243837124Y-92441419D02*
X244027600Y-91727133D01*
X244027600Y-91727133D02*
X244218076Y-92441419D01*
X244218076Y-92441419D02*
X244456172Y-91441419D01*
X245265695Y-91774752D02*
X245265695Y-92441419D01*
X245027600Y-91393800D02*
X244789505Y-92108085D01*
X244789505Y-92108085D02*
X245408552Y-92108085D01*
D11*
X228488619Y-93080333D02*
X229202904Y-93080333D01*
X229202904Y-93080333D02*
X229345761Y-93127952D01*
X229345761Y-93127952D02*
X229441000Y-93223190D01*
X229441000Y-93223190D02*
X229488619Y-93366047D01*
X229488619Y-93366047D02*
X229488619Y-93461285D01*
X228583857Y-92651761D02*
X228536238Y-92604142D01*
X228536238Y-92604142D02*
X228488619Y-92508904D01*
X228488619Y-92508904D02*
X228488619Y-92270809D01*
X228488619Y-92270809D02*
X228536238Y-92175571D01*
X228536238Y-92175571D02*
X228583857Y-92127952D01*
X228583857Y-92127952D02*
X228679095Y-92080333D01*
X228679095Y-92080333D02*
X228774333Y-92080333D01*
X228774333Y-92080333D02*
X228917190Y-92127952D01*
X228917190Y-92127952D02*
X229488619Y-92699380D01*
X229488619Y-92699380D02*
X229488619Y-92080333D01*
X243231905Y-85494619D02*
X243231905Y-84494619D01*
X243231905Y-84494619D02*
X243470000Y-84494619D01*
X243470000Y-84494619D02*
X243612857Y-84542238D01*
X243612857Y-84542238D02*
X243708095Y-84637476D01*
X243708095Y-84637476D02*
X243755714Y-84732714D01*
X243755714Y-84732714D02*
X243803333Y-84923190D01*
X243803333Y-84923190D02*
X243803333Y-85066047D01*
X243803333Y-85066047D02*
X243755714Y-85256523D01*
X243755714Y-85256523D02*
X243708095Y-85351761D01*
X243708095Y-85351761D02*
X243612857Y-85447000D01*
X243612857Y-85447000D02*
X243470000Y-85494619D01*
X243470000Y-85494619D02*
X243231905Y-85494619D01*
X244660476Y-84827952D02*
X244660476Y-85494619D01*
X244422381Y-84447000D02*
X244184286Y-85161285D01*
X244184286Y-85161285D02*
X244803333Y-85161285D01*
D13*
X41766000Y-87447000D02*
X41766000Y-90537000D01*
X47315999Y-88992462D02*
G75*
G03*
X41766001Y-87447170I-2989999J462D01*
G01*
X41766000Y-90536830D02*
G75*
G03*
X47316000Y-88991538I2560000J1544830D01*
G01*
X46826000Y-88992000D02*
G75*
G03*
X46826000Y-88992000I-2500000J0D01*
G01*
D12*
X36256000Y-97040000D02*
X52256000Y-97040000D01*
X52256000Y-97040000D02*
X52256000Y-111040000D01*
X52256000Y-111040000D02*
X36256000Y-111040000D01*
X36256000Y-111040000D02*
X36256000Y-97040000D01*
D13*
X108314000Y-87447000D02*
X108314000Y-90537000D01*
X113863999Y-88992462D02*
G75*
G03*
X108314001Y-87447170I-2989999J462D01*
G01*
X108314000Y-90536830D02*
G75*
G03*
X113864000Y-88991538I2560000J1544830D01*
G01*
X113374000Y-88992000D02*
G75*
G03*
X113374000Y-88992000I-2500000J0D01*
G01*
X174862000Y-87447000D02*
X174862000Y-90537000D01*
X180411999Y-88992462D02*
G75*
G03*
X174862001Y-87447170I-2989999J462D01*
G01*
X174862000Y-90536830D02*
G75*
G03*
X180412000Y-88991538I2560000J1544830D01*
G01*
X179922000Y-88992000D02*
G75*
G03*
X179922000Y-88992000I-2500000J0D01*
G01*
D12*
X102804000Y-97040000D02*
X118804000Y-97040000D01*
X118804000Y-97040000D02*
X118804000Y-111040000D01*
X118804000Y-111040000D02*
X102804000Y-111040000D01*
X102804000Y-111040000D02*
X102804000Y-97040000D01*
X169352000Y-97040000D02*
X185352000Y-97040000D01*
X185352000Y-97040000D02*
X185352000Y-111040000D01*
X185352000Y-111040000D02*
X169352000Y-111040000D01*
X169352000Y-111040000D02*
X169352000Y-97040000D01*
X235900000Y-97040000D02*
X251900000Y-97040000D01*
X251900000Y-97040000D02*
X251900000Y-111040000D01*
X251900000Y-111040000D02*
X235900000Y-111040000D01*
X235900000Y-111040000D02*
X235900000Y-97040000D01*
D13*
X223426000Y-86797000D02*
X222426000Y-86797000D01*
X222426000Y-86797000D02*
X222926000Y-87797000D01*
X222926000Y-87797000D02*
X223426000Y-86797000D01*
X228136000Y-88187000D02*
X228136000Y-97307000D01*
X219896000Y-88187000D02*
X219896000Y-89497000D01*
X207556000Y-88187000D02*
X228136000Y-88187000D01*
X226836000Y-89497000D02*
X226836000Y-95997000D01*
X219896000Y-89497000D02*
X226836000Y-89497000D01*
X215796000Y-89497000D02*
X215796000Y-88187000D01*
X215796000Y-89497000D02*
X215796000Y-89497000D01*
X208856000Y-89497000D02*
X215796000Y-89497000D01*
X226836000Y-95997000D02*
X208856000Y-95997000D01*
X208856000Y-95997000D02*
X208856000Y-89497000D01*
X228136000Y-97307000D02*
X207556000Y-97307000D01*
X207556000Y-97307000D02*
X207556000Y-88187000D01*
X241410000Y-87447000D02*
X241410000Y-90537000D01*
X246959999Y-88992462D02*
G75*
G03*
X241410001Y-87447170I-2989999J462D01*
G01*
X241410000Y-90536830D02*
G75*
G03*
X246960000Y-88991538I2560000J1544830D01*
G01*
X246470000Y-88992000D02*
G75*
G03*
X246470000Y-88992000I-2500000J0D01*
G01*
%LPC*%
D14*
X43056000Y-88992000D03*
D15*
X45596000Y-88992000D03*
D16*
X38956000Y-108840000D03*
X38956000Y-104040000D03*
X38956000Y-99240000D03*
X44256000Y-108840000D03*
X44256000Y-104040000D03*
X44256000Y-99240000D03*
X49556000Y-108840000D03*
X49556000Y-104040000D03*
X49556000Y-99240000D03*
D14*
X109604000Y-88992000D03*
D15*
X112144000Y-88992000D03*
D14*
X176152000Y-88992000D03*
D15*
X178692000Y-88992000D03*
D16*
X105504000Y-108840000D03*
X105504000Y-104040000D03*
X105504000Y-99240000D03*
X110804000Y-108840000D03*
X110804000Y-104040000D03*
X110804000Y-99240000D03*
X116104000Y-108840000D03*
X116104000Y-104040000D03*
X116104000Y-99240000D03*
X172052000Y-108840000D03*
X172052000Y-104040000D03*
X172052000Y-99240000D03*
X177352000Y-108840000D03*
X177352000Y-104040000D03*
X177352000Y-99240000D03*
X182652000Y-108840000D03*
X182652000Y-104040000D03*
X182652000Y-99240000D03*
X238600000Y-108840000D03*
X238600000Y-104040000D03*
X238600000Y-99240000D03*
X243900000Y-108840000D03*
X243900000Y-104040000D03*
X243900000Y-99240000D03*
X249200000Y-108840000D03*
X249200000Y-104040000D03*
X249200000Y-99240000D03*
D17*
X222926000Y-91477000D03*
D18*
X222926000Y-94017000D03*
X220386000Y-91477000D03*
X220386000Y-94017000D03*
X217846000Y-91477000D03*
X217846000Y-94017000D03*
X215306000Y-91477000D03*
X215306000Y-94017000D03*
X212766000Y-91477000D03*
X212766000Y-94017000D03*
D14*
X242700000Y-88992000D03*
D15*
X245240000Y-88992000D03*
%LPD*%
M02*
