M48
; DRILL file {KiCad 7.0.2} date Mon Apr  8 23:43:10 2024
; FORMAT={-:-/ absolute / metric / decimal}
; #@! TF.CreationDate,2024-04-08T23:43:10+02:00
; #@! TF.GenerationSoftware,Kicad,Pcbnew,7.0.2
; #@! TF.FileFunction,Plated,1,2,PTH
FMAT,2
METRIC
; #@! TA.AperFunction,Plated,PTH,ViaDrill
T1C0.400
; #@! TA.AperFunction,Plated,PTH,ComponentDrill
T2C0.900
; #@! TA.AperFunction,Plated,PTH,ComponentDrill
T3C1.000
; #@! TA.AperFunction,Plated,PTH,ComponentDrill
T4C1.500
%
G90
G05
T1
X37.526Y-86.36
X37.526Y-91.36
X57.526Y-91.36
X67.526Y-91.36
X67.526Y-96.36
X67.526Y-101.36
X67.526Y-106.36
X77.526Y-91.36
X77.526Y-96.36
X77.526Y-101.36
X77.526Y-106.36
X87.526Y-91.36
X87.526Y-96.36
X87.526Y-101.36
X87.526Y-106.36
X97.526Y-91.36
X97.526Y-96.36
X97.526Y-101.36
X97.526Y-106.36
X107.526Y-91.36
X117.526Y-91.36
X127.526Y-91.36
X127.526Y-101.36
X127.526Y-106.36
X137.526Y-91.36
X147.526Y-91.36
X157.526Y-91.36
X167.526Y-91.36
X167.526Y-101.36
X167.526Y-106.36
X177.526Y-91.36
X187.526Y-91.36
X187.526Y-106.36
X197.526Y-91.36
X197.526Y-106.36
X207.526Y-91.36
X210.312Y-98.806
X213.106Y-101.346
X217.526Y-106.36
X219.71Y-103.886
X227.526Y-86.36
X227.526Y-91.36
X227.526Y-96.36
X227.526Y-106.36
X237.526Y-86.36
X247.526Y-86.36
T2
X43.452Y-89.265
X45.992Y-89.265
X113.452Y-89.265
X115.992Y-89.265
X183.452Y-89.265
X185.992Y-89.265
X253.452Y-89.265
X255.992Y-89.265
T3
X212.766Y-91.477
X212.766Y-94.017
X215.306Y-91.477
X215.306Y-94.017
X217.846Y-91.477
X217.846Y-94.017
X220.386Y-91.477
X220.386Y-94.017
X222.926Y-91.477
X222.926Y-94.017
T4
X38.902Y-99.465G85X40.402Y-99.465
G05
X38.902Y-104.265G85X40.402Y-104.265
G05
X38.902Y-109.065G85X40.402Y-109.065
G05
X44.202Y-99.465G85X45.702Y-99.465
G05
X44.202Y-104.265G85X45.702Y-104.265
G05
X44.202Y-109.065G85X45.702Y-109.065
G05
X49.502Y-99.465G85X51.002Y-99.465
G05
X49.502Y-104.265G85X51.002Y-104.265
G05
X49.502Y-109.065G85X51.002Y-109.065
G05
X108.902Y-99.465G85X110.402Y-99.465
G05
X108.902Y-104.265G85X110.402Y-104.265
G05
X108.902Y-109.065G85X110.402Y-109.065
G05
X114.202Y-99.465G85X115.702Y-99.465
G05
X114.202Y-104.265G85X115.702Y-104.265
G05
X114.202Y-109.065G85X115.702Y-109.065
G05
X119.502Y-99.465G85X121.002Y-99.465
G05
X119.502Y-104.265G85X121.002Y-104.265
G05
X119.502Y-109.065G85X121.002Y-109.065
G05
X178.902Y-99.465G85X180.402Y-99.465
G05
X178.902Y-104.265G85X180.402Y-104.265
G05
X178.902Y-109.065G85X180.402Y-109.065
G05
X184.202Y-99.465G85X185.702Y-99.465
G05
X184.202Y-104.265G85X185.702Y-104.265
G05
X184.202Y-109.065G85X185.702Y-109.065
G05
X189.502Y-99.465G85X191.002Y-99.465
G05
X189.502Y-104.265G85X191.002Y-104.265
G05
X189.502Y-109.065G85X191.002Y-109.065
G05
X248.902Y-99.465G85X250.402Y-99.465
G05
X248.902Y-104.265G85X250.402Y-104.265
G05
X248.902Y-109.065G85X250.402Y-109.065
G05
X254.202Y-99.465G85X255.702Y-99.465
G05
X254.202Y-104.265G85X255.702Y-104.265
G05
X254.202Y-109.065G85X255.702Y-109.065
G05
X259.502Y-99.465G85X261.002Y-99.465
G05
X259.502Y-104.265G85X261.002Y-104.265
G05
X259.502Y-109.065G85X261.002Y-109.065
G05
T0
M30
