%TF.GenerationSoftware,KiCad,Pcbnew,7.0.2*%
%TF.CreationDate,2024-04-08T23:43:10+02:00*%
%TF.ProjectId,stm_audio_board_v3_Footswitch,73746d5f-6175-4646-996f-5f626f617264,rev?*%
%TF.SameCoordinates,Original*%
%TF.FileFunction,Drillmap*%
%TF.FilePolarity,Positive*%
%FSLAX45Y45*%
G04 Gerber Fmt 4.5, Leading zero omitted, Abs format (unit mm)*
G04 Created by KiCad (PCBNEW 7.0.2) date 2024-04-08 23:43:10*
%MOMM*%
%LPD*%
G01*
G04 APERTURE LIST*
%ADD10C,0.200000*%
%ADD11C,0.040000*%
%ADD12C,0.090000*%
%ADD13C,0.100000*%
%ADD14C,0.150000*%
G04 APERTURE END LIST*
D10*
X3255200Y-8429000D02*
X26727700Y-8429000D01*
X26727700Y-11429000D01*
X3255200Y-11429000D01*
X3255200Y-8429000D01*
D11*
X3732600Y-8616000D02*
X3772600Y-8656000D01*
X3772600Y-8616000D02*
X3732600Y-8656000D01*
X3732600Y-9116000D02*
X3772600Y-9156000D01*
X3772600Y-9116000D02*
X3732600Y-9156000D01*
X5732600Y-9116000D02*
X5772600Y-9156000D01*
X5772600Y-9116000D02*
X5732600Y-9156000D01*
X6732600Y-9116000D02*
X6772600Y-9156000D01*
X6772600Y-9116000D02*
X6732600Y-9156000D01*
X6732600Y-9616000D02*
X6772600Y-9656000D01*
X6772600Y-9616000D02*
X6732600Y-9656000D01*
X6732600Y-10116000D02*
X6772600Y-10156000D01*
X6772600Y-10116000D02*
X6732600Y-10156000D01*
X6732600Y-10616000D02*
X6772600Y-10656000D01*
X6772600Y-10616000D02*
X6732600Y-10656000D01*
X7732600Y-9116000D02*
X7772600Y-9156000D01*
X7772600Y-9116000D02*
X7732600Y-9156000D01*
X7732600Y-9616000D02*
X7772600Y-9656000D01*
X7772600Y-9616000D02*
X7732600Y-9656000D01*
X7732600Y-10116000D02*
X7772600Y-10156000D01*
X7772600Y-10116000D02*
X7732600Y-10156000D01*
X7732600Y-10616000D02*
X7772600Y-10656000D01*
X7772600Y-10616000D02*
X7732600Y-10656000D01*
X8732600Y-9116000D02*
X8772600Y-9156000D01*
X8772600Y-9116000D02*
X8732600Y-9156000D01*
X8732600Y-9616000D02*
X8772600Y-9656000D01*
X8772600Y-9616000D02*
X8732600Y-9656000D01*
X8732600Y-10116000D02*
X8772600Y-10156000D01*
X8772600Y-10116000D02*
X8732600Y-10156000D01*
X8732600Y-10616000D02*
X8772600Y-10656000D01*
X8772600Y-10616000D02*
X8732600Y-10656000D01*
X9732600Y-9116000D02*
X9772600Y-9156000D01*
X9772600Y-9116000D02*
X9732600Y-9156000D01*
X9732600Y-9616000D02*
X9772600Y-9656000D01*
X9772600Y-9616000D02*
X9732600Y-9656000D01*
X9732600Y-10116000D02*
X9772600Y-10156000D01*
X9772600Y-10116000D02*
X9732600Y-10156000D01*
X9732600Y-10616000D02*
X9772600Y-10656000D01*
X9772600Y-10616000D02*
X9732600Y-10656000D01*
X10732600Y-9116000D02*
X10772600Y-9156000D01*
X10772600Y-9116000D02*
X10732600Y-9156000D01*
X11732600Y-9116000D02*
X11772600Y-9156000D01*
X11772600Y-9116000D02*
X11732600Y-9156000D01*
X12732600Y-9116000D02*
X12772600Y-9156000D01*
X12772600Y-9116000D02*
X12732600Y-9156000D01*
X12732600Y-10116000D02*
X12772600Y-10156000D01*
X12772600Y-10116000D02*
X12732600Y-10156000D01*
X12732600Y-10616000D02*
X12772600Y-10656000D01*
X12772600Y-10616000D02*
X12732600Y-10656000D01*
X13732600Y-9116000D02*
X13772600Y-9156000D01*
X13772600Y-9116000D02*
X13732600Y-9156000D01*
X14732600Y-9116000D02*
X14772600Y-9156000D01*
X14772600Y-9116000D02*
X14732600Y-9156000D01*
X15732600Y-9116000D02*
X15772600Y-9156000D01*
X15772600Y-9116000D02*
X15732600Y-9156000D01*
X16732600Y-9116000D02*
X16772600Y-9156000D01*
X16772600Y-9116000D02*
X16732600Y-9156000D01*
X16732600Y-10116000D02*
X16772600Y-10156000D01*
X16772600Y-10116000D02*
X16732600Y-10156000D01*
X16732600Y-10616000D02*
X16772600Y-10656000D01*
X16772600Y-10616000D02*
X16732600Y-10656000D01*
X17732600Y-9116000D02*
X17772600Y-9156000D01*
X17772600Y-9116000D02*
X17732600Y-9156000D01*
X18732600Y-9116000D02*
X18772600Y-9156000D01*
X18772600Y-9116000D02*
X18732600Y-9156000D01*
X18732600Y-10616000D02*
X18772600Y-10656000D01*
X18772600Y-10616000D02*
X18732600Y-10656000D01*
X19732600Y-9116000D02*
X19772600Y-9156000D01*
X19772600Y-9116000D02*
X19732600Y-9156000D01*
X19732600Y-10616000D02*
X19772600Y-10656000D01*
X19772600Y-10616000D02*
X19732600Y-10656000D01*
X20732600Y-9116000D02*
X20772600Y-9156000D01*
X20772600Y-9116000D02*
X20732600Y-9156000D01*
X21011200Y-9860600D02*
X21051200Y-9900600D01*
X21051200Y-9860600D02*
X21011200Y-9900600D01*
X21290600Y-10114600D02*
X21330600Y-10154600D01*
X21330600Y-10114600D02*
X21290600Y-10154600D01*
X21732600Y-10616000D02*
X21772600Y-10656000D01*
X21772600Y-10616000D02*
X21732600Y-10656000D01*
X21951000Y-10368600D02*
X21991000Y-10408600D01*
X21991000Y-10368600D02*
X21951000Y-10408600D01*
X22732600Y-8616000D02*
X22772600Y-8656000D01*
X22772600Y-8616000D02*
X22732600Y-8656000D01*
X22732600Y-9116000D02*
X22772600Y-9156000D01*
X22772600Y-9116000D02*
X22732600Y-9156000D01*
X22732600Y-9616000D02*
X22772600Y-9656000D01*
X22772600Y-9616000D02*
X22732600Y-9656000D01*
X22732600Y-10616000D02*
X22772600Y-10656000D01*
X22772600Y-10616000D02*
X22732600Y-10656000D01*
X23732600Y-8616000D02*
X23772600Y-8656000D01*
X23772600Y-8616000D02*
X23732600Y-8656000D01*
X24732600Y-8616000D02*
X24772600Y-8656000D01*
X24772600Y-8616000D02*
X24732600Y-8656000D01*
D12*
X4390200Y-8926500D02*
G75*
G03*
X4390200Y-8926500I-45000J0D01*
G01*
X4644200Y-8926500D02*
G75*
G03*
X4644200Y-8926500I-45000J0D01*
G01*
X11390200Y-8926500D02*
G75*
G03*
X11390200Y-8926500I-45000J0D01*
G01*
X11644200Y-8926500D02*
G75*
G03*
X11644200Y-8926500I-45000J0D01*
G01*
X18390200Y-8926500D02*
G75*
G03*
X18390200Y-8926500I-45000J0D01*
G01*
X18644200Y-8926500D02*
G75*
G03*
X18644200Y-8926500I-45000J0D01*
G01*
X25390200Y-8926500D02*
G75*
G03*
X25390200Y-8926500I-45000J0D01*
G01*
X25644200Y-8926500D02*
G75*
G03*
X25644200Y-8926500I-45000J0D01*
G01*
D13*
X21276600Y-9097700D02*
X21276600Y-9197700D01*
X21226600Y-9147700D02*
X21326600Y-9147700D01*
X21276600Y-9351700D02*
X21276600Y-9451700D01*
X21226600Y-9401700D02*
X21326600Y-9401700D01*
X21530600Y-9097700D02*
X21530600Y-9197700D01*
X21480600Y-9147700D02*
X21580600Y-9147700D01*
X21530600Y-9351700D02*
X21530600Y-9451700D01*
X21480600Y-9401700D02*
X21580600Y-9401700D01*
X21784600Y-9097700D02*
X21784600Y-9197700D01*
X21734600Y-9147700D02*
X21834600Y-9147700D01*
X21784600Y-9351700D02*
X21784600Y-9451700D01*
X21734600Y-9401700D02*
X21834600Y-9401700D01*
X22038600Y-9097700D02*
X22038600Y-9197700D01*
X21988600Y-9147700D02*
X22088600Y-9147700D01*
X22038600Y-9351700D02*
X22038600Y-9451700D01*
X21988600Y-9401700D02*
X22088600Y-9401700D01*
X22292600Y-9097700D02*
X22292600Y-9197700D01*
X22242600Y-9147700D02*
X22342600Y-9147700D01*
X22292600Y-9351700D02*
X22292600Y-9451700D01*
X22242600Y-9401700D02*
X22342600Y-9401700D01*
D14*
X4018233Y-9999534D02*
X4018233Y-9893467D01*
X3912166Y-9893467D01*
X3912166Y-9999534D01*
X4018233Y-9999534D01*
D10*
X3890200Y-10021500D02*
X4040200Y-10021500D01*
X4040200Y-10021500D02*
G75*
G03*
X4040200Y-9871500I0J75000D01*
G01*
X4040200Y-9871500D02*
X3890200Y-9871500D01*
X3890200Y-9871500D02*
G75*
G03*
X3890200Y-10021500I0J-75000D01*
G01*
D14*
X4018233Y-10479534D02*
X4018233Y-10373467D01*
X3912166Y-10373467D01*
X3912166Y-10479534D01*
X4018233Y-10479534D01*
D10*
X3890200Y-10501500D02*
X4040200Y-10501500D01*
X4040200Y-10501500D02*
G75*
G03*
X4040200Y-10351500I0J75000D01*
G01*
X4040200Y-10351500D02*
X3890200Y-10351500D01*
X3890200Y-10351500D02*
G75*
G03*
X3890200Y-10501500I0J-75000D01*
G01*
D14*
X4018233Y-10959534D02*
X4018233Y-10853467D01*
X3912166Y-10853467D01*
X3912166Y-10959534D01*
X4018233Y-10959534D01*
D10*
X3890200Y-10981500D02*
X4040200Y-10981500D01*
X4040200Y-10981500D02*
G75*
G03*
X4040200Y-10831500I0J75000D01*
G01*
X4040200Y-10831500D02*
X3890200Y-10831500D01*
X3890200Y-10831500D02*
G75*
G03*
X3890200Y-10981500I0J-75000D01*
G01*
D14*
X4548234Y-9999534D02*
X4548234Y-9893467D01*
X4442167Y-9893467D01*
X4442167Y-9999534D01*
X4548234Y-9999534D01*
D10*
X4420200Y-10021500D02*
X4570200Y-10021500D01*
X4570200Y-10021500D02*
G75*
G03*
X4570200Y-9871500I0J75000D01*
G01*
X4570200Y-9871500D02*
X4420200Y-9871500D01*
X4420200Y-9871500D02*
G75*
G03*
X4420200Y-10021500I0J-75000D01*
G01*
D14*
X4548234Y-10479534D02*
X4548234Y-10373467D01*
X4442167Y-10373467D01*
X4442167Y-10479534D01*
X4548234Y-10479534D01*
D10*
X4420200Y-10501500D02*
X4570200Y-10501500D01*
X4570200Y-10501500D02*
G75*
G03*
X4570200Y-10351500I0J75000D01*
G01*
X4570200Y-10351500D02*
X4420200Y-10351500D01*
X4420200Y-10351500D02*
G75*
G03*
X4420200Y-10501500I0J-75000D01*
G01*
D14*
X4548234Y-10959534D02*
X4548234Y-10853467D01*
X4442167Y-10853467D01*
X4442167Y-10959534D01*
X4548234Y-10959534D01*
D10*
X4420200Y-10981500D02*
X4570200Y-10981500D01*
X4570200Y-10981500D02*
G75*
G03*
X4570200Y-10831500I0J75000D01*
G01*
X4570200Y-10831500D02*
X4420200Y-10831500D01*
X4420200Y-10831500D02*
G75*
G03*
X4420200Y-10981500I0J-75000D01*
G01*
D14*
X5078234Y-9999534D02*
X5078234Y-9893467D01*
X4972167Y-9893467D01*
X4972167Y-9999534D01*
X5078234Y-9999534D01*
D10*
X4950200Y-10021500D02*
X5100200Y-10021500D01*
X5100200Y-10021500D02*
G75*
G03*
X5100200Y-9871500I0J75000D01*
G01*
X5100200Y-9871500D02*
X4950200Y-9871500D01*
X4950200Y-9871500D02*
G75*
G03*
X4950200Y-10021500I0J-75000D01*
G01*
D14*
X5078234Y-10479534D02*
X5078234Y-10373467D01*
X4972167Y-10373467D01*
X4972167Y-10479534D01*
X5078234Y-10479534D01*
D10*
X4950200Y-10501500D02*
X5100200Y-10501500D01*
X5100200Y-10501500D02*
G75*
G03*
X5100200Y-10351500I0J75000D01*
G01*
X5100200Y-10351500D02*
X4950200Y-10351500D01*
X4950200Y-10351500D02*
G75*
G03*
X4950200Y-10501500I0J-75000D01*
G01*
D14*
X5078234Y-10959534D02*
X5078234Y-10853467D01*
X4972167Y-10853467D01*
X4972167Y-10959534D01*
X5078234Y-10959534D01*
D10*
X4950200Y-10981500D02*
X5100200Y-10981500D01*
X5100200Y-10981500D02*
G75*
G03*
X5100200Y-10831500I0J75000D01*
G01*
X5100200Y-10831500D02*
X4950200Y-10831500D01*
X4950200Y-10831500D02*
G75*
G03*
X4950200Y-10981500I0J-75000D01*
G01*
D14*
X11018234Y-9999534D02*
X11018234Y-9893467D01*
X10912167Y-9893467D01*
X10912167Y-9999534D01*
X11018234Y-9999534D01*
D10*
X10890200Y-10021500D02*
X11040200Y-10021500D01*
X11040200Y-10021500D02*
G75*
G03*
X11040200Y-9871500I0J75000D01*
G01*
X11040200Y-9871500D02*
X10890200Y-9871500D01*
X10890200Y-9871500D02*
G75*
G03*
X10890200Y-10021500I0J-75000D01*
G01*
D14*
X11018234Y-10479534D02*
X11018234Y-10373467D01*
X10912167Y-10373467D01*
X10912167Y-10479534D01*
X11018234Y-10479534D01*
D10*
X10890200Y-10501500D02*
X11040200Y-10501500D01*
X11040200Y-10501500D02*
G75*
G03*
X11040200Y-10351500I0J75000D01*
G01*
X11040200Y-10351500D02*
X10890200Y-10351500D01*
X10890200Y-10351500D02*
G75*
G03*
X10890200Y-10501500I0J-75000D01*
G01*
D14*
X11018234Y-10959534D02*
X11018234Y-10853467D01*
X10912167Y-10853467D01*
X10912167Y-10959534D01*
X11018234Y-10959534D01*
D10*
X10890200Y-10981500D02*
X11040200Y-10981500D01*
X11040200Y-10981500D02*
G75*
G03*
X11040200Y-10831500I0J75000D01*
G01*
X11040200Y-10831500D02*
X10890200Y-10831500D01*
X10890200Y-10831500D02*
G75*
G03*
X10890200Y-10981500I0J-75000D01*
G01*
D14*
X11548233Y-9999534D02*
X11548233Y-9893467D01*
X11442166Y-9893467D01*
X11442166Y-9999534D01*
X11548233Y-9999534D01*
D10*
X11420200Y-10021500D02*
X11570200Y-10021500D01*
X11570200Y-10021500D02*
G75*
G03*
X11570200Y-9871500I0J75000D01*
G01*
X11570200Y-9871500D02*
X11420200Y-9871500D01*
X11420200Y-9871500D02*
G75*
G03*
X11420200Y-10021500I0J-75000D01*
G01*
D14*
X11548233Y-10479534D02*
X11548233Y-10373467D01*
X11442166Y-10373467D01*
X11442166Y-10479534D01*
X11548233Y-10479534D01*
D10*
X11420200Y-10501500D02*
X11570200Y-10501500D01*
X11570200Y-10501500D02*
G75*
G03*
X11570200Y-10351500I0J75000D01*
G01*
X11570200Y-10351500D02*
X11420200Y-10351500D01*
X11420200Y-10351500D02*
G75*
G03*
X11420200Y-10501500I0J-75000D01*
G01*
D14*
X11548233Y-10959534D02*
X11548233Y-10853467D01*
X11442166Y-10853467D01*
X11442166Y-10959534D01*
X11548233Y-10959534D01*
D10*
X11420200Y-10981500D02*
X11570200Y-10981500D01*
X11570200Y-10981500D02*
G75*
G03*
X11570200Y-10831500I0J75000D01*
G01*
X11570200Y-10831500D02*
X11420200Y-10831500D01*
X11420200Y-10831500D02*
G75*
G03*
X11420200Y-10981500I0J-75000D01*
G01*
D14*
X12078233Y-9999534D02*
X12078233Y-9893467D01*
X11972166Y-9893467D01*
X11972166Y-9999534D01*
X12078233Y-9999534D01*
D10*
X11950200Y-10021500D02*
X12100200Y-10021500D01*
X12100200Y-10021500D02*
G75*
G03*
X12100200Y-9871500I0J75000D01*
G01*
X12100200Y-9871500D02*
X11950200Y-9871500D01*
X11950200Y-9871500D02*
G75*
G03*
X11950200Y-10021500I0J-75000D01*
G01*
D14*
X12078233Y-10479534D02*
X12078233Y-10373467D01*
X11972166Y-10373467D01*
X11972166Y-10479534D01*
X12078233Y-10479534D01*
D10*
X11950200Y-10501500D02*
X12100200Y-10501500D01*
X12100200Y-10501500D02*
G75*
G03*
X12100200Y-10351500I0J75000D01*
G01*
X12100200Y-10351500D02*
X11950200Y-10351500D01*
X11950200Y-10351500D02*
G75*
G03*
X11950200Y-10501500I0J-75000D01*
G01*
D14*
X12078233Y-10959534D02*
X12078233Y-10853467D01*
X11972166Y-10853467D01*
X11972166Y-10959534D01*
X12078233Y-10959534D01*
D10*
X11950200Y-10981500D02*
X12100200Y-10981500D01*
X12100200Y-10981500D02*
G75*
G03*
X12100200Y-10831500I0J75000D01*
G01*
X12100200Y-10831500D02*
X11950200Y-10831500D01*
X11950200Y-10831500D02*
G75*
G03*
X11950200Y-10981500I0J-75000D01*
G01*
D14*
X18018234Y-9999534D02*
X18018234Y-9893467D01*
X17912167Y-9893467D01*
X17912167Y-9999534D01*
X18018234Y-9999534D01*
D10*
X17890200Y-10021500D02*
X18040200Y-10021500D01*
X18040200Y-10021500D02*
G75*
G03*
X18040200Y-9871500I0J75000D01*
G01*
X18040200Y-9871500D02*
X17890200Y-9871500D01*
X17890200Y-9871500D02*
G75*
G03*
X17890200Y-10021500I0J-75000D01*
G01*
D14*
X18018234Y-10479534D02*
X18018234Y-10373467D01*
X17912167Y-10373467D01*
X17912167Y-10479534D01*
X18018234Y-10479534D01*
D10*
X17890200Y-10501500D02*
X18040200Y-10501500D01*
X18040200Y-10501500D02*
G75*
G03*
X18040200Y-10351500I0J75000D01*
G01*
X18040200Y-10351500D02*
X17890200Y-10351500D01*
X17890200Y-10351500D02*
G75*
G03*
X17890200Y-10501500I0J-75000D01*
G01*
D14*
X18018234Y-10959534D02*
X18018234Y-10853467D01*
X17912167Y-10853467D01*
X17912167Y-10959534D01*
X18018234Y-10959534D01*
D10*
X17890200Y-10981500D02*
X18040200Y-10981500D01*
X18040200Y-10981500D02*
G75*
G03*
X18040200Y-10831500I0J75000D01*
G01*
X18040200Y-10831500D02*
X17890200Y-10831500D01*
X17890200Y-10831500D02*
G75*
G03*
X17890200Y-10981500I0J-75000D01*
G01*
D14*
X18548234Y-9999534D02*
X18548234Y-9893467D01*
X18442167Y-9893467D01*
X18442167Y-9999534D01*
X18548234Y-9999534D01*
D10*
X18420200Y-10021500D02*
X18570200Y-10021500D01*
X18570200Y-10021500D02*
G75*
G03*
X18570200Y-9871500I0J75000D01*
G01*
X18570200Y-9871500D02*
X18420200Y-9871500D01*
X18420200Y-9871500D02*
G75*
G03*
X18420200Y-10021500I0J-75000D01*
G01*
D14*
X18548234Y-10479534D02*
X18548234Y-10373467D01*
X18442167Y-10373467D01*
X18442167Y-10479534D01*
X18548234Y-10479534D01*
D10*
X18420200Y-10501500D02*
X18570200Y-10501500D01*
X18570200Y-10501500D02*
G75*
G03*
X18570200Y-10351500I0J75000D01*
G01*
X18570200Y-10351500D02*
X18420200Y-10351500D01*
X18420200Y-10351500D02*
G75*
G03*
X18420200Y-10501500I0J-75000D01*
G01*
D14*
X18548234Y-10959534D02*
X18548234Y-10853467D01*
X18442167Y-10853467D01*
X18442167Y-10959534D01*
X18548234Y-10959534D01*
D10*
X18420200Y-10981500D02*
X18570200Y-10981500D01*
X18570200Y-10981500D02*
G75*
G03*
X18570200Y-10831500I0J75000D01*
G01*
X18570200Y-10831500D02*
X18420200Y-10831500D01*
X18420200Y-10831500D02*
G75*
G03*
X18420200Y-10981500I0J-75000D01*
G01*
D14*
X19078234Y-9999534D02*
X19078234Y-9893467D01*
X18972167Y-9893467D01*
X18972167Y-9999534D01*
X19078234Y-9999534D01*
D10*
X18950200Y-10021500D02*
X19100200Y-10021500D01*
X19100200Y-10021500D02*
G75*
G03*
X19100200Y-9871500I0J75000D01*
G01*
X19100200Y-9871500D02*
X18950200Y-9871500D01*
X18950200Y-9871500D02*
G75*
G03*
X18950200Y-10021500I0J-75000D01*
G01*
D14*
X19078234Y-10479534D02*
X19078234Y-10373467D01*
X18972167Y-10373467D01*
X18972167Y-10479534D01*
X19078234Y-10479534D01*
D10*
X18950200Y-10501500D02*
X19100200Y-10501500D01*
X19100200Y-10501500D02*
G75*
G03*
X19100200Y-10351500I0J75000D01*
G01*
X19100200Y-10351500D02*
X18950200Y-10351500D01*
X18950200Y-10351500D02*
G75*
G03*
X18950200Y-10501500I0J-75000D01*
G01*
D14*
X19078234Y-10959534D02*
X19078234Y-10853467D01*
X18972167Y-10853467D01*
X18972167Y-10959534D01*
X19078234Y-10959534D01*
D10*
X18950200Y-10981500D02*
X19100200Y-10981500D01*
X19100200Y-10981500D02*
G75*
G03*
X19100200Y-10831500I0J75000D01*
G01*
X19100200Y-10831500D02*
X18950200Y-10831500D01*
X18950200Y-10831500D02*
G75*
G03*
X18950200Y-10981500I0J-75000D01*
G01*
D14*
X25018233Y-9999534D02*
X25018233Y-9893467D01*
X24912166Y-9893467D01*
X24912166Y-9999534D01*
X25018233Y-9999534D01*
D10*
X24890200Y-10021500D02*
X25040200Y-10021500D01*
X25040200Y-10021500D02*
G75*
G03*
X25040200Y-9871500I0J75000D01*
G01*
X25040200Y-9871500D02*
X24890200Y-9871500D01*
X24890200Y-9871500D02*
G75*
G03*
X24890200Y-10021500I0J-75000D01*
G01*
D14*
X25018233Y-10479534D02*
X25018233Y-10373467D01*
X24912166Y-10373467D01*
X24912166Y-10479534D01*
X25018233Y-10479534D01*
D10*
X24890200Y-10501500D02*
X25040200Y-10501500D01*
X25040200Y-10501500D02*
G75*
G03*
X25040200Y-10351500I0J75000D01*
G01*
X25040200Y-10351500D02*
X24890200Y-10351500D01*
X24890200Y-10351500D02*
G75*
G03*
X24890200Y-10501500I0J-75000D01*
G01*
D14*
X25018233Y-10959534D02*
X25018233Y-10853467D01*
X24912166Y-10853467D01*
X24912166Y-10959534D01*
X25018233Y-10959534D01*
D10*
X24890200Y-10981500D02*
X25040200Y-10981500D01*
X25040200Y-10981500D02*
G75*
G03*
X25040200Y-10831500I0J75000D01*
G01*
X25040200Y-10831500D02*
X24890200Y-10831500D01*
X24890200Y-10831500D02*
G75*
G03*
X24890200Y-10981500I0J-75000D01*
G01*
D14*
X25548233Y-9999534D02*
X25548233Y-9893467D01*
X25442166Y-9893467D01*
X25442166Y-9999534D01*
X25548233Y-9999534D01*
D10*
X25420200Y-10021500D02*
X25570200Y-10021500D01*
X25570200Y-10021500D02*
G75*
G03*
X25570200Y-9871500I0J75000D01*
G01*
X25570200Y-9871500D02*
X25420200Y-9871500D01*
X25420200Y-9871500D02*
G75*
G03*
X25420200Y-10021500I0J-75000D01*
G01*
D14*
X25548233Y-10479534D02*
X25548233Y-10373467D01*
X25442166Y-10373467D01*
X25442166Y-10479534D01*
X25548233Y-10479534D01*
D10*
X25420200Y-10501500D02*
X25570200Y-10501500D01*
X25570200Y-10501500D02*
G75*
G03*
X25570200Y-10351500I0J75000D01*
G01*
X25570200Y-10351500D02*
X25420200Y-10351500D01*
X25420200Y-10351500D02*
G75*
G03*
X25420200Y-10501500I0J-75000D01*
G01*
D14*
X25548233Y-10959534D02*
X25548233Y-10853467D01*
X25442166Y-10853467D01*
X25442166Y-10959534D01*
X25548233Y-10959534D01*
D10*
X25420200Y-10981500D02*
X25570200Y-10981500D01*
X25570200Y-10981500D02*
G75*
G03*
X25570200Y-10831500I0J75000D01*
G01*
X25570200Y-10831500D02*
X25420200Y-10831500D01*
X25420200Y-10831500D02*
G75*
G03*
X25420200Y-10981500I0J-75000D01*
G01*
D14*
X26078233Y-9999534D02*
X26078233Y-9893467D01*
X25972166Y-9893467D01*
X25972166Y-9999534D01*
X26078233Y-9999534D01*
D10*
X25950200Y-10021500D02*
X26100200Y-10021500D01*
X26100200Y-10021500D02*
G75*
G03*
X26100200Y-9871500I0J75000D01*
G01*
X26100200Y-9871500D02*
X25950200Y-9871500D01*
X25950200Y-9871500D02*
G75*
G03*
X25950200Y-10021500I0J-75000D01*
G01*
D14*
X26078233Y-10479534D02*
X26078233Y-10373467D01*
X25972166Y-10373467D01*
X25972166Y-10479534D01*
X26078233Y-10479534D01*
D10*
X25950200Y-10501500D02*
X26100200Y-10501500D01*
X26100200Y-10501500D02*
G75*
G03*
X26100200Y-10351500I0J75000D01*
G01*
X26100200Y-10351500D02*
X25950200Y-10351500D01*
X25950200Y-10351500D02*
G75*
G03*
X25950200Y-10501500I0J-75000D01*
G01*
D14*
X26078233Y-10959534D02*
X26078233Y-10853467D01*
X25972166Y-10853467D01*
X25972166Y-10959534D01*
X26078233Y-10959534D01*
D10*
X25950200Y-10981500D02*
X26100200Y-10981500D01*
X26100200Y-10981500D02*
G75*
G03*
X26100200Y-10831500I0J75000D01*
G01*
X26100200Y-10831500D02*
X25950200Y-10831500D01*
X25950200Y-10831500D02*
G75*
G03*
X25950200Y-10981500I0J-75000D01*
G01*
X3492819Y-11751524D02*
X3492819Y-11551524D01*
X3492819Y-11551524D02*
X3540438Y-11551524D01*
X3540438Y-11551524D02*
X3569009Y-11561048D01*
X3569009Y-11561048D02*
X3588057Y-11580095D01*
X3588057Y-11580095D02*
X3597581Y-11599143D01*
X3597581Y-11599143D02*
X3607105Y-11637238D01*
X3607105Y-11637238D02*
X3607105Y-11665809D01*
X3607105Y-11665809D02*
X3597581Y-11703905D01*
X3597581Y-11703905D02*
X3588057Y-11722952D01*
X3588057Y-11722952D02*
X3569009Y-11742000D01*
X3569009Y-11742000D02*
X3540438Y-11751524D01*
X3540438Y-11751524D02*
X3492819Y-11751524D01*
X3692819Y-11751524D02*
X3692819Y-11618190D01*
X3692819Y-11656286D02*
X3702343Y-11637238D01*
X3702343Y-11637238D02*
X3711867Y-11627714D01*
X3711867Y-11627714D02*
X3730914Y-11618190D01*
X3730914Y-11618190D02*
X3749962Y-11618190D01*
X3816628Y-11751524D02*
X3816628Y-11618190D01*
X3816628Y-11551524D02*
X3807105Y-11561048D01*
X3807105Y-11561048D02*
X3816628Y-11570571D01*
X3816628Y-11570571D02*
X3826152Y-11561048D01*
X3826152Y-11561048D02*
X3816628Y-11551524D01*
X3816628Y-11551524D02*
X3816628Y-11570571D01*
X3940438Y-11751524D02*
X3921390Y-11742000D01*
X3921390Y-11742000D02*
X3911867Y-11722952D01*
X3911867Y-11722952D02*
X3911867Y-11551524D01*
X4045200Y-11751524D02*
X4026152Y-11742000D01*
X4026152Y-11742000D02*
X4016628Y-11722952D01*
X4016628Y-11722952D02*
X4016628Y-11551524D01*
X4273771Y-11751524D02*
X4273771Y-11551524D01*
X4273771Y-11551524D02*
X4340438Y-11694381D01*
X4340438Y-11694381D02*
X4407105Y-11551524D01*
X4407105Y-11551524D02*
X4407105Y-11751524D01*
X4588057Y-11751524D02*
X4588057Y-11646762D01*
X4588057Y-11646762D02*
X4578533Y-11627714D01*
X4578533Y-11627714D02*
X4559486Y-11618190D01*
X4559486Y-11618190D02*
X4521390Y-11618190D01*
X4521390Y-11618190D02*
X4502343Y-11627714D01*
X4588057Y-11742000D02*
X4569010Y-11751524D01*
X4569010Y-11751524D02*
X4521390Y-11751524D01*
X4521390Y-11751524D02*
X4502343Y-11742000D01*
X4502343Y-11742000D02*
X4492819Y-11722952D01*
X4492819Y-11722952D02*
X4492819Y-11703905D01*
X4492819Y-11703905D02*
X4502343Y-11684857D01*
X4502343Y-11684857D02*
X4521390Y-11675333D01*
X4521390Y-11675333D02*
X4569010Y-11675333D01*
X4569010Y-11675333D02*
X4588057Y-11665809D01*
X4683295Y-11618190D02*
X4683295Y-11818190D01*
X4683295Y-11627714D02*
X4702343Y-11618190D01*
X4702343Y-11618190D02*
X4740438Y-11618190D01*
X4740438Y-11618190D02*
X4759486Y-11627714D01*
X4759486Y-11627714D02*
X4769010Y-11637238D01*
X4769010Y-11637238D02*
X4778533Y-11656286D01*
X4778533Y-11656286D02*
X4778533Y-11713428D01*
X4778533Y-11713428D02*
X4769010Y-11732476D01*
X4769010Y-11732476D02*
X4759486Y-11742000D01*
X4759486Y-11742000D02*
X4740438Y-11751524D01*
X4740438Y-11751524D02*
X4702343Y-11751524D01*
X4702343Y-11751524D02*
X4683295Y-11742000D01*
X4864248Y-11732476D02*
X4873771Y-11742000D01*
X4873771Y-11742000D02*
X4864248Y-11751524D01*
X4864248Y-11751524D02*
X4854724Y-11742000D01*
X4854724Y-11742000D02*
X4864248Y-11732476D01*
X4864248Y-11732476D02*
X4864248Y-11751524D01*
X4864248Y-11627714D02*
X4873771Y-11637238D01*
X4873771Y-11637238D02*
X4864248Y-11646762D01*
X4864248Y-11646762D02*
X4854724Y-11637238D01*
X4854724Y-11637238D02*
X4864248Y-11627714D01*
X4864248Y-11627714D02*
X4864248Y-11646762D01*
D11*
X3205200Y-12059000D02*
X3245200Y-12099000D01*
X3245200Y-12059000D02*
X3205200Y-12099000D01*
D10*
X3530914Y-11971524D02*
X3549962Y-11971524D01*
X3549962Y-11971524D02*
X3569009Y-11981048D01*
X3569009Y-11981048D02*
X3578533Y-11990571D01*
X3578533Y-11990571D02*
X3588057Y-12009619D01*
X3588057Y-12009619D02*
X3597581Y-12047714D01*
X3597581Y-12047714D02*
X3597581Y-12095333D01*
X3597581Y-12095333D02*
X3588057Y-12133428D01*
X3588057Y-12133428D02*
X3578533Y-12152476D01*
X3578533Y-12152476D02*
X3569009Y-12162000D01*
X3569009Y-12162000D02*
X3549962Y-12171524D01*
X3549962Y-12171524D02*
X3530914Y-12171524D01*
X3530914Y-12171524D02*
X3511867Y-12162000D01*
X3511867Y-12162000D02*
X3502343Y-12152476D01*
X3502343Y-12152476D02*
X3492819Y-12133428D01*
X3492819Y-12133428D02*
X3483295Y-12095333D01*
X3483295Y-12095333D02*
X3483295Y-12047714D01*
X3483295Y-12047714D02*
X3492819Y-12009619D01*
X3492819Y-12009619D02*
X3502343Y-11990571D01*
X3502343Y-11990571D02*
X3511867Y-11981048D01*
X3511867Y-11981048D02*
X3530914Y-11971524D01*
X3683295Y-12152476D02*
X3692819Y-12162000D01*
X3692819Y-12162000D02*
X3683295Y-12171524D01*
X3683295Y-12171524D02*
X3673771Y-12162000D01*
X3673771Y-12162000D02*
X3683295Y-12152476D01*
X3683295Y-12152476D02*
X3683295Y-12171524D01*
X3864248Y-12038190D02*
X3864248Y-12171524D01*
X3816628Y-11962000D02*
X3769009Y-12104857D01*
X3769009Y-12104857D02*
X3892819Y-12104857D01*
X4007105Y-11971524D02*
X4026152Y-11971524D01*
X4026152Y-11971524D02*
X4045200Y-11981048D01*
X4045200Y-11981048D02*
X4054724Y-11990571D01*
X4054724Y-11990571D02*
X4064248Y-12009619D01*
X4064248Y-12009619D02*
X4073771Y-12047714D01*
X4073771Y-12047714D02*
X4073771Y-12095333D01*
X4073771Y-12095333D02*
X4064248Y-12133428D01*
X4064248Y-12133428D02*
X4054724Y-12152476D01*
X4054724Y-12152476D02*
X4045200Y-12162000D01*
X4045200Y-12162000D02*
X4026152Y-12171524D01*
X4026152Y-12171524D02*
X4007105Y-12171524D01*
X4007105Y-12171524D02*
X3988057Y-12162000D01*
X3988057Y-12162000D02*
X3978533Y-12152476D01*
X3978533Y-12152476D02*
X3969009Y-12133428D01*
X3969009Y-12133428D02*
X3959486Y-12095333D01*
X3959486Y-12095333D02*
X3959486Y-12047714D01*
X3959486Y-12047714D02*
X3969009Y-12009619D01*
X3969009Y-12009619D02*
X3978533Y-11990571D01*
X3978533Y-11990571D02*
X3988057Y-11981048D01*
X3988057Y-11981048D02*
X4007105Y-11971524D01*
X4197581Y-11971524D02*
X4216629Y-11971524D01*
X4216629Y-11971524D02*
X4235676Y-11981048D01*
X4235676Y-11981048D02*
X4245200Y-11990571D01*
X4245200Y-11990571D02*
X4254724Y-12009619D01*
X4254724Y-12009619D02*
X4264248Y-12047714D01*
X4264248Y-12047714D02*
X4264248Y-12095333D01*
X4264248Y-12095333D02*
X4254724Y-12133428D01*
X4254724Y-12133428D02*
X4245200Y-12152476D01*
X4245200Y-12152476D02*
X4235676Y-12162000D01*
X4235676Y-12162000D02*
X4216629Y-12171524D01*
X4216629Y-12171524D02*
X4197581Y-12171524D01*
X4197581Y-12171524D02*
X4178533Y-12162000D01*
X4178533Y-12162000D02*
X4169009Y-12152476D01*
X4169009Y-12152476D02*
X4159486Y-12133428D01*
X4159486Y-12133428D02*
X4149962Y-12095333D01*
X4149962Y-12095333D02*
X4149962Y-12047714D01*
X4149962Y-12047714D02*
X4159486Y-12009619D01*
X4159486Y-12009619D02*
X4169009Y-11990571D01*
X4169009Y-11990571D02*
X4178533Y-11981048D01*
X4178533Y-11981048D02*
X4197581Y-11971524D01*
X4349962Y-12171524D02*
X4349962Y-12038190D01*
X4349962Y-12057238D02*
X4359486Y-12047714D01*
X4359486Y-12047714D02*
X4378533Y-12038190D01*
X4378533Y-12038190D02*
X4407105Y-12038190D01*
X4407105Y-12038190D02*
X4426152Y-12047714D01*
X4426152Y-12047714D02*
X4435676Y-12066762D01*
X4435676Y-12066762D02*
X4435676Y-12171524D01*
X4435676Y-12066762D02*
X4445200Y-12047714D01*
X4445200Y-12047714D02*
X4464248Y-12038190D01*
X4464248Y-12038190D02*
X4492819Y-12038190D01*
X4492819Y-12038190D02*
X4511867Y-12047714D01*
X4511867Y-12047714D02*
X4521391Y-12066762D01*
X4521391Y-12066762D02*
X4521391Y-12171524D01*
X4616629Y-12171524D02*
X4616629Y-12038190D01*
X4616629Y-12057238D02*
X4626152Y-12047714D01*
X4626152Y-12047714D02*
X4645200Y-12038190D01*
X4645200Y-12038190D02*
X4673772Y-12038190D01*
X4673772Y-12038190D02*
X4692819Y-12047714D01*
X4692819Y-12047714D02*
X4702343Y-12066762D01*
X4702343Y-12066762D02*
X4702343Y-12171524D01*
X4702343Y-12066762D02*
X4711867Y-12047714D01*
X4711867Y-12047714D02*
X4730914Y-12038190D01*
X4730914Y-12038190D02*
X4759486Y-12038190D01*
X4759486Y-12038190D02*
X4778533Y-12047714D01*
X4778533Y-12047714D02*
X4788057Y-12066762D01*
X4788057Y-12066762D02*
X4788057Y-12171524D01*
X5178533Y-11962000D02*
X5007105Y-12219143D01*
X5435676Y-11971524D02*
X5454724Y-11971524D01*
X5454724Y-11971524D02*
X5473772Y-11981048D01*
X5473772Y-11981048D02*
X5483295Y-11990571D01*
X5483295Y-11990571D02*
X5492819Y-12009619D01*
X5492819Y-12009619D02*
X5502343Y-12047714D01*
X5502343Y-12047714D02*
X5502343Y-12095333D01*
X5502343Y-12095333D02*
X5492819Y-12133428D01*
X5492819Y-12133428D02*
X5483295Y-12152476D01*
X5483295Y-12152476D02*
X5473772Y-12162000D01*
X5473772Y-12162000D02*
X5454724Y-12171524D01*
X5454724Y-12171524D02*
X5435676Y-12171524D01*
X5435676Y-12171524D02*
X5416629Y-12162000D01*
X5416629Y-12162000D02*
X5407105Y-12152476D01*
X5407105Y-12152476D02*
X5397581Y-12133428D01*
X5397581Y-12133428D02*
X5388057Y-12095333D01*
X5388057Y-12095333D02*
X5388057Y-12047714D01*
X5388057Y-12047714D02*
X5397581Y-12009619D01*
X5397581Y-12009619D02*
X5407105Y-11990571D01*
X5407105Y-11990571D02*
X5416629Y-11981048D01*
X5416629Y-11981048D02*
X5435676Y-11971524D01*
X5588057Y-12152476D02*
X5597581Y-12162000D01*
X5597581Y-12162000D02*
X5588057Y-12171524D01*
X5588057Y-12171524D02*
X5578534Y-12162000D01*
X5578534Y-12162000D02*
X5588057Y-12152476D01*
X5588057Y-12152476D02*
X5588057Y-12171524D01*
X5721391Y-11971524D02*
X5740438Y-11971524D01*
X5740438Y-11971524D02*
X5759486Y-11981048D01*
X5759486Y-11981048D02*
X5769010Y-11990571D01*
X5769010Y-11990571D02*
X5778533Y-12009619D01*
X5778533Y-12009619D02*
X5788057Y-12047714D01*
X5788057Y-12047714D02*
X5788057Y-12095333D01*
X5788057Y-12095333D02*
X5778533Y-12133428D01*
X5778533Y-12133428D02*
X5769010Y-12152476D01*
X5769010Y-12152476D02*
X5759486Y-12162000D01*
X5759486Y-12162000D02*
X5740438Y-12171524D01*
X5740438Y-12171524D02*
X5721391Y-12171524D01*
X5721391Y-12171524D02*
X5702343Y-12162000D01*
X5702343Y-12162000D02*
X5692819Y-12152476D01*
X5692819Y-12152476D02*
X5683295Y-12133428D01*
X5683295Y-12133428D02*
X5673772Y-12095333D01*
X5673772Y-12095333D02*
X5673772Y-12047714D01*
X5673772Y-12047714D02*
X5683295Y-12009619D01*
X5683295Y-12009619D02*
X5692819Y-11990571D01*
X5692819Y-11990571D02*
X5702343Y-11981048D01*
X5702343Y-11981048D02*
X5721391Y-11971524D01*
X5978533Y-12171524D02*
X5864248Y-12171524D01*
X5921391Y-12171524D02*
X5921391Y-11971524D01*
X5921391Y-11971524D02*
X5902343Y-12000095D01*
X5902343Y-12000095D02*
X5883295Y-12019143D01*
X5883295Y-12019143D02*
X5864248Y-12028667D01*
X6159486Y-11971524D02*
X6064248Y-11971524D01*
X6064248Y-11971524D02*
X6054724Y-12066762D01*
X6054724Y-12066762D02*
X6064248Y-12057238D01*
X6064248Y-12057238D02*
X6083295Y-12047714D01*
X6083295Y-12047714D02*
X6130914Y-12047714D01*
X6130914Y-12047714D02*
X6149962Y-12057238D01*
X6149962Y-12057238D02*
X6159486Y-12066762D01*
X6159486Y-12066762D02*
X6169010Y-12085809D01*
X6169010Y-12085809D02*
X6169010Y-12133428D01*
X6169010Y-12133428D02*
X6159486Y-12152476D01*
X6159486Y-12152476D02*
X6149962Y-12162000D01*
X6149962Y-12162000D02*
X6130914Y-12171524D01*
X6130914Y-12171524D02*
X6083295Y-12171524D01*
X6083295Y-12171524D02*
X6064248Y-12162000D01*
X6064248Y-12162000D02*
X6054724Y-12152476D01*
X6235676Y-11971524D02*
X6369010Y-11971524D01*
X6369010Y-11971524D02*
X6283295Y-12171524D01*
X6435676Y-11971524D02*
X6435676Y-12009619D01*
X6511867Y-11971524D02*
X6511867Y-12009619D01*
X6807105Y-12247714D02*
X6797581Y-12238190D01*
X6797581Y-12238190D02*
X6778534Y-12209619D01*
X6778534Y-12209619D02*
X6769010Y-12190571D01*
X6769010Y-12190571D02*
X6759486Y-12162000D01*
X6759486Y-12162000D02*
X6749962Y-12114381D01*
X6749962Y-12114381D02*
X6749962Y-12076286D01*
X6749962Y-12076286D02*
X6759486Y-12028667D01*
X6759486Y-12028667D02*
X6769010Y-12000095D01*
X6769010Y-12000095D02*
X6778534Y-11981048D01*
X6778534Y-11981048D02*
X6797581Y-11952476D01*
X6797581Y-11952476D02*
X6807105Y-11942952D01*
X6969010Y-12038190D02*
X6969010Y-12171524D01*
X6921391Y-11962000D02*
X6873772Y-12104857D01*
X6873772Y-12104857D02*
X6997581Y-12104857D01*
X7159486Y-11971524D02*
X7121391Y-11971524D01*
X7121391Y-11971524D02*
X7102343Y-11981048D01*
X7102343Y-11981048D02*
X7092819Y-11990571D01*
X7092819Y-11990571D02*
X7073772Y-12019143D01*
X7073772Y-12019143D02*
X7064248Y-12057238D01*
X7064248Y-12057238D02*
X7064248Y-12133428D01*
X7064248Y-12133428D02*
X7073772Y-12152476D01*
X7073772Y-12152476D02*
X7083295Y-12162000D01*
X7083295Y-12162000D02*
X7102343Y-12171524D01*
X7102343Y-12171524D02*
X7140438Y-12171524D01*
X7140438Y-12171524D02*
X7159486Y-12162000D01*
X7159486Y-12162000D02*
X7169010Y-12152476D01*
X7169010Y-12152476D02*
X7178534Y-12133428D01*
X7178534Y-12133428D02*
X7178534Y-12085809D01*
X7178534Y-12085809D02*
X7169010Y-12066762D01*
X7169010Y-12066762D02*
X7159486Y-12057238D01*
X7159486Y-12057238D02*
X7140438Y-12047714D01*
X7140438Y-12047714D02*
X7102343Y-12047714D01*
X7102343Y-12047714D02*
X7083295Y-12057238D01*
X7083295Y-12057238D02*
X7073772Y-12066762D01*
X7073772Y-12066762D02*
X7064248Y-12085809D01*
X7416629Y-12171524D02*
X7416629Y-11971524D01*
X7502343Y-12171524D02*
X7502343Y-12066762D01*
X7502343Y-12066762D02*
X7492819Y-12047714D01*
X7492819Y-12047714D02*
X7473772Y-12038190D01*
X7473772Y-12038190D02*
X7445200Y-12038190D01*
X7445200Y-12038190D02*
X7426153Y-12047714D01*
X7426153Y-12047714D02*
X7416629Y-12057238D01*
X7626153Y-12171524D02*
X7607105Y-12162000D01*
X7607105Y-12162000D02*
X7597581Y-12152476D01*
X7597581Y-12152476D02*
X7588057Y-12133428D01*
X7588057Y-12133428D02*
X7588057Y-12076286D01*
X7588057Y-12076286D02*
X7597581Y-12057238D01*
X7597581Y-12057238D02*
X7607105Y-12047714D01*
X7607105Y-12047714D02*
X7626153Y-12038190D01*
X7626153Y-12038190D02*
X7654724Y-12038190D01*
X7654724Y-12038190D02*
X7673772Y-12047714D01*
X7673772Y-12047714D02*
X7683296Y-12057238D01*
X7683296Y-12057238D02*
X7692819Y-12076286D01*
X7692819Y-12076286D02*
X7692819Y-12133428D01*
X7692819Y-12133428D02*
X7683296Y-12152476D01*
X7683296Y-12152476D02*
X7673772Y-12162000D01*
X7673772Y-12162000D02*
X7654724Y-12171524D01*
X7654724Y-12171524D02*
X7626153Y-12171524D01*
X7807105Y-12171524D02*
X7788057Y-12162000D01*
X7788057Y-12162000D02*
X7778534Y-12142952D01*
X7778534Y-12142952D02*
X7778534Y-11971524D01*
X7959486Y-12162000D02*
X7940438Y-12171524D01*
X7940438Y-12171524D02*
X7902343Y-12171524D01*
X7902343Y-12171524D02*
X7883296Y-12162000D01*
X7883296Y-12162000D02*
X7873772Y-12142952D01*
X7873772Y-12142952D02*
X7873772Y-12066762D01*
X7873772Y-12066762D02*
X7883296Y-12047714D01*
X7883296Y-12047714D02*
X7902343Y-12038190D01*
X7902343Y-12038190D02*
X7940438Y-12038190D01*
X7940438Y-12038190D02*
X7959486Y-12047714D01*
X7959486Y-12047714D02*
X7969010Y-12066762D01*
X7969010Y-12066762D02*
X7969010Y-12085809D01*
X7969010Y-12085809D02*
X7873772Y-12104857D01*
X8045200Y-12162000D02*
X8064248Y-12171524D01*
X8064248Y-12171524D02*
X8102343Y-12171524D01*
X8102343Y-12171524D02*
X8121391Y-12162000D01*
X8121391Y-12162000D02*
X8130915Y-12142952D01*
X8130915Y-12142952D02*
X8130915Y-12133428D01*
X8130915Y-12133428D02*
X8121391Y-12114381D01*
X8121391Y-12114381D02*
X8102343Y-12104857D01*
X8102343Y-12104857D02*
X8073772Y-12104857D01*
X8073772Y-12104857D02*
X8054724Y-12095333D01*
X8054724Y-12095333D02*
X8045200Y-12076286D01*
X8045200Y-12076286D02*
X8045200Y-12066762D01*
X8045200Y-12066762D02*
X8054724Y-12047714D01*
X8054724Y-12047714D02*
X8073772Y-12038190D01*
X8073772Y-12038190D02*
X8102343Y-12038190D01*
X8102343Y-12038190D02*
X8121391Y-12047714D01*
X8197581Y-12247714D02*
X8207105Y-12238190D01*
X8207105Y-12238190D02*
X8226153Y-12209619D01*
X8226153Y-12209619D02*
X8235677Y-12190571D01*
X8235677Y-12190571D02*
X8245200Y-12162000D01*
X8245200Y-12162000D02*
X8254724Y-12114381D01*
X8254724Y-12114381D02*
X8254724Y-12076286D01*
X8254724Y-12076286D02*
X8245200Y-12028667D01*
X8245200Y-12028667D02*
X8235677Y-12000095D01*
X8235677Y-12000095D02*
X8226153Y-11981048D01*
X8226153Y-11981048D02*
X8207105Y-11952476D01*
X8207105Y-11952476D02*
X8197581Y-11942952D01*
D12*
X3245200Y-12343000D02*
G75*
G03*
X3245200Y-12343000I-45000J0D01*
G01*
D10*
X3530914Y-12235524D02*
X3549962Y-12235524D01*
X3549962Y-12235524D02*
X3569009Y-12245048D01*
X3569009Y-12245048D02*
X3578533Y-12254571D01*
X3578533Y-12254571D02*
X3588057Y-12273619D01*
X3588057Y-12273619D02*
X3597581Y-12311714D01*
X3597581Y-12311714D02*
X3597581Y-12359333D01*
X3597581Y-12359333D02*
X3588057Y-12397428D01*
X3588057Y-12397428D02*
X3578533Y-12416476D01*
X3578533Y-12416476D02*
X3569009Y-12426000D01*
X3569009Y-12426000D02*
X3549962Y-12435524D01*
X3549962Y-12435524D02*
X3530914Y-12435524D01*
X3530914Y-12435524D02*
X3511867Y-12426000D01*
X3511867Y-12426000D02*
X3502343Y-12416476D01*
X3502343Y-12416476D02*
X3492819Y-12397428D01*
X3492819Y-12397428D02*
X3483295Y-12359333D01*
X3483295Y-12359333D02*
X3483295Y-12311714D01*
X3483295Y-12311714D02*
X3492819Y-12273619D01*
X3492819Y-12273619D02*
X3502343Y-12254571D01*
X3502343Y-12254571D02*
X3511867Y-12245048D01*
X3511867Y-12245048D02*
X3530914Y-12235524D01*
X3683295Y-12416476D02*
X3692819Y-12426000D01*
X3692819Y-12426000D02*
X3683295Y-12435524D01*
X3683295Y-12435524D02*
X3673771Y-12426000D01*
X3673771Y-12426000D02*
X3683295Y-12416476D01*
X3683295Y-12416476D02*
X3683295Y-12435524D01*
X3788057Y-12435524D02*
X3826152Y-12435524D01*
X3826152Y-12435524D02*
X3845200Y-12426000D01*
X3845200Y-12426000D02*
X3854724Y-12416476D01*
X3854724Y-12416476D02*
X3873771Y-12387905D01*
X3873771Y-12387905D02*
X3883295Y-12349809D01*
X3883295Y-12349809D02*
X3883295Y-12273619D01*
X3883295Y-12273619D02*
X3873771Y-12254571D01*
X3873771Y-12254571D02*
X3864248Y-12245048D01*
X3864248Y-12245048D02*
X3845200Y-12235524D01*
X3845200Y-12235524D02*
X3807105Y-12235524D01*
X3807105Y-12235524D02*
X3788057Y-12245048D01*
X3788057Y-12245048D02*
X3778533Y-12254571D01*
X3778533Y-12254571D02*
X3769009Y-12273619D01*
X3769009Y-12273619D02*
X3769009Y-12321238D01*
X3769009Y-12321238D02*
X3778533Y-12340286D01*
X3778533Y-12340286D02*
X3788057Y-12349809D01*
X3788057Y-12349809D02*
X3807105Y-12359333D01*
X3807105Y-12359333D02*
X3845200Y-12359333D01*
X3845200Y-12359333D02*
X3864248Y-12349809D01*
X3864248Y-12349809D02*
X3873771Y-12340286D01*
X3873771Y-12340286D02*
X3883295Y-12321238D01*
X4007105Y-12235524D02*
X4026152Y-12235524D01*
X4026152Y-12235524D02*
X4045200Y-12245048D01*
X4045200Y-12245048D02*
X4054724Y-12254571D01*
X4054724Y-12254571D02*
X4064248Y-12273619D01*
X4064248Y-12273619D02*
X4073771Y-12311714D01*
X4073771Y-12311714D02*
X4073771Y-12359333D01*
X4073771Y-12359333D02*
X4064248Y-12397428D01*
X4064248Y-12397428D02*
X4054724Y-12416476D01*
X4054724Y-12416476D02*
X4045200Y-12426000D01*
X4045200Y-12426000D02*
X4026152Y-12435524D01*
X4026152Y-12435524D02*
X4007105Y-12435524D01*
X4007105Y-12435524D02*
X3988057Y-12426000D01*
X3988057Y-12426000D02*
X3978533Y-12416476D01*
X3978533Y-12416476D02*
X3969009Y-12397428D01*
X3969009Y-12397428D02*
X3959486Y-12359333D01*
X3959486Y-12359333D02*
X3959486Y-12311714D01*
X3959486Y-12311714D02*
X3969009Y-12273619D01*
X3969009Y-12273619D02*
X3978533Y-12254571D01*
X3978533Y-12254571D02*
X3988057Y-12245048D01*
X3988057Y-12245048D02*
X4007105Y-12235524D01*
X4197581Y-12235524D02*
X4216629Y-12235524D01*
X4216629Y-12235524D02*
X4235676Y-12245048D01*
X4235676Y-12245048D02*
X4245200Y-12254571D01*
X4245200Y-12254571D02*
X4254724Y-12273619D01*
X4254724Y-12273619D02*
X4264248Y-12311714D01*
X4264248Y-12311714D02*
X4264248Y-12359333D01*
X4264248Y-12359333D02*
X4254724Y-12397428D01*
X4254724Y-12397428D02*
X4245200Y-12416476D01*
X4245200Y-12416476D02*
X4235676Y-12426000D01*
X4235676Y-12426000D02*
X4216629Y-12435524D01*
X4216629Y-12435524D02*
X4197581Y-12435524D01*
X4197581Y-12435524D02*
X4178533Y-12426000D01*
X4178533Y-12426000D02*
X4169009Y-12416476D01*
X4169009Y-12416476D02*
X4159486Y-12397428D01*
X4159486Y-12397428D02*
X4149962Y-12359333D01*
X4149962Y-12359333D02*
X4149962Y-12311714D01*
X4149962Y-12311714D02*
X4159486Y-12273619D01*
X4159486Y-12273619D02*
X4169009Y-12254571D01*
X4169009Y-12254571D02*
X4178533Y-12245048D01*
X4178533Y-12245048D02*
X4197581Y-12235524D01*
X4349962Y-12435524D02*
X4349962Y-12302190D01*
X4349962Y-12321238D02*
X4359486Y-12311714D01*
X4359486Y-12311714D02*
X4378533Y-12302190D01*
X4378533Y-12302190D02*
X4407105Y-12302190D01*
X4407105Y-12302190D02*
X4426152Y-12311714D01*
X4426152Y-12311714D02*
X4435676Y-12330762D01*
X4435676Y-12330762D02*
X4435676Y-12435524D01*
X4435676Y-12330762D02*
X4445200Y-12311714D01*
X4445200Y-12311714D02*
X4464248Y-12302190D01*
X4464248Y-12302190D02*
X4492819Y-12302190D01*
X4492819Y-12302190D02*
X4511867Y-12311714D01*
X4511867Y-12311714D02*
X4521391Y-12330762D01*
X4521391Y-12330762D02*
X4521391Y-12435524D01*
X4616629Y-12435524D02*
X4616629Y-12302190D01*
X4616629Y-12321238D02*
X4626152Y-12311714D01*
X4626152Y-12311714D02*
X4645200Y-12302190D01*
X4645200Y-12302190D02*
X4673772Y-12302190D01*
X4673772Y-12302190D02*
X4692819Y-12311714D01*
X4692819Y-12311714D02*
X4702343Y-12330762D01*
X4702343Y-12330762D02*
X4702343Y-12435524D01*
X4702343Y-12330762D02*
X4711867Y-12311714D01*
X4711867Y-12311714D02*
X4730914Y-12302190D01*
X4730914Y-12302190D02*
X4759486Y-12302190D01*
X4759486Y-12302190D02*
X4778533Y-12311714D01*
X4778533Y-12311714D02*
X4788057Y-12330762D01*
X4788057Y-12330762D02*
X4788057Y-12435524D01*
X5178533Y-12226000D02*
X5007105Y-12483143D01*
X5435676Y-12235524D02*
X5454724Y-12235524D01*
X5454724Y-12235524D02*
X5473772Y-12245048D01*
X5473772Y-12245048D02*
X5483295Y-12254571D01*
X5483295Y-12254571D02*
X5492819Y-12273619D01*
X5492819Y-12273619D02*
X5502343Y-12311714D01*
X5502343Y-12311714D02*
X5502343Y-12359333D01*
X5502343Y-12359333D02*
X5492819Y-12397428D01*
X5492819Y-12397428D02*
X5483295Y-12416476D01*
X5483295Y-12416476D02*
X5473772Y-12426000D01*
X5473772Y-12426000D02*
X5454724Y-12435524D01*
X5454724Y-12435524D02*
X5435676Y-12435524D01*
X5435676Y-12435524D02*
X5416629Y-12426000D01*
X5416629Y-12426000D02*
X5407105Y-12416476D01*
X5407105Y-12416476D02*
X5397581Y-12397428D01*
X5397581Y-12397428D02*
X5388057Y-12359333D01*
X5388057Y-12359333D02*
X5388057Y-12311714D01*
X5388057Y-12311714D02*
X5397581Y-12273619D01*
X5397581Y-12273619D02*
X5407105Y-12254571D01*
X5407105Y-12254571D02*
X5416629Y-12245048D01*
X5416629Y-12245048D02*
X5435676Y-12235524D01*
X5588057Y-12416476D02*
X5597581Y-12426000D01*
X5597581Y-12426000D02*
X5588057Y-12435524D01*
X5588057Y-12435524D02*
X5578534Y-12426000D01*
X5578534Y-12426000D02*
X5588057Y-12416476D01*
X5588057Y-12416476D02*
X5588057Y-12435524D01*
X5721391Y-12235524D02*
X5740438Y-12235524D01*
X5740438Y-12235524D02*
X5759486Y-12245048D01*
X5759486Y-12245048D02*
X5769010Y-12254571D01*
X5769010Y-12254571D02*
X5778533Y-12273619D01*
X5778533Y-12273619D02*
X5788057Y-12311714D01*
X5788057Y-12311714D02*
X5788057Y-12359333D01*
X5788057Y-12359333D02*
X5778533Y-12397428D01*
X5778533Y-12397428D02*
X5769010Y-12416476D01*
X5769010Y-12416476D02*
X5759486Y-12426000D01*
X5759486Y-12426000D02*
X5740438Y-12435524D01*
X5740438Y-12435524D02*
X5721391Y-12435524D01*
X5721391Y-12435524D02*
X5702343Y-12426000D01*
X5702343Y-12426000D02*
X5692819Y-12416476D01*
X5692819Y-12416476D02*
X5683295Y-12397428D01*
X5683295Y-12397428D02*
X5673772Y-12359333D01*
X5673772Y-12359333D02*
X5673772Y-12311714D01*
X5673772Y-12311714D02*
X5683295Y-12273619D01*
X5683295Y-12273619D02*
X5692819Y-12254571D01*
X5692819Y-12254571D02*
X5702343Y-12245048D01*
X5702343Y-12245048D02*
X5721391Y-12235524D01*
X5854724Y-12235524D02*
X5978533Y-12235524D01*
X5978533Y-12235524D02*
X5911867Y-12311714D01*
X5911867Y-12311714D02*
X5940438Y-12311714D01*
X5940438Y-12311714D02*
X5959486Y-12321238D01*
X5959486Y-12321238D02*
X5969010Y-12330762D01*
X5969010Y-12330762D02*
X5978533Y-12349809D01*
X5978533Y-12349809D02*
X5978533Y-12397428D01*
X5978533Y-12397428D02*
X5969010Y-12416476D01*
X5969010Y-12416476D02*
X5959486Y-12426000D01*
X5959486Y-12426000D02*
X5940438Y-12435524D01*
X5940438Y-12435524D02*
X5883295Y-12435524D01*
X5883295Y-12435524D02*
X5864248Y-12426000D01*
X5864248Y-12426000D02*
X5854724Y-12416476D01*
X6159486Y-12235524D02*
X6064248Y-12235524D01*
X6064248Y-12235524D02*
X6054724Y-12330762D01*
X6054724Y-12330762D02*
X6064248Y-12321238D01*
X6064248Y-12321238D02*
X6083295Y-12311714D01*
X6083295Y-12311714D02*
X6130914Y-12311714D01*
X6130914Y-12311714D02*
X6149962Y-12321238D01*
X6149962Y-12321238D02*
X6159486Y-12330762D01*
X6159486Y-12330762D02*
X6169010Y-12349809D01*
X6169010Y-12349809D02*
X6169010Y-12397428D01*
X6169010Y-12397428D02*
X6159486Y-12416476D01*
X6159486Y-12416476D02*
X6149962Y-12426000D01*
X6149962Y-12426000D02*
X6130914Y-12435524D01*
X6130914Y-12435524D02*
X6083295Y-12435524D01*
X6083295Y-12435524D02*
X6064248Y-12426000D01*
X6064248Y-12426000D02*
X6054724Y-12416476D01*
X6340438Y-12302190D02*
X6340438Y-12435524D01*
X6292819Y-12226000D02*
X6245200Y-12368857D01*
X6245200Y-12368857D02*
X6369010Y-12368857D01*
X6435676Y-12235524D02*
X6435676Y-12273619D01*
X6511867Y-12235524D02*
X6511867Y-12273619D01*
X6807105Y-12511714D02*
X6797581Y-12502190D01*
X6797581Y-12502190D02*
X6778534Y-12473619D01*
X6778534Y-12473619D02*
X6769010Y-12454571D01*
X6769010Y-12454571D02*
X6759486Y-12426000D01*
X6759486Y-12426000D02*
X6749962Y-12378381D01*
X6749962Y-12378381D02*
X6749962Y-12340286D01*
X6749962Y-12340286D02*
X6759486Y-12292667D01*
X6759486Y-12292667D02*
X6769010Y-12264095D01*
X6769010Y-12264095D02*
X6778534Y-12245048D01*
X6778534Y-12245048D02*
X6797581Y-12216476D01*
X6797581Y-12216476D02*
X6807105Y-12206952D01*
X6911867Y-12321238D02*
X6892819Y-12311714D01*
X6892819Y-12311714D02*
X6883295Y-12302190D01*
X6883295Y-12302190D02*
X6873772Y-12283143D01*
X6873772Y-12283143D02*
X6873772Y-12273619D01*
X6873772Y-12273619D02*
X6883295Y-12254571D01*
X6883295Y-12254571D02*
X6892819Y-12245048D01*
X6892819Y-12245048D02*
X6911867Y-12235524D01*
X6911867Y-12235524D02*
X6949962Y-12235524D01*
X6949962Y-12235524D02*
X6969010Y-12245048D01*
X6969010Y-12245048D02*
X6978534Y-12254571D01*
X6978534Y-12254571D02*
X6988057Y-12273619D01*
X6988057Y-12273619D02*
X6988057Y-12283143D01*
X6988057Y-12283143D02*
X6978534Y-12302190D01*
X6978534Y-12302190D02*
X6969010Y-12311714D01*
X6969010Y-12311714D02*
X6949962Y-12321238D01*
X6949962Y-12321238D02*
X6911867Y-12321238D01*
X6911867Y-12321238D02*
X6892819Y-12330762D01*
X6892819Y-12330762D02*
X6883295Y-12340286D01*
X6883295Y-12340286D02*
X6873772Y-12359333D01*
X6873772Y-12359333D02*
X6873772Y-12397428D01*
X6873772Y-12397428D02*
X6883295Y-12416476D01*
X6883295Y-12416476D02*
X6892819Y-12426000D01*
X6892819Y-12426000D02*
X6911867Y-12435524D01*
X6911867Y-12435524D02*
X6949962Y-12435524D01*
X6949962Y-12435524D02*
X6969010Y-12426000D01*
X6969010Y-12426000D02*
X6978534Y-12416476D01*
X6978534Y-12416476D02*
X6988057Y-12397428D01*
X6988057Y-12397428D02*
X6988057Y-12359333D01*
X6988057Y-12359333D02*
X6978534Y-12340286D01*
X6978534Y-12340286D02*
X6969010Y-12330762D01*
X6969010Y-12330762D02*
X6949962Y-12321238D01*
X7226153Y-12435524D02*
X7226153Y-12235524D01*
X7311867Y-12435524D02*
X7311867Y-12330762D01*
X7311867Y-12330762D02*
X7302343Y-12311714D01*
X7302343Y-12311714D02*
X7283296Y-12302190D01*
X7283296Y-12302190D02*
X7254724Y-12302190D01*
X7254724Y-12302190D02*
X7235676Y-12311714D01*
X7235676Y-12311714D02*
X7226153Y-12321238D01*
X7435676Y-12435524D02*
X7416629Y-12426000D01*
X7416629Y-12426000D02*
X7407105Y-12416476D01*
X7407105Y-12416476D02*
X7397581Y-12397428D01*
X7397581Y-12397428D02*
X7397581Y-12340286D01*
X7397581Y-12340286D02*
X7407105Y-12321238D01*
X7407105Y-12321238D02*
X7416629Y-12311714D01*
X7416629Y-12311714D02*
X7435676Y-12302190D01*
X7435676Y-12302190D02*
X7464248Y-12302190D01*
X7464248Y-12302190D02*
X7483296Y-12311714D01*
X7483296Y-12311714D02*
X7492819Y-12321238D01*
X7492819Y-12321238D02*
X7502343Y-12340286D01*
X7502343Y-12340286D02*
X7502343Y-12397428D01*
X7502343Y-12397428D02*
X7492819Y-12416476D01*
X7492819Y-12416476D02*
X7483296Y-12426000D01*
X7483296Y-12426000D02*
X7464248Y-12435524D01*
X7464248Y-12435524D02*
X7435676Y-12435524D01*
X7616629Y-12435524D02*
X7597581Y-12426000D01*
X7597581Y-12426000D02*
X7588057Y-12406952D01*
X7588057Y-12406952D02*
X7588057Y-12235524D01*
X7769010Y-12426000D02*
X7749962Y-12435524D01*
X7749962Y-12435524D02*
X7711867Y-12435524D01*
X7711867Y-12435524D02*
X7692819Y-12426000D01*
X7692819Y-12426000D02*
X7683296Y-12406952D01*
X7683296Y-12406952D02*
X7683296Y-12330762D01*
X7683296Y-12330762D02*
X7692819Y-12311714D01*
X7692819Y-12311714D02*
X7711867Y-12302190D01*
X7711867Y-12302190D02*
X7749962Y-12302190D01*
X7749962Y-12302190D02*
X7769010Y-12311714D01*
X7769010Y-12311714D02*
X7778534Y-12330762D01*
X7778534Y-12330762D02*
X7778534Y-12349809D01*
X7778534Y-12349809D02*
X7683296Y-12368857D01*
X7854724Y-12426000D02*
X7873772Y-12435524D01*
X7873772Y-12435524D02*
X7911867Y-12435524D01*
X7911867Y-12435524D02*
X7930915Y-12426000D01*
X7930915Y-12426000D02*
X7940438Y-12406952D01*
X7940438Y-12406952D02*
X7940438Y-12397428D01*
X7940438Y-12397428D02*
X7930915Y-12378381D01*
X7930915Y-12378381D02*
X7911867Y-12368857D01*
X7911867Y-12368857D02*
X7883296Y-12368857D01*
X7883296Y-12368857D02*
X7864248Y-12359333D01*
X7864248Y-12359333D02*
X7854724Y-12340286D01*
X7854724Y-12340286D02*
X7854724Y-12330762D01*
X7854724Y-12330762D02*
X7864248Y-12311714D01*
X7864248Y-12311714D02*
X7883296Y-12302190D01*
X7883296Y-12302190D02*
X7911867Y-12302190D01*
X7911867Y-12302190D02*
X7930915Y-12311714D01*
X8007105Y-12511714D02*
X8016629Y-12502190D01*
X8016629Y-12502190D02*
X8035677Y-12473619D01*
X8035677Y-12473619D02*
X8045200Y-12454571D01*
X8045200Y-12454571D02*
X8054724Y-12426000D01*
X8054724Y-12426000D02*
X8064248Y-12378381D01*
X8064248Y-12378381D02*
X8064248Y-12340286D01*
X8064248Y-12340286D02*
X8054724Y-12292667D01*
X8054724Y-12292667D02*
X8045200Y-12264095D01*
X8045200Y-12264095D02*
X8035677Y-12245048D01*
X8035677Y-12245048D02*
X8016629Y-12216476D01*
X8016629Y-12216476D02*
X8007105Y-12206952D01*
D13*
X3195200Y-12557000D02*
X3195200Y-12657000D01*
X3145200Y-12607000D02*
X3245200Y-12607000D01*
D10*
X3597581Y-12699524D02*
X3483295Y-12699524D01*
X3540438Y-12699524D02*
X3540438Y-12499524D01*
X3540438Y-12499524D02*
X3521390Y-12528095D01*
X3521390Y-12528095D02*
X3502343Y-12547143D01*
X3502343Y-12547143D02*
X3483295Y-12556667D01*
X3683295Y-12680476D02*
X3692819Y-12690000D01*
X3692819Y-12690000D02*
X3683295Y-12699524D01*
X3683295Y-12699524D02*
X3673771Y-12690000D01*
X3673771Y-12690000D02*
X3683295Y-12680476D01*
X3683295Y-12680476D02*
X3683295Y-12699524D01*
X3816628Y-12499524D02*
X3835676Y-12499524D01*
X3835676Y-12499524D02*
X3854724Y-12509048D01*
X3854724Y-12509048D02*
X3864248Y-12518571D01*
X3864248Y-12518571D02*
X3873771Y-12537619D01*
X3873771Y-12537619D02*
X3883295Y-12575714D01*
X3883295Y-12575714D02*
X3883295Y-12623333D01*
X3883295Y-12623333D02*
X3873771Y-12661428D01*
X3873771Y-12661428D02*
X3864248Y-12680476D01*
X3864248Y-12680476D02*
X3854724Y-12690000D01*
X3854724Y-12690000D02*
X3835676Y-12699524D01*
X3835676Y-12699524D02*
X3816628Y-12699524D01*
X3816628Y-12699524D02*
X3797581Y-12690000D01*
X3797581Y-12690000D02*
X3788057Y-12680476D01*
X3788057Y-12680476D02*
X3778533Y-12661428D01*
X3778533Y-12661428D02*
X3769009Y-12623333D01*
X3769009Y-12623333D02*
X3769009Y-12575714D01*
X3769009Y-12575714D02*
X3778533Y-12537619D01*
X3778533Y-12537619D02*
X3788057Y-12518571D01*
X3788057Y-12518571D02*
X3797581Y-12509048D01*
X3797581Y-12509048D02*
X3816628Y-12499524D01*
X4007105Y-12499524D02*
X4026152Y-12499524D01*
X4026152Y-12499524D02*
X4045200Y-12509048D01*
X4045200Y-12509048D02*
X4054724Y-12518571D01*
X4054724Y-12518571D02*
X4064248Y-12537619D01*
X4064248Y-12537619D02*
X4073771Y-12575714D01*
X4073771Y-12575714D02*
X4073771Y-12623333D01*
X4073771Y-12623333D02*
X4064248Y-12661428D01*
X4064248Y-12661428D02*
X4054724Y-12680476D01*
X4054724Y-12680476D02*
X4045200Y-12690000D01*
X4045200Y-12690000D02*
X4026152Y-12699524D01*
X4026152Y-12699524D02*
X4007105Y-12699524D01*
X4007105Y-12699524D02*
X3988057Y-12690000D01*
X3988057Y-12690000D02*
X3978533Y-12680476D01*
X3978533Y-12680476D02*
X3969009Y-12661428D01*
X3969009Y-12661428D02*
X3959486Y-12623333D01*
X3959486Y-12623333D02*
X3959486Y-12575714D01*
X3959486Y-12575714D02*
X3969009Y-12537619D01*
X3969009Y-12537619D02*
X3978533Y-12518571D01*
X3978533Y-12518571D02*
X3988057Y-12509048D01*
X3988057Y-12509048D02*
X4007105Y-12499524D01*
X4197581Y-12499524D02*
X4216629Y-12499524D01*
X4216629Y-12499524D02*
X4235676Y-12509048D01*
X4235676Y-12509048D02*
X4245200Y-12518571D01*
X4245200Y-12518571D02*
X4254724Y-12537619D01*
X4254724Y-12537619D02*
X4264248Y-12575714D01*
X4264248Y-12575714D02*
X4264248Y-12623333D01*
X4264248Y-12623333D02*
X4254724Y-12661428D01*
X4254724Y-12661428D02*
X4245200Y-12680476D01*
X4245200Y-12680476D02*
X4235676Y-12690000D01*
X4235676Y-12690000D02*
X4216629Y-12699524D01*
X4216629Y-12699524D02*
X4197581Y-12699524D01*
X4197581Y-12699524D02*
X4178533Y-12690000D01*
X4178533Y-12690000D02*
X4169009Y-12680476D01*
X4169009Y-12680476D02*
X4159486Y-12661428D01*
X4159486Y-12661428D02*
X4149962Y-12623333D01*
X4149962Y-12623333D02*
X4149962Y-12575714D01*
X4149962Y-12575714D02*
X4159486Y-12537619D01*
X4159486Y-12537619D02*
X4169009Y-12518571D01*
X4169009Y-12518571D02*
X4178533Y-12509048D01*
X4178533Y-12509048D02*
X4197581Y-12499524D01*
X4349962Y-12699524D02*
X4349962Y-12566190D01*
X4349962Y-12585238D02*
X4359486Y-12575714D01*
X4359486Y-12575714D02*
X4378533Y-12566190D01*
X4378533Y-12566190D02*
X4407105Y-12566190D01*
X4407105Y-12566190D02*
X4426152Y-12575714D01*
X4426152Y-12575714D02*
X4435676Y-12594762D01*
X4435676Y-12594762D02*
X4435676Y-12699524D01*
X4435676Y-12594762D02*
X4445200Y-12575714D01*
X4445200Y-12575714D02*
X4464248Y-12566190D01*
X4464248Y-12566190D02*
X4492819Y-12566190D01*
X4492819Y-12566190D02*
X4511867Y-12575714D01*
X4511867Y-12575714D02*
X4521391Y-12594762D01*
X4521391Y-12594762D02*
X4521391Y-12699524D01*
X4616629Y-12699524D02*
X4616629Y-12566190D01*
X4616629Y-12585238D02*
X4626152Y-12575714D01*
X4626152Y-12575714D02*
X4645200Y-12566190D01*
X4645200Y-12566190D02*
X4673772Y-12566190D01*
X4673772Y-12566190D02*
X4692819Y-12575714D01*
X4692819Y-12575714D02*
X4702343Y-12594762D01*
X4702343Y-12594762D02*
X4702343Y-12699524D01*
X4702343Y-12594762D02*
X4711867Y-12575714D01*
X4711867Y-12575714D02*
X4730914Y-12566190D01*
X4730914Y-12566190D02*
X4759486Y-12566190D01*
X4759486Y-12566190D02*
X4778533Y-12575714D01*
X4778533Y-12575714D02*
X4788057Y-12594762D01*
X4788057Y-12594762D02*
X4788057Y-12699524D01*
X5178533Y-12490000D02*
X5007105Y-12747143D01*
X5435676Y-12499524D02*
X5454724Y-12499524D01*
X5454724Y-12499524D02*
X5473772Y-12509048D01*
X5473772Y-12509048D02*
X5483295Y-12518571D01*
X5483295Y-12518571D02*
X5492819Y-12537619D01*
X5492819Y-12537619D02*
X5502343Y-12575714D01*
X5502343Y-12575714D02*
X5502343Y-12623333D01*
X5502343Y-12623333D02*
X5492819Y-12661428D01*
X5492819Y-12661428D02*
X5483295Y-12680476D01*
X5483295Y-12680476D02*
X5473772Y-12690000D01*
X5473772Y-12690000D02*
X5454724Y-12699524D01*
X5454724Y-12699524D02*
X5435676Y-12699524D01*
X5435676Y-12699524D02*
X5416629Y-12690000D01*
X5416629Y-12690000D02*
X5407105Y-12680476D01*
X5407105Y-12680476D02*
X5397581Y-12661428D01*
X5397581Y-12661428D02*
X5388057Y-12623333D01*
X5388057Y-12623333D02*
X5388057Y-12575714D01*
X5388057Y-12575714D02*
X5397581Y-12537619D01*
X5397581Y-12537619D02*
X5407105Y-12518571D01*
X5407105Y-12518571D02*
X5416629Y-12509048D01*
X5416629Y-12509048D02*
X5435676Y-12499524D01*
X5588057Y-12680476D02*
X5597581Y-12690000D01*
X5597581Y-12690000D02*
X5588057Y-12699524D01*
X5588057Y-12699524D02*
X5578534Y-12690000D01*
X5578534Y-12690000D02*
X5588057Y-12680476D01*
X5588057Y-12680476D02*
X5588057Y-12699524D01*
X5721391Y-12499524D02*
X5740438Y-12499524D01*
X5740438Y-12499524D02*
X5759486Y-12509048D01*
X5759486Y-12509048D02*
X5769010Y-12518571D01*
X5769010Y-12518571D02*
X5778533Y-12537619D01*
X5778533Y-12537619D02*
X5788057Y-12575714D01*
X5788057Y-12575714D02*
X5788057Y-12623333D01*
X5788057Y-12623333D02*
X5778533Y-12661428D01*
X5778533Y-12661428D02*
X5769010Y-12680476D01*
X5769010Y-12680476D02*
X5759486Y-12690000D01*
X5759486Y-12690000D02*
X5740438Y-12699524D01*
X5740438Y-12699524D02*
X5721391Y-12699524D01*
X5721391Y-12699524D02*
X5702343Y-12690000D01*
X5702343Y-12690000D02*
X5692819Y-12680476D01*
X5692819Y-12680476D02*
X5683295Y-12661428D01*
X5683295Y-12661428D02*
X5673772Y-12623333D01*
X5673772Y-12623333D02*
X5673772Y-12575714D01*
X5673772Y-12575714D02*
X5683295Y-12537619D01*
X5683295Y-12537619D02*
X5692819Y-12518571D01*
X5692819Y-12518571D02*
X5702343Y-12509048D01*
X5702343Y-12509048D02*
X5721391Y-12499524D01*
X5854724Y-12499524D02*
X5978533Y-12499524D01*
X5978533Y-12499524D02*
X5911867Y-12575714D01*
X5911867Y-12575714D02*
X5940438Y-12575714D01*
X5940438Y-12575714D02*
X5959486Y-12585238D01*
X5959486Y-12585238D02*
X5969010Y-12594762D01*
X5969010Y-12594762D02*
X5978533Y-12613809D01*
X5978533Y-12613809D02*
X5978533Y-12661428D01*
X5978533Y-12661428D02*
X5969010Y-12680476D01*
X5969010Y-12680476D02*
X5959486Y-12690000D01*
X5959486Y-12690000D02*
X5940438Y-12699524D01*
X5940438Y-12699524D02*
X5883295Y-12699524D01*
X5883295Y-12699524D02*
X5864248Y-12690000D01*
X5864248Y-12690000D02*
X5854724Y-12680476D01*
X6073772Y-12699524D02*
X6111867Y-12699524D01*
X6111867Y-12699524D02*
X6130914Y-12690000D01*
X6130914Y-12690000D02*
X6140438Y-12680476D01*
X6140438Y-12680476D02*
X6159486Y-12651905D01*
X6159486Y-12651905D02*
X6169010Y-12613809D01*
X6169010Y-12613809D02*
X6169010Y-12537619D01*
X6169010Y-12537619D02*
X6159486Y-12518571D01*
X6159486Y-12518571D02*
X6149962Y-12509048D01*
X6149962Y-12509048D02*
X6130914Y-12499524D01*
X6130914Y-12499524D02*
X6092819Y-12499524D01*
X6092819Y-12499524D02*
X6073772Y-12509048D01*
X6073772Y-12509048D02*
X6064248Y-12518571D01*
X6064248Y-12518571D02*
X6054724Y-12537619D01*
X6054724Y-12537619D02*
X6054724Y-12585238D01*
X6054724Y-12585238D02*
X6064248Y-12604286D01*
X6064248Y-12604286D02*
X6073772Y-12613809D01*
X6073772Y-12613809D02*
X6092819Y-12623333D01*
X6092819Y-12623333D02*
X6130914Y-12623333D01*
X6130914Y-12623333D02*
X6149962Y-12613809D01*
X6149962Y-12613809D02*
X6159486Y-12604286D01*
X6159486Y-12604286D02*
X6169010Y-12585238D01*
X6340438Y-12566190D02*
X6340438Y-12699524D01*
X6292819Y-12490000D02*
X6245200Y-12632857D01*
X6245200Y-12632857D02*
X6369010Y-12632857D01*
X6435676Y-12499524D02*
X6435676Y-12537619D01*
X6511867Y-12499524D02*
X6511867Y-12537619D01*
X6807105Y-12775714D02*
X6797581Y-12766190D01*
X6797581Y-12766190D02*
X6778534Y-12737619D01*
X6778534Y-12737619D02*
X6769010Y-12718571D01*
X6769010Y-12718571D02*
X6759486Y-12690000D01*
X6759486Y-12690000D02*
X6749962Y-12642381D01*
X6749962Y-12642381D02*
X6749962Y-12604286D01*
X6749962Y-12604286D02*
X6759486Y-12556667D01*
X6759486Y-12556667D02*
X6769010Y-12528095D01*
X6769010Y-12528095D02*
X6778534Y-12509048D01*
X6778534Y-12509048D02*
X6797581Y-12480476D01*
X6797581Y-12480476D02*
X6807105Y-12470952D01*
X6988057Y-12699524D02*
X6873772Y-12699524D01*
X6930914Y-12699524D02*
X6930914Y-12499524D01*
X6930914Y-12499524D02*
X6911867Y-12528095D01*
X6911867Y-12528095D02*
X6892819Y-12547143D01*
X6892819Y-12547143D02*
X6873772Y-12556667D01*
X7111867Y-12499524D02*
X7130915Y-12499524D01*
X7130915Y-12499524D02*
X7149962Y-12509048D01*
X7149962Y-12509048D02*
X7159486Y-12518571D01*
X7159486Y-12518571D02*
X7169010Y-12537619D01*
X7169010Y-12537619D02*
X7178534Y-12575714D01*
X7178534Y-12575714D02*
X7178534Y-12623333D01*
X7178534Y-12623333D02*
X7169010Y-12661428D01*
X7169010Y-12661428D02*
X7159486Y-12680476D01*
X7159486Y-12680476D02*
X7149962Y-12690000D01*
X7149962Y-12690000D02*
X7130915Y-12699524D01*
X7130915Y-12699524D02*
X7111867Y-12699524D01*
X7111867Y-12699524D02*
X7092819Y-12690000D01*
X7092819Y-12690000D02*
X7083295Y-12680476D01*
X7083295Y-12680476D02*
X7073772Y-12661428D01*
X7073772Y-12661428D02*
X7064248Y-12623333D01*
X7064248Y-12623333D02*
X7064248Y-12575714D01*
X7064248Y-12575714D02*
X7073772Y-12537619D01*
X7073772Y-12537619D02*
X7083295Y-12518571D01*
X7083295Y-12518571D02*
X7092819Y-12509048D01*
X7092819Y-12509048D02*
X7111867Y-12499524D01*
X7416629Y-12699524D02*
X7416629Y-12499524D01*
X7502343Y-12699524D02*
X7502343Y-12594762D01*
X7502343Y-12594762D02*
X7492819Y-12575714D01*
X7492819Y-12575714D02*
X7473772Y-12566190D01*
X7473772Y-12566190D02*
X7445200Y-12566190D01*
X7445200Y-12566190D02*
X7426153Y-12575714D01*
X7426153Y-12575714D02*
X7416629Y-12585238D01*
X7626153Y-12699524D02*
X7607105Y-12690000D01*
X7607105Y-12690000D02*
X7597581Y-12680476D01*
X7597581Y-12680476D02*
X7588057Y-12661428D01*
X7588057Y-12661428D02*
X7588057Y-12604286D01*
X7588057Y-12604286D02*
X7597581Y-12585238D01*
X7597581Y-12585238D02*
X7607105Y-12575714D01*
X7607105Y-12575714D02*
X7626153Y-12566190D01*
X7626153Y-12566190D02*
X7654724Y-12566190D01*
X7654724Y-12566190D02*
X7673772Y-12575714D01*
X7673772Y-12575714D02*
X7683296Y-12585238D01*
X7683296Y-12585238D02*
X7692819Y-12604286D01*
X7692819Y-12604286D02*
X7692819Y-12661428D01*
X7692819Y-12661428D02*
X7683296Y-12680476D01*
X7683296Y-12680476D02*
X7673772Y-12690000D01*
X7673772Y-12690000D02*
X7654724Y-12699524D01*
X7654724Y-12699524D02*
X7626153Y-12699524D01*
X7807105Y-12699524D02*
X7788057Y-12690000D01*
X7788057Y-12690000D02*
X7778534Y-12670952D01*
X7778534Y-12670952D02*
X7778534Y-12499524D01*
X7959486Y-12690000D02*
X7940438Y-12699524D01*
X7940438Y-12699524D02*
X7902343Y-12699524D01*
X7902343Y-12699524D02*
X7883296Y-12690000D01*
X7883296Y-12690000D02*
X7873772Y-12670952D01*
X7873772Y-12670952D02*
X7873772Y-12594762D01*
X7873772Y-12594762D02*
X7883296Y-12575714D01*
X7883296Y-12575714D02*
X7902343Y-12566190D01*
X7902343Y-12566190D02*
X7940438Y-12566190D01*
X7940438Y-12566190D02*
X7959486Y-12575714D01*
X7959486Y-12575714D02*
X7969010Y-12594762D01*
X7969010Y-12594762D02*
X7969010Y-12613809D01*
X7969010Y-12613809D02*
X7873772Y-12632857D01*
X8045200Y-12690000D02*
X8064248Y-12699524D01*
X8064248Y-12699524D02*
X8102343Y-12699524D01*
X8102343Y-12699524D02*
X8121391Y-12690000D01*
X8121391Y-12690000D02*
X8130915Y-12670952D01*
X8130915Y-12670952D02*
X8130915Y-12661428D01*
X8130915Y-12661428D02*
X8121391Y-12642381D01*
X8121391Y-12642381D02*
X8102343Y-12632857D01*
X8102343Y-12632857D02*
X8073772Y-12632857D01*
X8073772Y-12632857D02*
X8054724Y-12623333D01*
X8054724Y-12623333D02*
X8045200Y-12604286D01*
X8045200Y-12604286D02*
X8045200Y-12594762D01*
X8045200Y-12594762D02*
X8054724Y-12575714D01*
X8054724Y-12575714D02*
X8073772Y-12566190D01*
X8073772Y-12566190D02*
X8102343Y-12566190D01*
X8102343Y-12566190D02*
X8121391Y-12575714D01*
X8197581Y-12775714D02*
X8207105Y-12766190D01*
X8207105Y-12766190D02*
X8226153Y-12737619D01*
X8226153Y-12737619D02*
X8235677Y-12718571D01*
X8235677Y-12718571D02*
X8245200Y-12690000D01*
X8245200Y-12690000D02*
X8254724Y-12642381D01*
X8254724Y-12642381D02*
X8254724Y-12604286D01*
X8254724Y-12604286D02*
X8245200Y-12556667D01*
X8245200Y-12556667D02*
X8235677Y-12528095D01*
X8235677Y-12528095D02*
X8226153Y-12509048D01*
X8226153Y-12509048D02*
X8207105Y-12480476D01*
X8207105Y-12480476D02*
X8197581Y-12470952D01*
D14*
X3223233Y-12924033D02*
X3223233Y-12817966D01*
X3117166Y-12817966D01*
X3117166Y-12924033D01*
X3223233Y-12924033D01*
D10*
X3597581Y-12963524D02*
X3483295Y-12963524D01*
X3540438Y-12963524D02*
X3540438Y-12763524D01*
X3540438Y-12763524D02*
X3521390Y-12792095D01*
X3521390Y-12792095D02*
X3502343Y-12811143D01*
X3502343Y-12811143D02*
X3483295Y-12820667D01*
X3683295Y-12944476D02*
X3692819Y-12954000D01*
X3692819Y-12954000D02*
X3683295Y-12963524D01*
X3683295Y-12963524D02*
X3673771Y-12954000D01*
X3673771Y-12954000D02*
X3683295Y-12944476D01*
X3683295Y-12944476D02*
X3683295Y-12963524D01*
X3873771Y-12763524D02*
X3778533Y-12763524D01*
X3778533Y-12763524D02*
X3769009Y-12858762D01*
X3769009Y-12858762D02*
X3778533Y-12849238D01*
X3778533Y-12849238D02*
X3797581Y-12839714D01*
X3797581Y-12839714D02*
X3845200Y-12839714D01*
X3845200Y-12839714D02*
X3864248Y-12849238D01*
X3864248Y-12849238D02*
X3873771Y-12858762D01*
X3873771Y-12858762D02*
X3883295Y-12877809D01*
X3883295Y-12877809D02*
X3883295Y-12925428D01*
X3883295Y-12925428D02*
X3873771Y-12944476D01*
X3873771Y-12944476D02*
X3864248Y-12954000D01*
X3864248Y-12954000D02*
X3845200Y-12963524D01*
X3845200Y-12963524D02*
X3797581Y-12963524D01*
X3797581Y-12963524D02*
X3778533Y-12954000D01*
X3778533Y-12954000D02*
X3769009Y-12944476D01*
X4007105Y-12763524D02*
X4026152Y-12763524D01*
X4026152Y-12763524D02*
X4045200Y-12773048D01*
X4045200Y-12773048D02*
X4054724Y-12782571D01*
X4054724Y-12782571D02*
X4064248Y-12801619D01*
X4064248Y-12801619D02*
X4073771Y-12839714D01*
X4073771Y-12839714D02*
X4073771Y-12887333D01*
X4073771Y-12887333D02*
X4064248Y-12925428D01*
X4064248Y-12925428D02*
X4054724Y-12944476D01*
X4054724Y-12944476D02*
X4045200Y-12954000D01*
X4045200Y-12954000D02*
X4026152Y-12963524D01*
X4026152Y-12963524D02*
X4007105Y-12963524D01*
X4007105Y-12963524D02*
X3988057Y-12954000D01*
X3988057Y-12954000D02*
X3978533Y-12944476D01*
X3978533Y-12944476D02*
X3969009Y-12925428D01*
X3969009Y-12925428D02*
X3959486Y-12887333D01*
X3959486Y-12887333D02*
X3959486Y-12839714D01*
X3959486Y-12839714D02*
X3969009Y-12801619D01*
X3969009Y-12801619D02*
X3978533Y-12782571D01*
X3978533Y-12782571D02*
X3988057Y-12773048D01*
X3988057Y-12773048D02*
X4007105Y-12763524D01*
X4197581Y-12763524D02*
X4216629Y-12763524D01*
X4216629Y-12763524D02*
X4235676Y-12773048D01*
X4235676Y-12773048D02*
X4245200Y-12782571D01*
X4245200Y-12782571D02*
X4254724Y-12801619D01*
X4254724Y-12801619D02*
X4264248Y-12839714D01*
X4264248Y-12839714D02*
X4264248Y-12887333D01*
X4264248Y-12887333D02*
X4254724Y-12925428D01*
X4254724Y-12925428D02*
X4245200Y-12944476D01*
X4245200Y-12944476D02*
X4235676Y-12954000D01*
X4235676Y-12954000D02*
X4216629Y-12963524D01*
X4216629Y-12963524D02*
X4197581Y-12963524D01*
X4197581Y-12963524D02*
X4178533Y-12954000D01*
X4178533Y-12954000D02*
X4169009Y-12944476D01*
X4169009Y-12944476D02*
X4159486Y-12925428D01*
X4159486Y-12925428D02*
X4149962Y-12887333D01*
X4149962Y-12887333D02*
X4149962Y-12839714D01*
X4149962Y-12839714D02*
X4159486Y-12801619D01*
X4159486Y-12801619D02*
X4169009Y-12782571D01*
X4169009Y-12782571D02*
X4178533Y-12773048D01*
X4178533Y-12773048D02*
X4197581Y-12763524D01*
X4349962Y-12963524D02*
X4349962Y-12830190D01*
X4349962Y-12849238D02*
X4359486Y-12839714D01*
X4359486Y-12839714D02*
X4378533Y-12830190D01*
X4378533Y-12830190D02*
X4407105Y-12830190D01*
X4407105Y-12830190D02*
X4426152Y-12839714D01*
X4426152Y-12839714D02*
X4435676Y-12858762D01*
X4435676Y-12858762D02*
X4435676Y-12963524D01*
X4435676Y-12858762D02*
X4445200Y-12839714D01*
X4445200Y-12839714D02*
X4464248Y-12830190D01*
X4464248Y-12830190D02*
X4492819Y-12830190D01*
X4492819Y-12830190D02*
X4511867Y-12839714D01*
X4511867Y-12839714D02*
X4521391Y-12858762D01*
X4521391Y-12858762D02*
X4521391Y-12963524D01*
X4616629Y-12963524D02*
X4616629Y-12830190D01*
X4616629Y-12849238D02*
X4626152Y-12839714D01*
X4626152Y-12839714D02*
X4645200Y-12830190D01*
X4645200Y-12830190D02*
X4673772Y-12830190D01*
X4673772Y-12830190D02*
X4692819Y-12839714D01*
X4692819Y-12839714D02*
X4702343Y-12858762D01*
X4702343Y-12858762D02*
X4702343Y-12963524D01*
X4702343Y-12858762D02*
X4711867Y-12839714D01*
X4711867Y-12839714D02*
X4730914Y-12830190D01*
X4730914Y-12830190D02*
X4759486Y-12830190D01*
X4759486Y-12830190D02*
X4778533Y-12839714D01*
X4778533Y-12839714D02*
X4788057Y-12858762D01*
X4788057Y-12858762D02*
X4788057Y-12963524D01*
X5178533Y-12754000D02*
X5007105Y-13011143D01*
X5435676Y-12763524D02*
X5454724Y-12763524D01*
X5454724Y-12763524D02*
X5473772Y-12773048D01*
X5473772Y-12773048D02*
X5483295Y-12782571D01*
X5483295Y-12782571D02*
X5492819Y-12801619D01*
X5492819Y-12801619D02*
X5502343Y-12839714D01*
X5502343Y-12839714D02*
X5502343Y-12887333D01*
X5502343Y-12887333D02*
X5492819Y-12925428D01*
X5492819Y-12925428D02*
X5483295Y-12944476D01*
X5483295Y-12944476D02*
X5473772Y-12954000D01*
X5473772Y-12954000D02*
X5454724Y-12963524D01*
X5454724Y-12963524D02*
X5435676Y-12963524D01*
X5435676Y-12963524D02*
X5416629Y-12954000D01*
X5416629Y-12954000D02*
X5407105Y-12944476D01*
X5407105Y-12944476D02*
X5397581Y-12925428D01*
X5397581Y-12925428D02*
X5388057Y-12887333D01*
X5388057Y-12887333D02*
X5388057Y-12839714D01*
X5388057Y-12839714D02*
X5397581Y-12801619D01*
X5397581Y-12801619D02*
X5407105Y-12782571D01*
X5407105Y-12782571D02*
X5416629Y-12773048D01*
X5416629Y-12773048D02*
X5435676Y-12763524D01*
X5588057Y-12944476D02*
X5597581Y-12954000D01*
X5597581Y-12954000D02*
X5588057Y-12963524D01*
X5588057Y-12963524D02*
X5578534Y-12954000D01*
X5578534Y-12954000D02*
X5588057Y-12944476D01*
X5588057Y-12944476D02*
X5588057Y-12963524D01*
X5721391Y-12763524D02*
X5740438Y-12763524D01*
X5740438Y-12763524D02*
X5759486Y-12773048D01*
X5759486Y-12773048D02*
X5769010Y-12782571D01*
X5769010Y-12782571D02*
X5778533Y-12801619D01*
X5778533Y-12801619D02*
X5788057Y-12839714D01*
X5788057Y-12839714D02*
X5788057Y-12887333D01*
X5788057Y-12887333D02*
X5778533Y-12925428D01*
X5778533Y-12925428D02*
X5769010Y-12944476D01*
X5769010Y-12944476D02*
X5759486Y-12954000D01*
X5759486Y-12954000D02*
X5740438Y-12963524D01*
X5740438Y-12963524D02*
X5721391Y-12963524D01*
X5721391Y-12963524D02*
X5702343Y-12954000D01*
X5702343Y-12954000D02*
X5692819Y-12944476D01*
X5692819Y-12944476D02*
X5683295Y-12925428D01*
X5683295Y-12925428D02*
X5673772Y-12887333D01*
X5673772Y-12887333D02*
X5673772Y-12839714D01*
X5673772Y-12839714D02*
X5683295Y-12801619D01*
X5683295Y-12801619D02*
X5692819Y-12782571D01*
X5692819Y-12782571D02*
X5702343Y-12773048D01*
X5702343Y-12773048D02*
X5721391Y-12763524D01*
X5969010Y-12763524D02*
X5873772Y-12763524D01*
X5873772Y-12763524D02*
X5864248Y-12858762D01*
X5864248Y-12858762D02*
X5873772Y-12849238D01*
X5873772Y-12849238D02*
X5892819Y-12839714D01*
X5892819Y-12839714D02*
X5940438Y-12839714D01*
X5940438Y-12839714D02*
X5959486Y-12849238D01*
X5959486Y-12849238D02*
X5969010Y-12858762D01*
X5969010Y-12858762D02*
X5978533Y-12877809D01*
X5978533Y-12877809D02*
X5978533Y-12925428D01*
X5978533Y-12925428D02*
X5969010Y-12944476D01*
X5969010Y-12944476D02*
X5959486Y-12954000D01*
X5959486Y-12954000D02*
X5940438Y-12963524D01*
X5940438Y-12963524D02*
X5892819Y-12963524D01*
X5892819Y-12963524D02*
X5873772Y-12954000D01*
X5873772Y-12954000D02*
X5864248Y-12944476D01*
X6073772Y-12963524D02*
X6111867Y-12963524D01*
X6111867Y-12963524D02*
X6130914Y-12954000D01*
X6130914Y-12954000D02*
X6140438Y-12944476D01*
X6140438Y-12944476D02*
X6159486Y-12915905D01*
X6159486Y-12915905D02*
X6169010Y-12877809D01*
X6169010Y-12877809D02*
X6169010Y-12801619D01*
X6169010Y-12801619D02*
X6159486Y-12782571D01*
X6159486Y-12782571D02*
X6149962Y-12773048D01*
X6149962Y-12773048D02*
X6130914Y-12763524D01*
X6130914Y-12763524D02*
X6092819Y-12763524D01*
X6092819Y-12763524D02*
X6073772Y-12773048D01*
X6073772Y-12773048D02*
X6064248Y-12782571D01*
X6064248Y-12782571D02*
X6054724Y-12801619D01*
X6054724Y-12801619D02*
X6054724Y-12849238D01*
X6054724Y-12849238D02*
X6064248Y-12868286D01*
X6064248Y-12868286D02*
X6073772Y-12877809D01*
X6073772Y-12877809D02*
X6092819Y-12887333D01*
X6092819Y-12887333D02*
X6130914Y-12887333D01*
X6130914Y-12887333D02*
X6149962Y-12877809D01*
X6149962Y-12877809D02*
X6159486Y-12868286D01*
X6159486Y-12868286D02*
X6169010Y-12849238D01*
X6359486Y-12963524D02*
X6245200Y-12963524D01*
X6302343Y-12963524D02*
X6302343Y-12763524D01*
X6302343Y-12763524D02*
X6283295Y-12792095D01*
X6283295Y-12792095D02*
X6264248Y-12811143D01*
X6264248Y-12811143D02*
X6245200Y-12820667D01*
X6435676Y-12763524D02*
X6435676Y-12801619D01*
X6511867Y-12763524D02*
X6511867Y-12801619D01*
X6807105Y-13039714D02*
X6797581Y-13030190D01*
X6797581Y-13030190D02*
X6778534Y-13001619D01*
X6778534Y-13001619D02*
X6769010Y-12982571D01*
X6769010Y-12982571D02*
X6759486Y-12954000D01*
X6759486Y-12954000D02*
X6749962Y-12906381D01*
X6749962Y-12906381D02*
X6749962Y-12868286D01*
X6749962Y-12868286D02*
X6759486Y-12820667D01*
X6759486Y-12820667D02*
X6769010Y-12792095D01*
X6769010Y-12792095D02*
X6778534Y-12773048D01*
X6778534Y-12773048D02*
X6797581Y-12744476D01*
X6797581Y-12744476D02*
X6807105Y-12734952D01*
X6921391Y-12763524D02*
X6940438Y-12763524D01*
X6940438Y-12763524D02*
X6959486Y-12773048D01*
X6959486Y-12773048D02*
X6969010Y-12782571D01*
X6969010Y-12782571D02*
X6978534Y-12801619D01*
X6978534Y-12801619D02*
X6988057Y-12839714D01*
X6988057Y-12839714D02*
X6988057Y-12887333D01*
X6988057Y-12887333D02*
X6978534Y-12925428D01*
X6978534Y-12925428D02*
X6969010Y-12944476D01*
X6969010Y-12944476D02*
X6959486Y-12954000D01*
X6959486Y-12954000D02*
X6940438Y-12963524D01*
X6940438Y-12963524D02*
X6921391Y-12963524D01*
X6921391Y-12963524D02*
X6902343Y-12954000D01*
X6902343Y-12954000D02*
X6892819Y-12944476D01*
X6892819Y-12944476D02*
X6883295Y-12925428D01*
X6883295Y-12925428D02*
X6873772Y-12887333D01*
X6873772Y-12887333D02*
X6873772Y-12839714D01*
X6873772Y-12839714D02*
X6883295Y-12801619D01*
X6883295Y-12801619D02*
X6892819Y-12782571D01*
X6892819Y-12782571D02*
X6902343Y-12773048D01*
X6902343Y-12773048D02*
X6921391Y-12763524D01*
X7226153Y-12963524D02*
X7226153Y-12763524D01*
X7311867Y-12963524D02*
X7311867Y-12858762D01*
X7311867Y-12858762D02*
X7302343Y-12839714D01*
X7302343Y-12839714D02*
X7283296Y-12830190D01*
X7283296Y-12830190D02*
X7254724Y-12830190D01*
X7254724Y-12830190D02*
X7235676Y-12839714D01*
X7235676Y-12839714D02*
X7226153Y-12849238D01*
X7435676Y-12963524D02*
X7416629Y-12954000D01*
X7416629Y-12954000D02*
X7407105Y-12944476D01*
X7407105Y-12944476D02*
X7397581Y-12925428D01*
X7397581Y-12925428D02*
X7397581Y-12868286D01*
X7397581Y-12868286D02*
X7407105Y-12849238D01*
X7407105Y-12849238D02*
X7416629Y-12839714D01*
X7416629Y-12839714D02*
X7435676Y-12830190D01*
X7435676Y-12830190D02*
X7464248Y-12830190D01*
X7464248Y-12830190D02*
X7483296Y-12839714D01*
X7483296Y-12839714D02*
X7492819Y-12849238D01*
X7492819Y-12849238D02*
X7502343Y-12868286D01*
X7502343Y-12868286D02*
X7502343Y-12925428D01*
X7502343Y-12925428D02*
X7492819Y-12944476D01*
X7492819Y-12944476D02*
X7483296Y-12954000D01*
X7483296Y-12954000D02*
X7464248Y-12963524D01*
X7464248Y-12963524D02*
X7435676Y-12963524D01*
X7616629Y-12963524D02*
X7597581Y-12954000D01*
X7597581Y-12954000D02*
X7588057Y-12934952D01*
X7588057Y-12934952D02*
X7588057Y-12763524D01*
X7769010Y-12954000D02*
X7749962Y-12963524D01*
X7749962Y-12963524D02*
X7711867Y-12963524D01*
X7711867Y-12963524D02*
X7692819Y-12954000D01*
X7692819Y-12954000D02*
X7683296Y-12934952D01*
X7683296Y-12934952D02*
X7683296Y-12858762D01*
X7683296Y-12858762D02*
X7692819Y-12839714D01*
X7692819Y-12839714D02*
X7711867Y-12830190D01*
X7711867Y-12830190D02*
X7749962Y-12830190D01*
X7749962Y-12830190D02*
X7769010Y-12839714D01*
X7769010Y-12839714D02*
X7778534Y-12858762D01*
X7778534Y-12858762D02*
X7778534Y-12877809D01*
X7778534Y-12877809D02*
X7683296Y-12896857D01*
X7854724Y-12954000D02*
X7873772Y-12963524D01*
X7873772Y-12963524D02*
X7911867Y-12963524D01*
X7911867Y-12963524D02*
X7930915Y-12954000D01*
X7930915Y-12954000D02*
X7940438Y-12934952D01*
X7940438Y-12934952D02*
X7940438Y-12925428D01*
X7940438Y-12925428D02*
X7930915Y-12906381D01*
X7930915Y-12906381D02*
X7911867Y-12896857D01*
X7911867Y-12896857D02*
X7883296Y-12896857D01*
X7883296Y-12896857D02*
X7864248Y-12887333D01*
X7864248Y-12887333D02*
X7854724Y-12868286D01*
X7854724Y-12868286D02*
X7854724Y-12858762D01*
X7854724Y-12858762D02*
X7864248Y-12839714D01*
X7864248Y-12839714D02*
X7883296Y-12830190D01*
X7883296Y-12830190D02*
X7911867Y-12830190D01*
X7911867Y-12830190D02*
X7930915Y-12839714D01*
X8178534Y-12887333D02*
X8330915Y-12887333D01*
X8254724Y-12963524D02*
X8254724Y-12811143D01*
X8559486Y-12763524D02*
X8683296Y-12763524D01*
X8683296Y-12763524D02*
X8616629Y-12839714D01*
X8616629Y-12839714D02*
X8645201Y-12839714D01*
X8645201Y-12839714D02*
X8664248Y-12849238D01*
X8664248Y-12849238D02*
X8673772Y-12858762D01*
X8673772Y-12858762D02*
X8683296Y-12877809D01*
X8683296Y-12877809D02*
X8683296Y-12925428D01*
X8683296Y-12925428D02*
X8673772Y-12944476D01*
X8673772Y-12944476D02*
X8664248Y-12954000D01*
X8664248Y-12954000D02*
X8645201Y-12963524D01*
X8645201Y-12963524D02*
X8588058Y-12963524D01*
X8588058Y-12963524D02*
X8569010Y-12954000D01*
X8569010Y-12954000D02*
X8559486Y-12944476D01*
X8854724Y-12763524D02*
X8816629Y-12763524D01*
X8816629Y-12763524D02*
X8797581Y-12773048D01*
X8797581Y-12773048D02*
X8788058Y-12782571D01*
X8788058Y-12782571D02*
X8769010Y-12811143D01*
X8769010Y-12811143D02*
X8759486Y-12849238D01*
X8759486Y-12849238D02*
X8759486Y-12925428D01*
X8759486Y-12925428D02*
X8769010Y-12944476D01*
X8769010Y-12944476D02*
X8778534Y-12954000D01*
X8778534Y-12954000D02*
X8797581Y-12963524D01*
X8797581Y-12963524D02*
X8835677Y-12963524D01*
X8835677Y-12963524D02*
X8854724Y-12954000D01*
X8854724Y-12954000D02*
X8864248Y-12944476D01*
X8864248Y-12944476D02*
X8873772Y-12925428D01*
X8873772Y-12925428D02*
X8873772Y-12877809D01*
X8873772Y-12877809D02*
X8864248Y-12858762D01*
X8864248Y-12858762D02*
X8854724Y-12849238D01*
X8854724Y-12849238D02*
X8835677Y-12839714D01*
X8835677Y-12839714D02*
X8797581Y-12839714D01*
X8797581Y-12839714D02*
X8778534Y-12849238D01*
X8778534Y-12849238D02*
X8769010Y-12858762D01*
X8769010Y-12858762D02*
X8759486Y-12877809D01*
X9102343Y-12954000D02*
X9121391Y-12963524D01*
X9121391Y-12963524D02*
X9159486Y-12963524D01*
X9159486Y-12963524D02*
X9178534Y-12954000D01*
X9178534Y-12954000D02*
X9188058Y-12934952D01*
X9188058Y-12934952D02*
X9188058Y-12925428D01*
X9188058Y-12925428D02*
X9178534Y-12906381D01*
X9178534Y-12906381D02*
X9159486Y-12896857D01*
X9159486Y-12896857D02*
X9130915Y-12896857D01*
X9130915Y-12896857D02*
X9111867Y-12887333D01*
X9111867Y-12887333D02*
X9102343Y-12868286D01*
X9102343Y-12868286D02*
X9102343Y-12858762D01*
X9102343Y-12858762D02*
X9111867Y-12839714D01*
X9111867Y-12839714D02*
X9130915Y-12830190D01*
X9130915Y-12830190D02*
X9159486Y-12830190D01*
X9159486Y-12830190D02*
X9178534Y-12839714D01*
X9302343Y-12963524D02*
X9283296Y-12954000D01*
X9283296Y-12954000D02*
X9273772Y-12934952D01*
X9273772Y-12934952D02*
X9273772Y-12763524D01*
X9407105Y-12963524D02*
X9388058Y-12954000D01*
X9388058Y-12954000D02*
X9378534Y-12944476D01*
X9378534Y-12944476D02*
X9369010Y-12925428D01*
X9369010Y-12925428D02*
X9369010Y-12868286D01*
X9369010Y-12868286D02*
X9378534Y-12849238D01*
X9378534Y-12849238D02*
X9388058Y-12839714D01*
X9388058Y-12839714D02*
X9407105Y-12830190D01*
X9407105Y-12830190D02*
X9435677Y-12830190D01*
X9435677Y-12830190D02*
X9454724Y-12839714D01*
X9454724Y-12839714D02*
X9464248Y-12849238D01*
X9464248Y-12849238D02*
X9473772Y-12868286D01*
X9473772Y-12868286D02*
X9473772Y-12925428D01*
X9473772Y-12925428D02*
X9464248Y-12944476D01*
X9464248Y-12944476D02*
X9454724Y-12954000D01*
X9454724Y-12954000D02*
X9435677Y-12963524D01*
X9435677Y-12963524D02*
X9407105Y-12963524D01*
X9530915Y-12830190D02*
X9607105Y-12830190D01*
X9559486Y-12763524D02*
X9559486Y-12934952D01*
X9559486Y-12934952D02*
X9569010Y-12954000D01*
X9569010Y-12954000D02*
X9588058Y-12963524D01*
X9588058Y-12963524D02*
X9607105Y-12963524D01*
X9664248Y-12954000D02*
X9683296Y-12963524D01*
X9683296Y-12963524D02*
X9721391Y-12963524D01*
X9721391Y-12963524D02*
X9740439Y-12954000D01*
X9740439Y-12954000D02*
X9749963Y-12934952D01*
X9749963Y-12934952D02*
X9749963Y-12925428D01*
X9749963Y-12925428D02*
X9740439Y-12906381D01*
X9740439Y-12906381D02*
X9721391Y-12896857D01*
X9721391Y-12896857D02*
X9692820Y-12896857D01*
X9692820Y-12896857D02*
X9673772Y-12887333D01*
X9673772Y-12887333D02*
X9664248Y-12868286D01*
X9664248Y-12868286D02*
X9664248Y-12858762D01*
X9664248Y-12858762D02*
X9673772Y-12839714D01*
X9673772Y-12839714D02*
X9692820Y-12830190D01*
X9692820Y-12830190D02*
X9721391Y-12830190D01*
X9721391Y-12830190D02*
X9740439Y-12839714D01*
X9816629Y-13039714D02*
X9826153Y-13030190D01*
X9826153Y-13030190D02*
X9845201Y-13001619D01*
X9845201Y-13001619D02*
X9854724Y-12982571D01*
X9854724Y-12982571D02*
X9864248Y-12954000D01*
X9864248Y-12954000D02*
X9873772Y-12906381D01*
X9873772Y-12906381D02*
X9873772Y-12868286D01*
X9873772Y-12868286D02*
X9864248Y-12820667D01*
X9864248Y-12820667D02*
X9854724Y-12792095D01*
X9854724Y-12792095D02*
X9845201Y-12773048D01*
X9845201Y-12773048D02*
X9826153Y-12744476D01*
X9826153Y-12744476D02*
X9816629Y-12734952D01*
M02*
